<svg width="30" height="30" viewBox="0 0 30 30" fill="none" xmlns="http://www.w3.org/2000/svg">
<path d="M20.1559 18.7428C19.8751 18.0779 19.4678 17.4739 18.9564 16.9646C18.4467 16.4537 17.8428 16.0464 17.1782 15.7652C17.1722 15.7622 17.1663 15.7607 17.1603 15.7577C18.0874 15.0881 18.6901 13.9973 18.6901 12.7666C18.6901 10.728 17.0383 9.07617 14.9996 9.07617C12.9609 9.07617 11.3091 10.728 11.3091 12.7666C11.3091 13.9973 11.9118 15.0881 12.8389 15.7592C12.8329 15.7622 12.827 15.7637 12.821 15.7666C12.1544 16.0479 11.5562 16.4512 11.0428 16.9661C10.5319 17.4758 10.1246 18.0797 9.84335 18.7443C9.56705 19.395 9.41803 20.0926 9.40436 20.7994C9.40397 20.8153 9.40675 20.8311 9.41256 20.8459C9.41836 20.8606 9.42707 20.8741 9.43816 20.8855C9.44926 20.8969 9.46252 20.9059 9.47716 20.9121C9.4918 20.9182 9.50753 20.9214 9.52341 20.9214H10.4163C10.4817 20.9214 10.5338 20.8693 10.5353 20.8053C10.5651 19.6565 11.0264 18.5806 11.8419 17.7652C12.6856 16.9214 13.8062 16.4571 14.9996 16.4571C16.1931 16.4571 17.3136 16.9214 18.1573 17.7652C18.9728 18.5806 19.4341 19.6565 19.4639 20.8053C19.4654 20.8708 19.5175 20.9214 19.5829 20.9214H20.4758C20.4917 20.9214 20.5074 20.9182 20.5221 20.9121C20.5367 20.9059 20.5499 20.8969 20.561 20.8855C20.5721 20.8741 20.5808 20.8606 20.5866 20.8459C20.5925 20.8311 20.5952 20.8153 20.5948 20.7994C20.58 20.0881 20.4326 19.3961 20.1559 18.7428ZM14.9996 15.3262C14.3166 15.3262 13.6737 15.0598 13.1901 14.5762C12.7064 14.0925 12.4401 13.4497 12.4401 12.7666C12.4401 12.0836 12.7064 11.4408 13.1901 10.9571C13.6737 10.4735 14.3166 10.2071 14.9996 10.2071C15.6826 10.2071 16.3255 10.4735 16.8091 10.9571C17.2928 11.4408 17.5591 12.0836 17.5591 12.7666C17.5591 13.4497 17.2928 14.0925 16.8091 14.5762C16.3255 15.0598 15.6826 15.3262 14.9996 15.3262Z" fill="white"/>
</svg>
