<svg width="20" height="20" viewBox="0 0 20 20" fill="none" xmlns="http://www.w3.org/2000/svg">
<path d="M5.625 3.75V16.3721L9.66858 13.8452L9.74731 13.8037C9.93506 13.7206 10.1541 13.7344 10.3314 13.8452L14.375 16.3721V3.75H5.625ZM15.625 17.5C15.625 17.7272 15.5015 17.9367 15.3027 18.0469C15.1041 18.1569 14.8612 18.1501 14.6686 18.0298L10 15.1117L5.33142 18.0298C5.13884 18.1501 4.89593 18.1569 4.69727 18.0469C4.49854 17.9367 4.375 17.7272 4.375 17.5V3.75C4.375 3.41848 4.50679 3.10063 4.74121 2.86621C4.97563 2.63179 5.29348 2.5 5.625 2.5H14.375C14.7065 2.5 15.0244 2.63179 15.2588 2.86621C15.4932 3.10063 15.625 3.41848 15.625 3.75V17.5Z" fill="#4A5565"/>
<path d="M5.625 3.75V16.3721L9.66858 13.8452L9.74731 13.8037C9.93506 13.7206 10.1541 13.7344 10.3314 13.8452L14.375 16.3721V3.75H5.625Z" fill="#4A5565"/>
</svg>
