<svg width="28" height="29" viewBox="0 0 28 29" fill="none" xmlns="http://www.w3.org/2000/svg">
<path d="M0 8.5C0 4.08172 3.58172 0.5 8 0.5H20C24.4183 0.5 28 4.08172 28 8.5V20.5C28 24.9183 24.4183 28.5 20 28.5H8C3.58172 28.5 0 24.9183 0 20.5V8.5Z" fill="#096DD9"/>
<g clip-path="url(#clip0_95_11)">
<path d="M22.8144 20.796H21.5552V11.9816C21.7222 11.9816 21.8823 11.9153 22.0004 11.7972C22.1184 11.6791 22.1848 11.519 22.1848 11.352C22.1848 11.185 22.1184 11.0249 22.0004 10.9068C21.8823 10.7887 21.7222 10.7224 21.5552 10.7224H17.7776V8.20402C17.9446 8.20402 18.1047 8.13769 18.2228 8.01962C18.3409 7.90154 18.4072 7.7414 18.4072 7.57442C18.4072 7.40744 18.3409 7.2473 18.2228 7.12923C18.1047 7.01116 17.9446 6.94482 17.7776 6.94482H6.44482C6.27784 6.94482 6.1177 7.01116 5.99963 7.12923C5.88156 7.2473 5.81523 7.40744 5.81523 7.57442C5.81523 7.7414 5.88156 7.90154 5.99963 8.01962C6.1177 8.13769 6.27784 8.20402 6.44482 8.20402V20.796H5.18563C5.01865 20.796 4.85851 20.8623 4.74044 20.9804C4.62236 21.0985 4.55603 21.2586 4.55603 21.4256C4.55603 21.5926 4.62236 21.7527 4.74044 21.8708C4.85851 21.9888 5.01865 22.0552 5.18563 22.0552H22.8144C22.9814 22.0552 23.1415 21.9888 23.2596 21.8708C23.3776 21.7527 23.444 21.5926 23.444 21.4256C23.444 21.2586 23.3776 21.0985 23.2596 20.9804C23.1415 20.8623 22.9814 20.796 22.8144 20.796ZM20.296 11.9816V20.796H17.7776V11.9816H20.296ZM7.70402 8.20402H16.5184V20.796H14.6296V17.0184C14.6296 16.8514 14.5633 16.6913 14.4452 16.5732C14.3271 16.4551 14.167 16.3888 14 16.3888H10.2224C10.0554 16.3888 9.89529 16.4551 9.77722 16.5732C9.65915 16.6913 9.59281 16.8514 9.59281 17.0184V20.796H7.70402V8.20402ZM13.3704 20.796H10.852V17.648H13.3704V20.796ZM8.96322 10.7224C8.96322 10.5554 9.02955 10.3953 9.14762 10.2772C9.26569 10.1591 9.42583 10.0928 9.59281 10.0928H10.852C11.019 10.0928 11.1791 10.1591 11.2972 10.2772C11.4153 10.3953 11.4816 10.5554 11.4816 10.7224C11.4816 10.8894 11.4153 11.0495 11.2972 11.1676C11.1791 11.2857 11.019 11.352 10.852 11.352H9.59281C9.42583 11.352 9.26569 11.2857 9.14762 11.1676C9.02955 11.0495 8.96322 10.8894 8.96322 10.7224ZM12.7408 10.7224C12.7408 10.5554 12.8071 10.3953 12.9252 10.2772C13.0433 10.1591 13.2034 10.0928 13.3704 10.0928H14.6296C14.7966 10.0928 14.9567 10.1591 15.0748 10.2772C15.1929 10.3953 15.2592 10.5554 15.2592 10.7224C15.2592 10.8894 15.1929 11.0495 15.0748 11.1676C14.9567 11.2857 14.7966 11.352 14.6296 11.352H13.3704C13.2034 11.352 13.0433 11.2857 12.9252 11.1676C12.8071 11.0495 12.7408 10.8894 12.7408 10.7224ZM8.96322 13.8704C8.96322 13.7034 9.02955 13.5433 9.14762 13.4252C9.26569 13.3071 9.42583 13.2408 9.59281 13.2408H10.852C11.019 13.2408 11.1791 13.3071 11.2972 13.4252C11.4153 13.5433 11.4816 13.7034 11.4816 13.8704C11.4816 14.0374 11.4153 14.1975 11.2972 14.3156C11.1791 14.4337 11.019 14.5 10.852 14.5H9.59281C9.42583 14.5 9.26569 14.4337 9.14762 14.3156C9.02955 14.1975 8.96322 14.0374 8.96322 13.8704ZM12.7408 13.8704C12.7408 13.7034 12.8071 13.5433 12.9252 13.4252C13.0433 13.3071 13.2034 13.2408 13.3704 13.2408H14.6296C14.7966 13.2408 14.9567 13.3071 15.0748 13.4252C15.1929 13.5433 15.2592 13.7034 15.2592 13.8704C15.2592 14.0374 15.1929 14.1975 15.0748 14.3156C14.9567 14.4337 14.7966 14.5 14.6296 14.5H13.3704C13.2034 14.5 13.0433 14.4337 12.9252 14.3156C12.8071 14.1975 12.7408 14.0374 12.7408 13.8704Z" fill="white"/>
</g>
<defs>
<clipPath id="clip0_95_11">
<rect width="20" height="20" fill="white" transform="translate(4 4.5)"/>
</clipPath>
</defs>
</svg>
