<svg width="19" height="16" viewBox="0 0 19 16" fill="none" xmlns="http://www.w3.org/2000/svg">
<path d="M18.2583 13.8512H16.9991V5.03678C17.1661 5.03678 17.3263 4.97045 17.4443 4.85238C17.5624 4.73431 17.6287 4.57417 17.6287 4.40719C17.6287 4.24021 17.5624 4.08007 17.4443 3.96199C17.3263 3.84392 17.1661 3.77759 16.9991 3.77759H13.2216V1.2592C13.3885 1.2592 13.5487 1.19286 13.6668 1.07479C13.7848 0.956718 13.8512 0.796578 13.8512 0.629598C13.8512 0.462618 13.7848 0.302478 13.6668 0.184405C13.5487 0.0663326 13.3885 0 13.2216 0H1.88879C1.72181 0 1.56167 0.0663326 1.4436 0.184405C1.32553 0.302478 1.2592 0.462618 1.2592 0.629598C1.2592 0.796578 1.32553 0.956718 1.4436 1.07479C1.56167 1.19286 1.72181 1.2592 1.88879 1.2592V13.8512H0.629598C0.462618 13.8512 0.302477 13.9175 0.184405 14.0356C0.0663324 14.1536 0 14.3138 0 14.4808C0 14.6477 0.0663324 14.8079 0.184405 14.9259C0.302477 15.044 0.462618 15.1104 0.629598 15.1104H18.2583C18.4253 15.1104 18.5855 15.044 18.7035 14.9259C18.8216 14.8079 18.8879 14.6477 18.8879 14.4808C18.8879 14.3138 18.8216 14.1536 18.7035 14.0356C18.5855 13.9175 18.4253 13.8512 18.2583 13.8512ZM15.7399 5.03678V13.8512H13.2216V5.03678H15.7399ZM3.14799 1.2592H11.9624V13.8512H10.0736V10.0736C10.0736 9.90659 10.0072 9.74645 9.88916 9.62838C9.77109 9.5103 9.61095 9.44397 9.44397 9.44397H5.66638C5.4994 9.44397 5.33926 9.5103 5.22119 9.62838C5.10312 9.74645 5.03678 9.90659 5.03678 10.0736V13.8512H3.14799V1.2592ZM8.81437 13.8512H6.29598V10.7032H8.81437V13.8512ZM4.40719 3.77759C4.40719 3.61061 4.47352 3.45047 4.59159 3.3324C4.70966 3.21432 4.8698 3.14799 5.03678 3.14799H6.29598C6.46296 3.14799 6.6231 3.21432 6.74117 3.3324C6.85924 3.45047 6.92558 3.61061 6.92558 3.77759C6.92558 3.94457 6.85924 4.10471 6.74117 4.22278C6.6231 4.34085 6.46296 4.40719 6.29598 4.40719H5.03678C4.8698 4.40719 4.70966 4.34085 4.59159 4.22278C4.47352 4.10471 4.40719 3.94457 4.40719 3.77759ZM8.18477 3.77759C8.18477 3.61061 8.25111 3.45047 8.36918 3.3324C8.48725 3.21432 8.64739 3.14799 8.81437 3.14799H10.0736C10.2405 3.14799 10.4007 3.21432 10.5188 3.3324C10.6368 3.45047 10.7032 3.61061 10.7032 3.77759C10.7032 3.94457 10.6368 4.10471 10.5188 4.22278C10.4007 4.34085 10.2405 4.40719 10.0736 4.40719H8.81437C8.64739 4.40719 8.48725 4.34085 8.36918 4.22278C8.25111 4.10471 8.18477 3.94457 8.18477 3.77759ZM4.40719 6.92558C4.40719 6.7586 4.47352 6.59846 4.59159 6.48039C4.70966 6.36231 4.8698 6.29598 5.03678 6.29598H6.29598C6.46296 6.29598 6.6231 6.36231 6.74117 6.48039C6.85924 6.59846 6.92558 6.7586 6.92558 6.92558C6.92558 7.09256 6.85924 7.2527 6.74117 7.37077C6.6231 7.48884 6.46296 7.55518 6.29598 7.55518H5.03678C4.8698 7.55518 4.70966 7.48884 4.59159 7.37077C4.47352 7.2527 4.40719 7.09256 4.40719 6.92558ZM8.18477 6.92558C8.18477 6.7586 8.25111 6.59846 8.36918 6.48039C8.48725 6.36231 8.64739 6.29598 8.81437 6.29598H10.0736C10.2405 6.29598 10.4007 6.36231 10.5188 6.48039C10.6368 6.59846 10.7032 6.7586 10.7032 6.92558C10.7032 7.09256 10.6368 7.2527 10.5188 7.37077C10.4007 7.48884 10.2405 7.55518 10.0736 7.55518H8.81437C8.64739 7.55518 8.48725 7.48884 8.36918 7.37077C8.25111 7.2527 8.18477 7.09256 8.18477 6.92558Z" fill="currentColor"/>
</svg>
