<svg width="28" height="29" viewBox="0 0 28 29" fill="none" xmlns="http://www.w3.org/2000/svg">
<path d="M0 8.5C0 4.08172 3.58172 0.5 8 0.5H20C24.4183 0.5 28 4.08172 28 8.5V20.5C28 24.9183 24.4183 28.5 20 28.5H8C3.58172 28.5 0 24.9183 0 20.5V8.5Z" fill="#096DD9"/>
<path d="M17.7861 22.0723C17.9553 22.0723 18.0964 22.1298 18.21 22.2441C18.3237 22.3586 18.381 22.5006 18.3818 22.6699C18.3826 22.8392 18.3252 22.9811 18.21 23.0947C18.0948 23.2081 17.9535 23.2646 17.7861 23.2646H5.86134C5.69201 23.2646 5.55021 23.2073 5.43653 23.0928C5.32299 22.9783 5.26545 22.8362 5.26466 22.667C5.26394 22.4979 5.3215 22.3567 5.43653 22.2432C5.5518 22.1295 5.6936 22.0723 5.86134 22.0723H17.7861ZM16.0918 17.3027C16.2601 17.3028 16.4013 17.359 16.5156 17.4717C16.63 17.5829 16.6874 17.7219 16.6875 17.8887C16.6875 18.0452 16.6353 18.1854 16.5313 18.3086C16.4271 18.4318 16.2799 18.4943 16.0899 18.4951H5.86134C5.69201 18.4951 5.55021 18.4377 5.43653 18.3232C5.32288 18.2088 5.26545 18.0668 5.26466 17.8975C5.26387 17.7281 5.32127 17.5863 5.43653 17.4727C5.55179 17.359 5.69364 17.3027 5.86134 17.3027H16.0918ZM18.2324 5.73438C19.4771 5.73439 20.5383 6.17346 21.417 7.05078C22.2957 7.92678 22.7354 8.98679 22.7354 10.2314C22.7353 11.4761 22.2966 12.5374 21.4199 13.416C20.5433 14.2947 19.4829 14.7344 18.2383 14.7344C16.9937 14.7344 15.9324 14.2956 15.0537 13.4189C14.1751 12.5416 13.7354 11.481 13.7354 10.2363C13.7354 8.99168 14.1744 7.93041 15.0518 7.05176C15.9291 6.1731 16.9891 5.73371 18.2324 5.73438ZM11.2988 12.5322C11.4674 12.5322 11.6092 12.5893 11.7236 12.7021C11.8371 12.8134 11.8935 12.9524 11.8936 13.1191C11.8936 13.2757 11.8372 13.4159 11.7236 13.5391C11.61 13.6622 11.4679 13.7238 11.2979 13.7246H5.86134C5.69207 13.7246 5.55019 13.6681 5.43653 13.5537C5.32292 13.4393 5.26552 13.2971 5.26466 13.1279C5.26386 12.9586 5.32131 12.8168 5.43653 12.7031C5.5518 12.5894 5.6936 12.5322 5.86134 12.5322H11.2988ZM20.3604 8.53125C20.2657 8.53192 20.1743 8.57514 20.0869 8.66113L17.5352 11.2129L16.3838 10.0801C16.3098 10.0054 16.2215 9.96592 16.1201 9.96192C16.0189 9.95733 15.9242 9.99868 15.8369 10.0859C15.7496 10.1733 15.7064 10.2647 15.707 10.3594C15.7077 10.454 15.7509 10.5455 15.8369 10.6328L16.9707 11.7461C17.132 11.9074 17.3199 11.9882 17.5352 11.9883C17.7505 11.9883 17.9396 11.9074 18.1016 11.7461L20.6338 9.20703C20.7082 9.13245 20.7479 9.04451 20.7539 8.94336C20.7606 8.84273 20.7211 8.74844 20.6338 8.66113C20.5465 8.5738 20.455 8.53058 20.3604 8.53125Z" fill="white"/>
</svg>
