<svg width="15" height="14" viewBox="0 0 15 14" fill="none" xmlns="http://www.w3.org/2000/svg">
<path d="M7.50232 0.00292969C11.3678 0.00310644 14.5023 3.13741 14.5023 7.00293C14.5023 10.8684 11.3678 14.0028 7.50232 14.0029C3.63669 14.0029 0.502319 10.8686 0.502319 7.00293C0.502319 3.1373 3.63669 0.00292969 7.50232 0.00292969ZM4.91736 4.40625C4.84873 4.40639 4.79236 4.46259 4.79236 4.53125C4.79273 4.56086 4.80379 4.58945 4.82263 4.6123L6.85486 7.03223L4.82263 9.4541C4.80388 9.47754 4.79236 9.50644 4.79236 9.53613C4.79257 9.60617 4.84885 9.661 4.91736 9.66113L5.95056 9.65625L7.50232 7.80566L9.05505 9.65723L10.0863 9.66211C10.1551 9.66211 10.2113 9.60586 10.2113 9.53711C10.2113 9.50756 10.2006 9.47941 10.182 9.45605L8.15076 7.03418L10.1801 4.61426C10.1988 4.59082 10.2094 4.56191 10.2094 4.53223C10.2091 4.4621 10.153 4.40723 10.0844 4.40723L9.0531 4.41211L7.50232 6.2627L5.95056 4.41113L4.91736 4.40625Z" fill="black" fill-opacity="0.25"/>
</svg>
