<svg width="16" height="15" viewBox="0 0 16 15" fill="none" xmlns="http://www.w3.org/2000/svg">
<path d="M4.35292 13.3334H11.6471C11.7827 13.3297 11.9144 13.3791 12.014 13.4712C12.1136 13.5633 12.1733 13.6907 12.1802 13.8261C12.1872 13.9616 12.1409 14.0944 12.0513 14.1962C11.9616 14.298 11.8357 14.3607 11.7004 14.3709L11.6471 14.3734H4.35292C4.21732 14.3771 4.08564 14.3277 3.98601 14.2356C3.88639 14.1436 3.82672 14.0162 3.81975 13.8807C3.81279 13.7452 3.85908 13.6124 3.94874 13.5106C4.0384 13.4088 4.16432 13.3461 4.29958 13.3359L4.35292 13.3334ZM1.85292 11.2501H14.1467C14.2804 11.2494 14.4092 11.3003 14.5064 11.3922C14.6035 11.4841 14.6616 11.6098 14.6684 11.7434C14.6753 11.8769 14.6305 12.008 14.5432 12.1093C14.456 12.2107 14.3331 12.2745 14.2 12.2876L14.1467 12.2901H1.85333C1.71962 12.2907 1.5908 12.2398 1.49363 12.1479C1.39646 12.0561 1.33842 11.9303 1.33156 11.7968C1.32469 11.6632 1.36953 11.5322 1.45677 11.4308C1.544 11.3295 1.66692 11.2657 1.8 11.2526L1.85292 11.2501ZM8 0.416748C10.6404 0.416748 12.1383 2.16466 12.3563 4.27508H12.4229C14.1221 4.27508 15.4996 5.64925 15.4996 7.34383C15.4996 9.03841 14.1221 10.4126 12.4229 10.4126H3.57708C1.8775 10.4126 0.5 9.03883 0.5 7.34383C0.5 5.64883 1.8775 4.27508 3.57667 4.27508H3.64333C3.8625 2.1505 5.35917 0.416748 8 0.416748ZM8 1.45633C6.22458 1.45633 4.67708 2.893 4.67708 4.87716C4.67708 5.19175 4.40375 5.43883 4.09042 5.43883H3.49875C2.41792 5.43883 1.54167 6.31925 1.54167 7.4055C1.54167 8.49216 2.41792 9.373 3.49875 9.373H12.5013C13.5821 9.373 14.4583 8.49216 14.4583 7.40591C14.4583 6.31966 13.5821 5.43841 12.5013 5.43841H11.9096C11.5963 5.43841 11.3229 5.19175 11.3229 4.87758C11.3229 2.86758 9.77542 1.45675 8 1.45675" fill="white"/>
</svg>
