<svg width="20" height="20" viewBox="0 0 20 20" fill="none" xmlns="http://www.w3.org/2000/svg">
<path d="M12.5 9.375C12.5 7.99429 11.3807 6.875 10 6.875C8.61929 6.875 7.5 7.99429 7.5 9.375C7.5 10.7557 8.61929 11.875 10 11.875C11.3807 11.875 12.5 10.7557 12.5 9.375ZM13.75 9.375C13.75 11.4461 12.0711 13.125 10 13.125C7.92893 13.125 6.25 11.4461 6.25 9.375C6.25 7.30393 7.92893 5.625 10 5.625C12.0711 5.625 13.75 7.30393 13.75 9.375Z" fill="#4A5565"/>
<path d="M10.0002 11.8711C11.1544 11.8711 12.286 12.1907 13.2697 12.7945C14.2533 13.3982 15.0506 14.2626 15.5731 15.2917C15.7293 15.5995 15.6065 15.9757 15.2987 16.132C14.9909 16.2882 14.6147 16.1654 14.4585 15.8576C14.0405 15.0343 13.4027 14.3428 12.6158 13.8598C11.8288 13.3768 10.9235 13.1211 10.0002 13.1211C9.07683 13.1211 8.17151 13.3768 7.38458 13.8598C6.59766 14.3428 5.95985 15.0343 5.54186 15.8576C5.3856 16.1654 5.00941 16.2882 4.70163 16.132C4.39385 15.9757 4.27094 15.5995 4.4272 15.2917C4.94969 14.2626 5.74701 13.3983 6.73067 12.7945C7.71433 12.1907 8.84599 11.8711 10.0002 11.8711Z" fill="#4A5565"/>
<path d="M6.37214 2.73338C7.91137 1.9631 9.65565 1.70194 11.353 1.98761C11.6934 2.04491 11.9228 2.36729 11.8655 2.70767C11.8082 3.04806 11.4859 3.27758 11.1455 3.22029C9.70947 2.97861 8.23383 3.19956 6.9316 3.85124C5.62936 4.50292 4.56788 5.55158 3.90052 6.84585C3.23316 8.14013 2.99443 9.61304 3.21876 11.0519C3.44308 12.4907 4.11885 13.821 5.14853 14.8507C6.17823 15.8804 7.50854 16.5562 8.94736 16.7805C10.3862 17.0049 11.8591 16.7661 13.1534 16.0987C14.4476 15.4313 15.4964 14.3699 16.1481 13.0677C16.7997 11.7655 17.0207 10.2898 16.779 8.85376C16.7217 8.51338 16.9512 8.191 17.2916 8.1337C17.6319 8.07641 17.9543 8.30592 18.0116 8.64631C18.2973 10.3437 18.0361 12.0879 17.2658 13.6271C16.4956 15.1663 15.2561 16.4209 13.7263 17.2097C12.1964 17.9985 10.4555 18.2807 8.7548 18.0156C7.05414 17.7504 5.48175 16.9516 4.26467 15.7346C3.0476 14.5175 2.24878 12.9451 1.98363 11.2444C1.71849 9.54377 2.00072 7.80285 2.78953 6.27304C3.57833 4.74323 4.83292 3.50366 6.37214 2.73338Z" fill="#4A5565"/>
<path d="M17.6831 2.68306C17.9271 2.43898 18.3229 2.43898 18.567 2.68306C18.8111 2.92714 18.8111 3.32292 18.567 3.567L16.067 6.067C15.8229 6.31108 15.4271 6.31108 15.1831 6.067L13.9331 4.817C13.689 4.57292 13.689 4.17714 13.9331 3.93306C14.1771 3.68898 14.5729 3.68898 14.817 3.93306L15.625 4.74109L17.6831 2.68306Z" fill="#4A5565"/>
</svg>
