<svg width="14" height="14" viewBox="0 0 14 14" fill="none" xmlns="http://www.w3.org/2000/svg">
<g clip-path="url(#clip0_3284_19438)">
<rect width="14" height="14" fill="white" fill-opacity="0.01"/>
<g clip-path="url(#clip1_3284_19438)">
<path d="M5.75661 0.110124C6.57057 -0.0366865 7.42704 -0.0367295 8.24099 0.110124L8.28298 0.117937C8.3828 0.136065 8.47473 0.184078 8.54665 0.255632C8.61865 0.327351 8.66779 0.419381 8.6863 0.519304L8.93142 1.84743C9.49699 2.05993 10.0203 2.36347 10.489 2.74782L11.7595 2.29567C11.8551 2.26221 11.9587 2.25852 12.0564 2.28493C12.1542 2.31138 12.2417 2.36704 12.3074 2.44411L12.3357 2.47731C12.8773 3.11445 13.2991 3.8443 13.5808 4.63161L13.5955 4.67262C13.6299 4.76817 13.6341 4.87228 13.6082 4.97048C13.5822 5.06857 13.5271 5.15642 13.45 5.22243L12.4265 6.09743C12.475 6.3943 12.4998 6.69762 12.4998 7.00075C12.4998 7.30384 12.475 7.60722 12.4265 7.90407L13.45 8.77907C13.6077 8.91502 13.6658 9.13381 13.5955 9.32594L13.5808 9.36598C13.298 10.1535 12.8795 10.8791 12.3357 11.5213L12.3074 11.5535C12.2418 11.6309 12.1544 11.6871 12.0564 11.7136C11.9586 11.7401 11.8551 11.7357 11.7595 11.7019L10.489 11.2507C10.023 11.6347 9.49679 11.9392 8.93142 12.1511L8.6863 13.4793C8.66774 13.579 8.61852 13.6703 8.54665 13.742C8.47468 13.8137 8.38293 13.8625 8.28298 13.8806L8.24099 13.8884C7.41959 14.0361 6.57802 14.036 5.75661 13.8884L5.71364 13.8806C5.61377 13.8625 5.5219 13.8136 5.44997 13.742C5.37819 13.6704 5.32987 13.5789 5.3113 13.4793L5.06423 12.1443C4.50339 11.9334 3.98291 11.6305 3.51735 11.2478L2.23708 11.7019C2.14144 11.7354 2.03802 11.7391 1.94021 11.7127C1.84235 11.6862 1.75491 11.6307 1.68923 11.5535L1.66091 11.5213C1.11716 10.8806 0.698604 10.1535 0.415792 9.36598L0.401143 9.32594C0.366674 9.23038 0.362516 9.12631 0.388448 9.02809C0.414365 8.93 0.469642 8.84219 0.546651 8.77614L1.58278 7.89137C1.53435 7.59919 1.51052 7.2988 1.51052 6.9988C1.51053 6.70055 1.53439 6.40076 1.58278 6.10719L0.546651 5.22243C0.38902 5.08653 0.330971 4.86782 0.401143 4.67262L0.415792 4.63161C0.698245 3.84463 1.11998 3.1149 1.66091 2.47731L1.68923 2.44411C1.75475 2.36677 1.84236 2.31141 1.94021 2.28493C2.03801 2.25846 2.14153 2.26198 2.23708 2.29567L3.51735 2.75075C3.98057 2.36941 4.50314 2.0668 5.06423 1.85426L5.3113 0.519304C5.32983 0.419435 5.37801 0.327318 5.44997 0.255632C5.52186 0.184069 5.61385 0.136102 5.71364 0.117937L5.75661 0.110124ZM7.66286 1.16676C7.22235 1.11678 6.7737 1.1168 6.33474 1.16676L6.05446 2.68532L5.46267 2.90895C5.01739 3.07769 4.60346 3.31817 4.23317 3.62282L3.74196 4.02712L2.28298 3.50856C2.01735 3.86637 1.79353 4.25114 1.61696 4.65895L2.79665 5.66676L2.69509 6.29176C2.65608 6.52442 2.63747 6.76381 2.63747 7.0027C2.6375 7.24005 2.65761 7.48099 2.69509 7.71364L2.79665 8.33864L1.61696 9.34645C1.79506 9.75258 2.01743 10.1382 2.28298 10.4959L3.74196 9.97731L4.23317 10.3816C4.60347 10.6863 5.01739 10.9277 5.46267 11.0965L6.05349 11.323L6.33278 12.8416C6.77406 12.8916 7.21963 12.8916 7.66091 12.8416L7.94021 11.3259L8.53591 11.1023C8.98591 10.9336 9.40173 10.6927 9.77517 10.3865L10.2654 9.98317L11.7156 10.4978C11.9809 10.1413 12.2047 9.75507 12.3816 9.34743L11.2136 8.34938L11.3172 7.72243C11.3562 7.48668 11.3767 7.24469 11.3767 7.0027C11.3767 6.76055 11.3562 6.51791 11.3172 6.282L11.2156 5.65895L12.3826 4.65993C12.2046 4.25392 11.983 3.86814 11.7175 3.51051L10.2674 4.02419L9.77614 3.62087C9.40285 3.31478 8.98609 3.07375 8.53786 2.90505L7.94216 2.68239L7.66286 1.16676ZM6.99978 4.09645C8.51853 4.09645 9.74978 5.3277 9.74978 6.84645C9.74951 8.36498 8.51836 9.59645 6.99978 9.59645C5.48128 9.59634 4.25004 8.36491 4.24978 6.84645C4.24978 5.32777 5.48112 4.09656 6.99978 4.09645ZM6.99978 5.09645C6.53273 5.0965 6.09366 5.27706 5.76247 5.60817C5.43278 5.93942 5.24978 6.37926 5.24978 6.84645C5.24948 7.07616 5.2947 7.30415 5.38259 7.51637C5.47054 7.7286 5.59979 7.92155 5.76247 8.08376C6.09366 8.41331 6.53273 8.5964 6.99978 8.59645C7.22954 8.59681 7.45741 8.55151 7.6697 8.46364C7.88193 8.37575 8.07484 8.24637 8.23708 8.08376C8.56665 7.75262 8.74965 7.31346 8.74978 6.84645C8.75013 6.61669 8.70484 6.38882 8.61696 6.17653C8.52901 5.96415 8.39986 5.77048 8.23708 5.60817C7.90587 5.27714 7.4668 5.09645 6.99978 5.09645Z" fill="currentColor"/>
</g>
</g>
<defs>
<clipPath id="clip0_3284_19438">
<rect width="14" height="14" fill="white"/>
</clipPath>
<clipPath id="clip1_3284_19438">
<rect width="14" height="14" fill="white"/>
</clipPath>
</defs>
</svg>
