<svg width="125" height="19" viewBox="0 0 125 19" fill="none" xmlns="http://www.w3.org/2000/svg">
<path d="M12.2064 1.16597C13.6841 1.9445 14.8271 3.03518 15.6372 4.43985C16.4472 5.84452 16.8522 7.46769 16.8522 9.30569C16.8522 11.1437 16.4472 12.743 15.6372 14.1568C14.8271 15.5707 13.6786 16.6669 12.1916 17.4436C10.7047 18.2221 8.98281 18.6095 7.02423 18.6095H0.375439C0.1683 18.6095 0 18.4425 0 18.2368V0.372742C0 0.167091 0.1683 0 0.375439 0H7.02423C8.99945 0 10.7268 0.389268 12.2046 1.16597H12.2064ZM10.7638 13.2828C11.7256 12.3464 12.2064 11.0207 12.2064 9.30569C12.2064 7.59071 11.7256 6.25582 10.7638 5.30285C9.80212 4.34804 8.45756 3.87064 6.73202 3.87064H4.56815V14.6875H6.73202C8.45941 14.6875 9.80397 14.2193 10.7638 13.2828Z" fill="black"/>
<path d="M31.0876 15.3246H24.0911L23.0554 18.3598C23.0036 18.5104 22.8612 18.6132 22.7003 18.6132H18.724C18.4632 18.6132 18.2819 18.3562 18.3707 18.1138L24.8827 0.247882C24.9363 0.100989 25.0768 0.00183582 25.2359 0.00183582H29.9964C30.1555 0.00183582 30.296 0.100989 30.3497 0.247882L36.8616 18.1138C36.9504 18.3562 36.7691 18.6132 36.5083 18.6132H32.4802C32.3193 18.6132 32.1769 18.5122 32.1251 18.3598L31.0894 15.3246H31.0876ZM29.9113 11.8249L27.5884 5.0109L25.2914 11.8249H29.9113Z" fill="black"/>
<path d="M43.6657 0.372742V18.2386C43.6657 18.4443 43.4974 18.6114 43.2902 18.6114H39.4748C39.2677 18.6114 39.0994 18.4443 39.0994 18.2386V0.372742C39.0994 0.167091 39.2677 0 39.4748 0H43.2902C43.4974 0 43.6657 0.167091 43.6657 0.372742Z" fill="black"/>
<path d="M68.206 0.372742V18.2386C68.206 18.4443 68.0377 18.6114 67.8305 18.6114H64.0151C63.808 18.6114 63.6397 18.4443 63.6397 18.2386V7.44933L59.5376 18.369C59.4821 18.5141 59.3415 18.6114 59.1862 18.6114H56.0218C55.8646 18.6114 55.724 18.5141 55.6704 18.369L51.5424 7.42179V18.2368C51.5424 18.4425 51.3741 18.6096 51.1669 18.6096H47.3515C47.1444 18.6096 46.9761 18.4425 46.9761 18.2368V0.372742C46.9761 0.167091 47.1444 0 47.3515 0H52.1176C52.2711 0 52.4079 0.0918084 52.4653 0.233193L57.6308 12.8862L62.7445 0.235029C62.8019 0.0936443 62.9406 0.00183656 63.0922 0.00183656H67.8305C68.0377 0.00183656 68.206 0.168928 68.206 0.374578V0.372742Z" fill="black"/>
<path d="M83.1608 15.3246H76.1643L75.1286 18.3598C75.0768 18.5104 74.9344 18.6132 74.7735 18.6132H70.7972C70.5364 18.6132 70.3552 18.3562 70.444 18.1138L76.9559 0.247882C77.0095 0.100989 77.1501 0.00183582 77.3091 0.00183582H82.0696C82.2287 0.00183582 82.3693 0.100989 82.4229 0.247882L88.9348 18.1138C89.0236 18.3562 88.8424 18.6132 88.5816 18.6132H84.5535C84.3926 18.6132 84.2502 18.5122 84.1984 18.3598L83.1627 15.3246H83.1608ZM81.9864 11.8249L79.6635 5.0109L77.3665 11.8249H81.9864Z" fill="black"/>
<path d="M100.627 18.4186L96.8357 11.5862H96.1163C95.9092 11.5862 95.7409 11.7533 95.7409 11.959V18.6114H91.1746V0.372742C91.1746 0.167091 91.3429 0 91.55 0H98.8387C100.316 0 101.576 0.257063 102.617 0.769354C103.658 1.28164 104.437 1.9849 104.953 2.87727C105.469 3.76965 105.728 4.76485 105.728 5.85921C105.728 7.09678 105.377 8.20216 104.674 9.17349C104.045 10.042 103.152 10.6828 101.994 11.1015C101.774 11.1804 101.678 11.4375 101.796 11.6395L105.889 18.6132H100.956C100.819 18.6132 100.694 18.5398 100.627 18.4204V18.4186ZM95.739 8.37843H98.5705C99.4065 8.37843 100.035 8.17461 100.453 7.76882C100.871 7.36303 101.08 6.78831 101.08 6.04466C101.08 5.30101 100.871 4.78138 100.453 4.37375C100.035 3.96796 99.4065 3.76414 98.5705 3.76414H95.739V8.37659V8.37843Z" fill="black"/>
<path d="M112.695 0C112.902 0 113.07 0.167091 113.07 0.372742V11.1345C113.07 12.2472 113.346 13.1047 113.899 13.707C114.45 14.3074 115.26 14.6085 116.329 14.6085C117.398 14.6085 118.215 14.3074 118.785 13.707C119.355 13.1066 119.639 12.2491 119.639 11.1345V0.372742C119.639 0.167091 119.808 0 120.015 0H123.83C124.037 0 124.206 0.167091 124.206 0.372742V11.1088C124.206 12.7705 123.849 14.1752 123.137 15.3246C122.425 16.4741 121.468 17.3389 120.266 17.9228C119.064 18.5067 117.725 18.7968 116.247 18.7968C114.77 18.7968 113.447 18.5104 112.282 17.9357C111.115 17.361 110.194 16.4961 109.517 15.3375C108.84 14.1807 108.502 12.7705 108.502 11.1088V0.372742C108.502 0.167091 108.67 0 108.877 0H112.693H112.695Z" fill="black"/>
</svg>
