<svg width="173" height="31" viewBox="0 0 173 31" fill="none" xmlns="http://www.w3.org/2000/svg">
<g clip-path="url(#clip0_3284_19348)">
<path d="M39.1715 0V5.82616H0V0.104662C3.32902 0.791388 10.7416 1.27063 19.3546 1.27063C28.3929 1.27063 36.1106 0.743648 39.1715 0Z" fill="#DE1319"/>
<path d="M39.1715 12.8809H0V18.1084H39.1715V12.8809Z" fill="#DE1319"/>
<path d="M39.1715 25.1504V31.0004H39.042C35.898 30.2733 28.2671 29.761 19.3546 29.761C10.442 29.761 3.32902 30.2402 0 30.927V25.1504H39.1715Z" fill="#DE1319"/>
<path d="M60.9989 7.26753C62.4766 8.04606 63.6196 9.13675 64.4296 10.5414C65.2397 11.9461 65.6447 13.5693 65.6447 15.4073C65.6447 17.2453 65.2397 18.8446 64.4296 20.2584C63.6196 21.6723 62.4711 22.7684 60.9841 23.5451C59.4971 24.3237 57.7753 24.7111 55.8167 24.7111H49.1679C48.9608 24.7111 48.7925 24.544 48.7925 24.3384V6.4743C48.7925 6.26865 48.9608 6.10156 49.1679 6.10156H55.8167C57.7919 6.10156 59.5193 6.49083 60.997 7.26753H60.9989ZM59.5563 19.3844C60.518 18.4479 60.9989 17.1222 60.9989 15.4073C60.9989 13.6923 60.518 12.3574 59.5563 11.4044C58.5946 10.4496 57.25 9.9722 55.5245 9.9722H53.3606V20.7891H55.5245C57.2519 20.7891 58.5964 20.3208 59.5563 19.3844Z" fill="black"/>
<path d="M79.88 21.4263H72.8835L71.8478 24.4615C71.796 24.6121 71.6536 24.7149 71.4927 24.7149H67.5164C67.2556 24.7149 67.0744 24.4578 67.1631 24.2155L73.6751 6.34956C73.7287 6.20267 73.8693 6.10352 74.0283 6.10352H78.7888C78.9479 6.10352 79.0884 6.20267 79.1421 6.34956L85.654 24.2155C85.7428 24.4578 85.5615 24.7149 85.3008 24.7149H81.2726C81.1117 24.7149 80.9693 24.6139 80.9175 24.4615L79.8819 21.4263H79.88ZM78.7037 17.9266L76.3808 11.1126L74.0838 17.9266H78.7037Z" fill="black"/>
<path d="M92.458 6.4743V24.3402C92.458 24.5459 92.2897 24.7129 92.0826 24.7129H88.2672C88.06 24.7129 87.8917 24.5459 87.8917 24.3402V6.4743C87.8917 6.26865 88.06 6.10156 88.2672 6.10156H92.0826C92.2897 6.10156 92.458 6.26865 92.458 6.4743Z" fill="black"/>
<path d="M116.998 6.4743V24.3402C116.998 24.5459 116.83 24.7129 116.623 24.7129H112.808C112.6 24.7129 112.432 24.5459 112.432 24.3402V13.5509L108.33 24.4706C108.275 24.6156 108.134 24.7129 107.979 24.7129H104.814C104.657 24.7129 104.516 24.6156 104.463 24.4706L100.335 13.5233V24.3384C100.335 24.544 100.167 24.7111 99.9594 24.7111H96.144C95.9368 24.7111 95.7685 24.544 95.7685 24.3384V6.4743C95.7685 6.26865 95.9368 6.10156 96.144 6.10156H100.91C101.064 6.10156 101.2 6.19337 101.258 6.33476L106.423 18.9878L111.537 6.33659C111.594 6.19521 111.733 6.1034 111.885 6.1034H116.623C116.83 6.1034 116.998 6.27049 116.998 6.47614V6.4743Z" fill="black"/>
<path d="M131.953 21.4263H124.957L123.921 24.4615C123.869 24.6121 123.727 24.7149 123.566 24.7149H119.59C119.329 24.7149 119.148 24.4578 119.236 24.2155L125.748 6.34956C125.802 6.20267 125.943 6.10352 126.102 6.10352H130.862C131.021 6.10352 131.162 6.20267 131.215 6.34956L137.727 24.2155C137.816 24.4578 137.635 24.7149 137.374 24.7149H133.346C133.185 24.7149 133.043 24.6139 132.991 24.4615L131.955 21.4263H131.953ZM130.779 17.9266L128.456 11.1126L126.159 17.9266H130.779Z" fill="black"/>
<path d="M149.42 24.5201L145.628 17.6878H144.909C144.702 17.6878 144.533 17.8549 144.533 18.0605V24.7129H139.967V6.4743C139.967 6.26865 140.135 6.10156 140.343 6.10156H147.631C149.109 6.10156 150.368 6.35863 151.41 6.87092C152.451 7.38321 153.23 8.08646 153.746 8.97884C154.262 9.87121 154.52 10.8664 154.52 11.9608C154.52 13.1983 154.169 14.3037 153.466 15.2751C152.837 16.1436 151.944 16.7844 150.786 17.203C150.566 17.282 150.47 17.539 150.589 17.741L154.681 24.7148H149.749C149.612 24.7148 149.486 24.6413 149.42 24.522V24.5201ZM144.532 14.48H147.363C148.199 14.48 148.828 14.2762 149.246 13.8704C149.664 13.4646 149.873 12.8899 149.873 12.1462C149.873 11.4026 149.664 10.8829 149.246 10.4753C148.828 10.0695 148.199 9.8657 147.363 9.8657H144.532V14.4782V14.48Z" fill="black"/>
<path d="M161.487 6.10156C161.694 6.10156 161.863 6.26865 161.863 6.4743V17.2361C161.863 18.3488 162.138 19.2063 162.691 19.8085C163.242 20.409 164.053 20.7101 165.121 20.7101C166.19 20.7101 167.008 20.409 167.578 19.8085C168.147 19.2081 168.432 18.3506 168.432 17.2361V6.4743C168.432 6.26865 168.6 6.10156 168.807 6.10156H172.623C172.83 6.10156 172.998 6.26865 172.998 6.4743V17.2104C172.998 18.8721 172.641 20.2768 171.929 21.4262C171.217 22.5756 170.261 23.4405 169.059 24.0244C167.857 24.6083 166.518 24.8984 165.04 24.8984C163.562 24.8984 162.24 24.612 161.075 24.0372C159.908 23.4625 158.987 22.5977 158.31 21.4391C157.633 20.2823 157.295 18.8721 157.295 17.2104V6.4743C157.295 6.26865 157.463 6.10156 157.67 6.10156H161.485H161.487Z" fill="black"/>
</g>
<defs>
<clipPath id="clip0_3284_19348">
<rect width="173" height="31" fill="white"/>
</clipPath>
</defs>
</svg>
