<svg width="12" height="12" viewBox="0 0 12 12" fill="none" xmlns="http://www.w3.org/2000/svg">
<g clip-path="url(#clip0_15100_423883)">
<path d="M3.96408 1.60589H3.85693C3.91586 1.60589 3.96408 1.55767 3.96408 1.49874V1.60589H8.03551V1.49874C8.03551 1.55767 8.08372 1.60589 8.14265 1.60589H8.03551V2.57017H8.99979V1.49874C8.99979 1.02598 8.61542 0.641602 8.14265 0.641602H3.85693C3.38417 0.641602 2.99979 1.02598 2.99979 1.49874V2.57017H3.96408V1.60589ZM10.7141 2.57017H1.28551C1.04845 2.57017 0.856934 2.76169 0.856934 2.99874V3.42732C0.856934 3.48624 0.905148 3.53446 0.964076 3.53446H1.77301L2.10381 10.5389C2.12524 10.9956 2.50292 11.3559 2.95961 11.3559H9.03997C9.49801 11.3559 9.87435 10.997 9.89577 10.5389L10.2266 3.53446H11.0355C11.0944 3.53446 11.1426 3.48624 11.1426 3.42732V2.99874C11.1426 2.76169 10.9511 2.57017 10.7141 2.57017ZM8.93685 10.3916H3.06274L2.73863 3.53446H9.26095L8.93685 10.3916Z" fill="#B60022"/>
</g>
<defs>
<clipPath id="clip0_15100_423883">
<rect width="12" height="12" fill="white"/>
</clipPath>
</defs>
</svg>
