<svg width="20" height="20" viewBox="0 0 20 20" fill="none" xmlns="http://www.w3.org/2000/svg">
<path d="M16.25 4.58366L15.915 10.0053M3.75 4.58366L4.25417 12.9378C4.3825 15.077 4.4475 16.1462 4.9825 16.9162C5.24667 17.2962 5.5875 17.6178 5.9825 17.8587C6.54167 18.2003 7.23417 18.3028 8.33333 18.3337M2.5 4.58366H17.5M13.38 4.58366L12.8108 3.41033C12.4333 2.63033 12.2442 2.24116 11.9183 1.99783C11.846 1.94392 11.7693 1.89599 11.6892 1.85449C11.3283 1.66699 10.895 1.66699 10.0292 1.66699C9.14083 1.66699 8.69667 1.66699 8.32917 1.86199C8.24793 1.9055 8.17044 1.95567 8.0975 2.01199C7.76833 2.26449 7.58417 2.66866 7.21583 3.47616L6.71083 4.58366" stroke="#1890FF" stroke-width="1.5" stroke-linecap="round" stroke-linejoin="round"/>
<path fill-rule="evenodd" clip-rule="evenodd" d="M13.5242 19.145C14.0463 19.145 14.5633 19.0422 15.0457 18.8424C15.528 18.6426 15.9663 18.3497 16.3355 17.9805C16.7047 17.6113 16.9976 17.173 17.1974 16.6907C17.3972 16.2083 17.5 15.6913 17.5 15.1692C17.5 14.6471 17.3972 14.1301 17.1974 13.6477C16.9976 13.1653 16.7047 12.727 16.3355 12.3579C15.9663 11.9887 15.528 11.6958 15.0457 11.496C14.5633 11.2962 14.0463 11.1934 13.5242 11.1934C12.4697 11.1934 11.4584 11.6122 10.7128 12.3579C9.96722 13.1035 9.54834 14.1147 9.54834 15.1692C9.54834 16.2236 9.96722 17.2349 10.7128 17.9805C11.4584 18.7261 12.4697 19.145 13.5242 19.145ZM13.4217 16.7772L15.6305 14.1266L14.9519 13.5612L13.0524 15.8402L12.0695 14.8569L11.4448 15.4815L12.7701 16.8068L13.112 17.1487L13.4217 16.7772Z" fill="#1890FF"/>
</svg>
