<svg width="18" height="20" viewBox="0 0 18 20" fill="none" xmlns="http://www.w3.org/2000/svg">
<path d="M15.25 4.58366L14.7333 12.9378C14.6017 15.072 14.5358 16.1395 14 16.907C13.7355 17.2863 13.3949 17.6064 13 17.847C12.2025 18.3337 11.1333 18.3337 8.995 18.3337C6.85333 18.3337 5.7825 18.3337 4.98333 17.8462C4.58824 17.6051 4.24768 17.2844 3.98333 16.9045C3.44833 16.1362 3.38333 15.067 3.255 12.9295L2.75 4.58366M1.5 4.58366H16.5M12.38 4.58366L11.8108 3.41033C11.4333 2.63033 11.2442 2.24116 10.9183 1.99783C10.846 1.94392 10.7693 1.89599 10.6892 1.85449C10.3283 1.66699 9.895 1.66699 9.02917 1.66699C8.14083 1.66699 7.69667 1.66699 7.32917 1.86199C7.24793 1.9055 7.17044 1.95567 7.0975 2.01199C6.76833 2.26449 6.58417 2.66866 6.21583 3.47616L5.71083 4.58366M6.91667 13.7503V8.75033M11.0833 13.7503V8.75033" stroke="#DE0D09" stroke-width="1.5" stroke-linecap="round" stroke-linejoin="round"/>
</svg>
