<svg width="30" height="34" viewBox="0 0 30 34" fill="none" xmlns="http://www.w3.org/2000/svg">
<path d="M28.2926 9.83816L19.2711 0.869909C18.7321 0.33407 18.0052 0.0332485 17.2468 0.0332485L4.7314 -0.0012207C2.4251 -0.0012207 0.557495 1.86951 0.557495 4.17581V29.824C0.557495 32.1303 2.4251 34.001 4.73453 34.001H25.3784C27.6847 34.001 29.5555 32.1303 29.5555 29.824L29.4708 12.649C29.4646 11.593 29.0416 10.5839 28.2926 9.83816Z" fill="#55ABF6"/>
<path d="M19.1493 1.63011L27.9732 10.5322C28.3675 10.9299 28.0854 11.6097 27.5245 11.6097H22.9766C20.2675 11.6097 18.0684 9.41395 18.0684 6.7015V2.07539C18.0684 1.51114 18.7516 1.22902 19.1493 1.63011Z" fill="#E1EEFD"/>
<path d="M3.53271 24.0468V16.1788H6.18888C6.72009 16.1788 7.21473 16.2621 7.67268 16.4159C8.13064 16.5761 8.54584 16.8067 8.91836 17.1143C9.29081 17.4218 9.58394 17.8319 9.79764 18.3445C10.0113 18.857 10.1213 19.4465 10.1213 20.1128C10.1213 20.7791 10.0113 21.3686 9.79764 21.8811C9.58394 22.3937 9.29081 22.8038 8.91836 23.1113C8.5459 23.4188 8.13064 23.6495 7.67268 23.8097C7.21473 23.9635 6.72015 24.0468 6.18888 24.0468H3.53271ZM5.40729 22.3361H5.96294C6.26213 22.3361 6.54302 22.2976 6.79334 22.2271C7.04979 22.1503 7.2818 22.0286 7.50162 21.8683C7.72144 21.7081 7.89239 21.4775 8.01452 21.1764C8.14277 20.8816 8.20378 20.5228 8.20378 20.1128C8.20378 19.7028 8.14272 19.344 8.01452 19.0428C7.89239 18.7481 7.72144 18.5174 7.50162 18.3573C7.2818 18.1907 7.04979 18.0754 6.79334 17.9984C6.54302 17.9279 6.26213 17.8895 5.96294 17.8895H5.40729V22.3361ZM14.6703 24.1365C13.5407 24.1365 12.6064 23.752 11.8676 22.9896C11.1288 22.2271 10.7624 21.2661 10.7624 20.1129C10.7624 18.9596 11.1288 17.9985 11.8676 17.2361C12.6064 16.4736 13.5407 16.0892 14.6703 16.0892C15.7816 16.0892 16.7036 16.4737 17.4424 17.2361C18.1752 17.9986 18.5415 18.9596 18.5415 20.1129C18.5415 21.2661 18.1752 22.2272 17.4424 22.9896C16.7036 23.752 15.7816 24.1365 14.6703 24.1365ZM13.2292 21.7723C13.6017 22.2079 14.0779 22.4258 14.658 22.4258C15.2381 22.4258 15.7083 22.2079 16.0808 21.7723C16.4532 21.3302 16.6364 20.7791 16.6364 20.1128C16.6364 19.4465 16.4532 18.8954 16.0808 18.4533C15.7083 18.0177 15.2381 17.7998 14.658 17.7998C14.0779 17.7998 13.6017 18.0177 13.2292 18.4533C12.8568 18.8954 12.6674 19.4465 12.6674 20.1128C12.6674 20.7791 12.8568 21.3302 13.2292 21.7723ZM22.999 24.1365C21.906 24.1365 20.9961 23.7777 20.2757 23.0729C19.549 22.3617 19.1888 21.375 19.1888 20.1128C19.1888 18.857 19.5552 17.8703 20.2879 17.1591C21.0268 16.4479 21.9244 16.0891 22.999 16.0891C23.9699 16.0891 24.7637 16.339 25.3926 16.8452C26.0155 17.3449 26.3757 18.0112 26.4673 18.8441L24.5744 19.2478C24.495 18.8121 24.3057 18.4598 24.0126 18.197C23.7196 17.9343 23.3776 17.7998 22.9868 17.7998C22.4494 17.7998 22.0037 17.9984 21.6434 18.4021C21.2832 18.8121 21.1 19.3759 21.1 20.1127C21.1 20.8496 21.2832 21.4134 21.6373 21.8171C21.9976 22.2271 22.4433 22.4257 22.9867 22.4257C23.3775 22.4257 23.7134 22.3104 23.9881 22.0798C24.2629 21.8491 24.4339 21.5416 24.5072 21.1571L26.4428 21.6185C26.2657 22.4129 25.8749 23.028 25.2643 23.4701C24.6598 23.9122 23.9027 24.1365 22.999 24.1365Z" fill="white"/>
</svg>
