<svg width="10" height="10" viewBox="0 0 10 10" fill="none" xmlns="http://www.w3.org/2000/svg">
<path d="M9.3125 8.79688H0.6875C0.480078 8.79688 0.3125 8.96445 0.3125 9.17188V9.59375C0.3125 9.64531 0.354687 9.6875 0.40625 9.6875H9.59375C9.64531 9.6875 9.6875 9.64531 9.6875 9.59375V9.17188C9.6875 8.96445 9.51992 8.79688 9.3125 8.79688ZM2.01992 7.8125C2.04336 7.8125 2.0668 7.81016 2.09023 7.80664L4.06133 7.46094C4.08477 7.45625 4.10703 7.4457 4.12344 7.42813L9.09101 2.46055C9.10188 2.44971 9.1105 2.43683 9.11638 2.42265C9.12226 2.40847 9.12529 2.39328 9.12529 2.37793C9.12529 2.36258 9.12226 2.34738 9.11638 2.33321C9.1105 2.31903 9.10188 2.30615 9.09101 2.29531L7.14336 0.346484C7.12109 0.324219 7.0918 0.3125 7.06016 0.3125C7.02852 0.3125 6.99922 0.324219 6.97695 0.346484L2.00937 5.31406C1.9918 5.33164 1.98125 5.35273 1.97656 5.37617L1.63086 7.34727C1.61946 7.41004 1.62353 7.47466 1.64273 7.53551C1.66192 7.59635 1.69566 7.65161 1.74102 7.69648C1.81836 7.77148 1.91563 7.8125 2.01992 7.8125ZM2.80977 5.76875L7.06016 1.51953L7.91914 2.37852L3.66875 6.62773L2.62695 6.81172L2.80977 5.76875Z" fill="#1890FF"/>
</svg>
