<svg width="14" height="17" viewBox="0 0 14 17" fill="none" xmlns="http://www.w3.org/2000/svg">
<path d="M12.1587 6.11909H7.39681V1.35722H1.84129V15.6428H12.1587V6.11909ZM11.6658 4.92862L8.58728 1.85007V4.92862H11.6658ZM1.24605 0.166748H8.58728L13.3492 4.92862V16.2381C13.3492 16.3959 13.2864 16.5473 13.1748 16.659C13.0632 16.7706 12.9118 16.8333 12.7539 16.8333H1.24605C1.08819 16.8333 0.936786 16.7706 0.825158 16.659C0.71353 16.5473 0.650818 16.3959 0.650818 16.2381V0.761983C0.650818 0.604117 0.71353 0.452716 0.825158 0.341088C0.936786 0.22946 1.08819 0.166748 1.24605 0.166748ZM3.42858 8.50003H10.5714V9.6905H3.42858V8.50003ZM3.42858 4.92862H5.6111V6.11909H3.42858V4.92862ZM3.42858 12.0714H10.5714V13.2619H3.42858V12.0714Z" fill="white"/>
</svg>
