<svg width="20" height="20" viewBox="0 0 20 20" fill="none" xmlns="http://www.w3.org/2000/svg">
<path d="M17.647 5.01339L12.8435 0.209821C12.7095 0.0758929 12.5287 0 12.339 0H2.85686C2.46177 0 2.14258 0.319196 2.14258 0.714286V19.2857C2.14258 19.6808 2.46177 20 2.85686 20H17.1426C17.5377 20 17.8569 19.6808 17.8569 19.2857V5.52009C17.8569 5.33036 17.781 5.14732 17.647 5.01339ZM16.2095 5.84821H12.0087V1.64732L16.2095 5.84821ZM16.2497 18.3929H3.74972V1.60714H10.4908V6.42857C10.4908 6.67721 10.5896 6.91567 10.7654 7.09148C10.9412 7.2673 11.1797 7.36607 11.4283 7.36607H16.2497V18.3929ZM10.714 9.10714C10.714 9.00893 10.6337 8.92857 10.5354 8.92857H9.46401C9.36579 8.92857 9.28544 9.00893 9.28544 9.10714V11.5179H6.87472C6.77651 11.5179 6.69615 11.5982 6.69615 11.6964V12.7679C6.69615 12.8661 6.77651 12.9464 6.87472 12.9464H9.28544V15.3571C9.28544 15.4554 9.36579 15.5357 9.46401 15.5357H10.5354C10.6337 15.5357 10.714 15.4554 10.714 15.3571V12.9464H13.1247C13.2229 12.9464 13.3033 12.8661 13.3033 12.7679V11.6964C13.3033 11.5982 13.2229 11.5179 13.1247 11.5179H10.714V9.10714Z" fill="#4A5565"/>
</svg>
