<svg width="28" height="29" viewBox="0 0 28 29" fill="none" xmlns="http://www.w3.org/2000/svg">
<path d="M0 8.5C0 4.08172 3.58172 0.5 8 0.5H20C24.4183 0.5 28 4.08172 28 8.5V20.5C28 24.9183 24.4183 28.5 20 28.5H8C3.58172 28.5 0 24.9183 0 20.5V8.5Z" fill="#096DD9"/>
<path d="M19.1583 12.1184H14.3964V7.35648H8.84086V21.6421H19.1583V12.1184ZM18.6654 10.9279L15.5868 7.84934V10.9279H18.6654ZM8.24563 6.16602H15.5868L20.3487 10.9279V22.2373C20.3487 22.3952 20.286 22.5466 20.1744 22.6582C20.0628 22.7699 19.9114 22.8326 19.7535 22.8326H8.24563C8.08776 22.8326 7.93636 22.7699 7.82473 22.6582C7.7131 22.5466 7.65039 22.3952 7.65039 22.2373V6.76125C7.65039 6.60338 7.7131 6.45198 7.82473 6.34036C7.93636 6.22873 8.08776 6.16602 8.24563 6.16602ZM10.4282 14.4993H17.571V15.6898H10.4282V14.4993ZM10.4282 10.9279H12.6107V12.1184H10.4282V10.9279ZM10.4282 18.0707H17.571V19.2612H10.4282V18.0707Z" fill="white"/>
</svg>
