<svg width="20" height="20" viewBox="0 0 20 20" fill="none" xmlns="http://www.w3.org/2000/svg">
<path d="M13.9289 5.53348V4.46205C13.9289 4.36384 13.8485 4.28348 13.7503 4.28348H5.17885C5.08064 4.28348 5.00028 4.36384 5.00028 4.46205V5.53348C5.00028 5.6317 5.08064 5.71205 5.17885 5.71205H13.7503C13.8485 5.71205 13.9289 5.6317 13.9289 5.53348ZM5.17885 7.49777C5.08064 7.49777 5.00028 7.57812 5.00028 7.67634V8.74777C5.00028 8.84598 5.08064 8.92634 5.17885 8.92634H9.28599C9.38421 8.92634 9.46456 8.84598 9.46456 8.74777V7.67634C9.46456 7.57812 9.38421 7.49777 9.28599 7.49777H5.17885ZM13.5717 10.0871C10.9088 10.0871 8.75028 12.2455 8.75028 14.9085C8.75028 17.5714 10.9088 19.7299 13.5717 19.7299C16.2347 19.7299 18.3931 17.5714 18.3931 14.9085C18.3931 12.2455 16.2347 10.0871 13.5717 10.0871ZM15.9713 17.308C15.3306 17.9487 14.478 18.3013 13.5717 18.3013C12.6655 18.3013 11.8128 17.9487 11.1722 17.308C10.5315 16.6674 10.1789 15.8147 10.1789 14.9085C10.1789 14.0022 10.5315 13.1496 11.1722 12.5089C11.8128 11.8683 12.6655 11.5156 13.5717 11.5156C14.478 11.5156 15.3306 11.8683 15.9713 12.5089C16.6119 13.1496 16.9646 14.0022 16.9646 14.9085C16.9646 15.8147 16.6119 16.6674 15.9713 17.308ZM15.5583 13.2121H14.5695C14.5114 13.2121 14.4579 13.2388 14.4244 13.2857L13.007 15.2455L12.4914 14.5335C12.4748 14.5105 12.453 14.4918 12.4278 14.479C12.4025 14.4661 12.3746 14.4596 12.3463 14.4598H11.3619C11.2168 14.4598 11.132 14.625 11.2168 14.7433L12.8641 17.0223C12.9355 17.1205 13.0806 17.1205 13.1521 17.0223L15.7012 13.4955C15.7882 13.3772 15.7034 13.2121 15.5583 13.2121ZM8.39314 17.5871H3.21456V1.87277H15.7146V9.55134C15.7146 9.64955 15.7949 9.72991 15.8931 9.72991H17.1431C17.2414 9.72991 17.3217 9.64955 17.3217 9.55134V0.979911C17.3217 0.584821 17.0025 0.265625 16.6074 0.265625H2.32171C1.92662 0.265625 1.60742 0.584821 1.60742 0.979911V18.4799C1.60742 18.875 1.92662 19.1942 2.32171 19.1942H8.39314C8.49135 19.1942 8.57171 19.1138 8.57171 19.0156V17.7656C8.57171 17.6674 8.49135 17.5871 8.39314 17.5871Z" fill="#4A5565"/>
</svg>
