<svg width="20" height="20" viewBox="0 0 20 20" fill="none" xmlns="http://www.w3.org/2000/svg">
<path d="M13.9291 5.53153V4.4601C13.9291 4.36189 13.8487 4.28153 13.7505 4.28153H5.17909C5.08088 4.28153 5.00052 4.36189 5.00052 4.4601V5.53153C5.00052 5.62974 5.08088 5.7101 5.17909 5.7101H13.7505C13.8487 5.7101 13.9291 5.62974 13.9291 5.53153ZM5.17909 7.49581C5.08088 7.49581 5.00052 7.57617 5.00052 7.67439V8.74582C5.00052 8.84403 5.08088 8.92439 5.17909 8.92439H9.28624C9.38445 8.92439 9.46481 8.84403 9.46481 8.74582V7.67439C9.46481 7.57617 9.38445 7.49581 9.28624 7.49581H5.17909ZM13.572 10.0851C10.909 10.0851 8.75052 12.2436 8.75052 14.9065C8.75052 17.5695 10.909 19.728 13.572 19.728C16.2349 19.728 18.3934 17.5695 18.3934 14.9065C18.3934 12.2436 16.2349 10.0851 13.572 10.0851ZM15.9715 17.3061C15.3309 17.9467 14.4782 18.2994 13.572 18.2994C12.6657 18.2994 11.813 17.9467 11.1724 17.3061C10.5318 16.6655 10.1791 15.8128 10.1791 14.9065C10.1791 14.0003 10.5318 13.1476 11.1724 12.507C11.813 11.8664 12.6657 11.5137 13.572 11.5137C14.4782 11.5137 15.3309 11.8664 15.9715 12.507C16.6121 13.1476 16.9648 14.0003 16.9648 14.9065C16.9648 15.8128 16.6121 16.6655 15.9715 17.3061ZM15.5586 13.2101H14.5697C14.5117 13.2101 14.4581 13.2369 14.4246 13.2838L13.0072 15.2436L12.4916 14.5315C12.4751 14.5085 12.4533 14.4898 12.428 14.477C12.4028 14.4642 12.3748 14.4576 12.3465 14.4579H11.3621C11.217 14.4579 11.1322 14.623 11.217 14.7414L12.8644 17.0204C12.9358 17.1186 13.0809 17.1186 13.1523 17.0204L15.7014 13.4936C15.7885 13.3753 15.7036 13.2101 15.5586 13.2101ZM8.39338 17.5851H3.21481V1.87081H15.7148V9.54939C15.7148 9.6476 15.7952 9.72796 15.8934 9.72796H17.1434C17.2416 9.72796 17.322 9.6476 17.322 9.54939V0.977958C17.322 0.582868 17.0028 0.263672 16.6077 0.263672H2.32195C1.92686 0.263672 1.60767 0.582868 1.60767 0.977958V18.478C1.60767 18.873 1.92686 19.1922 2.32195 19.1922H8.39338C8.49159 19.1922 8.57195 19.1119 8.57195 19.0137V17.7637C8.57195 17.6655 8.49159 17.5851 8.39338 17.5851Z" fill="#6A7282"/>
</svg>
