<svg width="13" height="11" viewBox="0 0 13 11" fill="none" xmlns="http://www.w3.org/2000/svg">
<path d="M0.875 7.875V9.1875H11.375V7.875H0.875ZM7.875 7H10.5V6.125C10.5003 5.1725 10.1899 4.24582 9.6156 3.4859C9.16089 2.8842 8.56019 2.41352 7.875 2.11444V7ZM4.375 2.11444C3.68981 2.41352 3.08911 2.8842 2.6344 3.4859C2.06014 4.24582 1.74972 5.1725 1.75 6.125V7H4.375V2.11444ZM5.25 0.875V7H7V0.875H5.25ZM7.875 1.17493C8.84269 1.51711 9.69194 2.13548 10.3137 2.95825C11.0028 3.87009 11.3753 4.98209 11.375 6.125V7C11.8582 7 12.25 7.39175 12.25 7.875V9.1875C12.25 9.67075 11.8582 10.0625 11.375 10.0625H0.875C0.391751 10.0625 0 9.67075 0 9.1875V7.875C0 7.39175 0.391751 7 0.875 7V6.125C0.874721 4.98209 1.24721 3.87009 1.93628 2.95825C2.55806 2.13548 3.40731 1.51711 4.375 1.17493V0.875C4.375 0.642935 4.46725 0.420442 4.63135 0.256348C4.79544 0.0922536 5.01794 0 5.25 0H7C7.23206 0 7.45456 0.0922534 7.61865 0.256348C7.78275 0.420443 7.875 0.642936 7.875 0.875V1.17493Z" fill="currentColor"/>
</svg>
