<svg width="20" height="21" viewBox="0 0 20 21" fill="none" xmlns="http://www.w3.org/2000/svg">
<g clip-path="url(#clip0_17309_73486)">
<path d="M10.0419 5.69643H9.07565C8.98726 5.69643 8.91494 5.76875 8.91494 5.85715V11.3877C8.91494 11.44 8.93904 11.4882 8.98123 11.5183L12.302 13.9431C12.3743 13.9953 12.4748 13.9813 12.527 13.9089L13.1015 13.1254C13.1558 13.0511 13.1397 12.9507 13.0674 12.9004L10.2027 10.8292V5.85715C10.2027 5.76875 10.1303 5.69643 10.0419 5.69643ZM14.4576 7.20715L17.6076 7.97656C17.708 8.00067 17.8065 7.92433 17.8065 7.82188L17.8225 4.57746C17.8225 4.44286 17.6678 4.36652 17.5634 4.4509L14.3973 6.92389C14.3734 6.9424 14.3552 6.96729 14.3447 6.99569C14.3343 7.02409 14.3321 7.05486 14.3384 7.08445C14.3447 7.11404 14.3593 7.14125 14.3803 7.16296C14.4014 7.18466 14.4282 7.19998 14.4576 7.20715ZM17.8265 13.256L16.6875 12.8643C16.6478 12.8507 16.6043 12.8531 16.5664 12.8712C16.5285 12.8892 16.4991 12.9213 16.4846 12.9607C16.4464 13.0632 16.4062 13.1636 16.364 13.2641C16.0065 14.1098 15.4942 14.8712 14.8393 15.5241C14.1916 16.1738 13.4241 16.6916 12.5792 17.0489C11.704 17.4189 10.7632 17.6089 9.81293 17.6074C8.85266 17.6074 7.92253 17.4205 7.04663 17.0489C6.20176 16.6916 5.43423 16.1738 4.78659 15.5241C4.13369 14.8712 3.62141 14.1098 3.26181 13.2641C2.89381 12.3883 2.70527 11.4477 2.70735 10.4978C2.70735 9.5375 2.89418 8.60536 3.26583 7.72947C3.62342 6.88371 4.1357 6.12232 4.79061 5.46942C5.43825 4.81977 6.20577 4.30195 7.05065 3.94465C7.92253 3.57299 8.85467 3.38616 9.81494 3.38616C10.7752 3.38616 11.7053 3.57299 12.5812 3.94465C13.4261 4.30195 14.1936 4.81977 14.8413 5.46942C15.0462 5.67634 15.239 5.8913 15.4158 6.11831L16.6172 5.17813C15.0361 3.15715 12.5752 1.85737 9.81092 1.85938C4.99752 1.86139 1.13235 5.77076 1.18056 10.5862C1.22878 15.3172 5.07587 19.1362 9.81494 19.1362C13.5415 19.1362 16.7156 16.7737 17.925 13.465C17.9551 13.3806 17.9109 13.2862 17.8265 13.256Z" fill="white"/>
</g>
<defs>
<clipPath id="clip0_17309_73486">
<rect width="18" height="18" fill="white" transform="translate(0.558289 1.5)"/>
</clipPath>
</defs>
</svg>
