<svg width="20" height="20" viewBox="0 0 20 20" fill="none" xmlns="http://www.w3.org/2000/svg">
<path d="M10.5374 4.66379H9.46374C9.36552 4.66379 9.28516 4.74414 9.28516 4.84236V10.9874C9.28516 11.0455 9.31195 11.0991 9.35883 11.1325L13.0486 13.8267C13.1289 13.8848 13.2405 13.8691 13.2986 13.7888L13.937 12.9183C13.9972 12.8357 13.9794 12.7241 13.899 12.6683L10.716 10.3669V4.84236C10.716 4.74414 10.6356 4.66379 10.5374 4.66379ZM15.4436 6.34236L18.9436 7.19727C19.0553 7.22405 19.1646 7.13923 19.1646 7.02539L19.1825 3.42048C19.1825 3.27093 19.0106 3.18611 18.8945 3.27986L15.3767 6.02763C15.3501 6.04819 15.3299 6.07585 15.3183 6.10741C15.3067 6.13897 15.3043 6.17315 15.3113 6.20603C15.3183 6.23891 15.3344 6.26914 15.3578 6.29326C15.3812 6.31738 15.411 6.3344 15.4436 6.34236ZM19.187 13.0633L17.9213 12.6281C17.8772 12.6129 17.8289 12.6157 17.7868 12.6357C17.7446 12.6557 17.712 12.6914 17.6959 12.7352C17.6535 12.8491 17.6088 12.9607 17.562 13.0723C17.1646 14.012 16.5954 14.858 15.8678 15.5834C15.1482 16.3053 14.2953 16.8806 13.3566 17.2776C12.3841 17.6888 11.3388 17.8998 10.2829 17.8982C9.21597 17.8982 8.18249 17.6906 7.20927 17.2776C6.27052 16.8806 5.41771 16.3053 4.69811 15.5834C3.97266 14.858 3.40347 14.012 3.00391 13.0723C2.59502 12.0992 2.38553 11.0541 2.38784 9.99861C2.38784 8.93164 2.59543 7.89593 3.00838 6.92272C3.4057 5.98298 3.9749 5.137 4.70258 4.41155C5.42217 3.68972 6.27498 3.11436 7.21374 2.71736C8.18249 2.30441 9.2182 2.09682 10.2852 2.09682C11.3521 2.09682 12.3856 2.30441 13.3588 2.71736C14.2976 3.11436 15.1504 3.68972 15.87 4.41155C16.0977 4.64147 16.312 4.8803 16.5084 5.13254L17.8432 4.08789C16.0865 1.84236 13.3521 0.398161 10.2807 0.400393C4.93249 0.402625 0.637842 4.74638 0.691414 10.0968C0.744985 15.3535 5.01954 19.5968 10.2852 19.5968C14.4258 19.5968 17.9526 16.9718 19.2963 13.2955C19.3298 13.2017 19.2807 13.0968 19.187 13.0633Z" fill="#1890FF"/>
</svg>
