<svg width="20" height="21" viewBox="0 0 20 21" fill="none" xmlns="http://www.w3.org/2000/svg">
<path d="M9.99927 2.63477C10.503 2.63477 10.9912 2.80902 11.3811 3.12793L16.634 6.74414C16.6967 6.79525 16.7477 6.85958 16.7825 6.93262C16.8171 7.0055 16.8351 7.08532 16.8352 7.16602V17.8203C16.8351 17.9649 16.7773 18.1038 16.675 18.2061C16.5728 18.3082 16.4339 18.3652 16.2893 18.3652H3.71021C3.56568 18.3651 3.42667 18.3083 3.32446 18.2061C3.22226 18.1038 3.16539 17.9648 3.16528 17.8203V7.16602C3.1653 7.08539 3.18257 7.00551 3.21704 6.93262C3.25155 6.85967 3.30211 6.79532 3.3645 6.74414L8.61743 3.12793C9.00729 2.80894 9.49554 2.63482 9.99927 2.63477ZM10.0002 3.72656C9.74846 3.72656 9.50375 3.81328 9.30884 3.97266L4.2561 7.4248V17.2744H15.7434V7.4248L10.6907 3.97266C10.4958 3.81332 10.252 3.72661 10.0002 3.72656ZM12.9651 15.3613C12.9651 15.5553 12.94 15.7075 12.8879 15.8164C12.8406 15.9252 12.7478 16.0086 12.6106 16.0654C12.4828 16.1222 12.3118 16.1567 12.0989 16.1709C11.8858 16.1851 11.6201 16.1924 11.303 16.1924C11.2935 16.1262 11.2747 16.053 11.2463 15.9727C11.2179 15.8922 11.1877 15.811 11.1545 15.7305C11.1214 15.6501 11.0859 15.579 11.0481 15.5176C11.2042 15.5223 11.3534 15.5275 11.4954 15.5322H11.8713C11.9846 15.5275 12.063 15.5254 12.1057 15.5254C12.172 15.5254 12.2199 15.5129 12.2483 15.4893C12.2766 15.4609 12.2903 15.4159 12.2903 15.3545V13.3652H7.70923V16.1924H7.03442V10.0693H12.9651V15.3613ZM7.70923 12.6982H9.62036V10.7373H7.70923V12.6982ZM10.2874 12.6982H12.2903V10.7373H10.2874V12.6982ZM10.0002 5.73242C10.316 5.73248 10.6188 5.85778 10.842 6.08105C11.0653 6.30437 11.1907 6.60708 11.1907 6.92285C11.1907 7.23863 11.0653 7.54134 10.842 7.76465C10.6188 7.98793 10.316 8.11323 10.0002 8.11328C9.68447 8.11328 9.38176 7.98789 9.15845 7.76465C8.93513 7.54133 8.80885 7.23866 8.80884 6.92285C8.80884 6.60702 8.93512 6.30438 9.15845 6.08105C9.38177 5.85778 9.68445 5.73242 10.0002 5.73242ZM10.0002 6.32715C9.84237 6.32715 9.691 6.39034 9.57935 6.50195C9.46768 6.61362 9.40454 6.76494 9.40454 6.92285C9.40455 7.08075 9.46769 7.2321 9.57935 7.34375C9.691 7.45533 9.84239 7.51855 10.0002 7.51855C10.1581 7.5185 10.3095 7.45536 10.4211 7.34375C10.5327 7.23211 10.595 7.08071 10.595 6.92285C10.595 6.765 10.5327 6.6136 10.4211 6.50195C10.3095 6.39034 10.1581 6.3272 10.0002 6.32715Z" fill="white"/>
</svg>
