<svg width="20" height="17" viewBox="0 0 20 17" fill="none" xmlns="http://www.w3.org/2000/svg">
<path d="M18.8144 14.796H17.5552V5.98161C17.7222 5.98161 17.8823 5.91528 18.0004 5.7972C18.1184 5.67913 18.1848 5.51899 18.1848 5.35201C18.1848 5.18503 18.1184 5.02489 18.0004 4.90682C17.8823 4.78875 17.7222 4.72241 17.5552 4.72241H13.7776V2.20402C13.9446 2.20402 14.1047 2.13769 14.2228 2.01962C14.3409 1.90154 14.4072 1.7414 14.4072 1.57442C14.4072 1.40744 14.3409 1.2473 14.2228 1.12923C14.1047 1.01116 13.9446 0.944824 13.7776 0.944824H2.44482C2.27784 0.944824 2.1177 1.01116 1.99963 1.12923C1.88156 1.2473 1.81523 1.40744 1.81523 1.57442C1.81523 1.7414 1.88156 1.90154 1.99963 2.01962C2.1177 2.13769 2.27784 2.20402 2.44482 2.20402V14.796H1.18563C1.01865 14.796 0.858508 14.8623 0.740435 14.9804C0.622363 15.0985 0.55603 15.2586 0.55603 15.4256C0.55603 15.5926 0.622363 15.7527 0.740435 15.8708C0.858508 15.9888 1.01865 16.0552 1.18563 16.0552H18.8144C18.9814 16.0552 19.1415 15.9888 19.2596 15.8708C19.3776 15.7527 19.444 15.5926 19.444 15.4256C19.444 15.2586 19.3776 15.0985 19.2596 14.9804C19.1415 14.8623 18.9814 14.796 18.8144 14.796ZM16.296 5.98161V14.796H13.7776V5.98161H16.296ZM3.70402 2.20402H12.5184V14.796H10.6296V11.0184C10.6296 10.8514 10.5633 10.6913 10.4452 10.5732C10.3271 10.4551 10.167 10.3888 10 10.3888H6.22241C6.05543 10.3888 5.89529 10.4551 5.77722 10.5732C5.65915 10.6913 5.59281 10.8514 5.59281 11.0184V14.796H3.70402V2.20402ZM9.3704 14.796H6.85201V11.648H9.3704V14.796ZM4.96322 4.72241C4.96322 4.55543 5.02955 4.39529 5.14762 4.27722C5.26569 4.15915 5.42583 4.09281 5.59281 4.09281H6.85201C7.01899 4.09281 7.17913 4.15915 7.2972 4.27722C7.41528 4.39529 7.48161 4.55543 7.48161 4.72241C7.48161 4.88939 7.41528 5.04953 7.2972 5.16761C7.17913 5.28568 7.01899 5.35201 6.85201 5.35201H5.59281C5.42583 5.35201 5.26569 5.28568 5.14762 5.16761C5.02955 5.04953 4.96322 4.88939 4.96322 4.72241ZM8.7408 4.72241C8.7408 4.55543 8.80714 4.39529 8.92521 4.27722C9.04328 4.15915 9.20342 4.09281 9.3704 4.09281H10.6296C10.7966 4.09281 10.9567 4.15915 11.0748 4.27722C11.1929 4.39529 11.2592 4.55543 11.2592 4.72241C11.2592 4.88939 11.1929 5.04953 11.0748 5.16761C10.9567 5.28568 10.7966 5.35201 10.6296 5.35201H9.3704C9.20342 5.35201 9.04328 5.28568 8.92521 5.16761C8.80714 5.04953 8.7408 4.88939 8.7408 4.72241ZM4.96322 7.8704C4.96322 7.70342 5.02955 7.54328 5.14762 7.42521C5.26569 7.30714 5.42583 7.24081 5.59281 7.24081H6.85201C7.01899 7.24081 7.17913 7.30714 7.2972 7.42521C7.41528 7.54328 7.48161 7.70342 7.48161 7.8704C7.48161 8.03738 7.41528 8.19752 7.2972 8.3156C7.17913 8.43367 7.01899 8.5 6.85201 8.5H5.59281C5.42583 8.5 5.26569 8.43367 5.14762 8.3156C5.02955 8.19752 4.96322 8.03738 4.96322 7.8704ZM8.7408 7.8704C8.7408 7.70342 8.80714 7.54328 8.92521 7.42521C9.04328 7.30714 9.20342 7.24081 9.3704 7.24081H10.6296C10.7966 7.24081 10.9567 7.30714 11.0748 7.42521C11.1929 7.54328 11.2592 7.70342 11.2592 7.8704C11.2592 8.03738 11.1929 8.19752 11.0748 8.3156C10.9567 8.43367 10.7966 8.5 10.6296 8.5H9.3704C9.20342 8.5 9.04328 8.43367 8.92521 8.3156C8.80714 8.19752 8.7408 8.03738 8.7408 7.8704Z" fill="currentColor"/>
</svg>
