<svg width="17" height="17" viewBox="0 0 17 17" fill="none" xmlns="http://www.w3.org/2000/svg">
<path d="M8.6875 1C4.71836 1 1.5 4.21836 1.5 8.1875C1.5 12.1566 4.71836 15.375 8.6875 15.375C12.6566 15.375 15.875 12.1566 15.875 8.1875C15.875 4.21836 12.6566 1 8.6875 1Z" stroke="white" stroke-width="1.3" stroke-miterlimit="10"/>
<path d="M7.59375 7.09375H8.84375V11.625" stroke="white" stroke-width="1.3" stroke-linecap="round" stroke-linejoin="round"/>
<path d="M8.6875 3.57812C8.48663 3.57812 8.29027 3.63769 8.12325 3.74929C7.95623 3.86089 7.82606 4.01951 7.74918 4.20509C7.67231 4.39067 7.6522 4.59488 7.69139 4.79189C7.73058 4.9889 7.82731 5.16987 7.96934 5.31191C8.11138 5.45394 8.29235 5.55067 8.48936 5.58986C8.68637 5.62905 8.89058 5.60894 9.07616 5.53207C9.26174 5.4552 9.42036 5.32502 9.53196 5.158C9.64356 4.99098 9.70313 4.79462 9.70313 4.59375C9.70313 4.32439 9.59612 4.06606 9.40566 3.87559C9.21519 3.68513 8.95686 3.57812 8.6875 3.57812Z" fill="white"/>
</svg>
