<svg width="17" height="16" viewBox="0 0 17 16" fill="none" xmlns="http://www.w3.org/2000/svg">
<g clip-path="url(#clip0_5455_363343)">
<path d="M8.33301 0C3.91515 0 0.333008 3.58214 0.333008 8C0.333008 12.4179 3.91515 16 8.33301 16C12.7509 16 16.333 12.4179 16.333 8C16.333 3.58214 12.7509 0 8.33301 0ZM8.33301 14.6429C4.66515 14.6429 1.69015 11.6679 1.69015 8C1.69015 4.33214 4.66515 1.35714 8.33301 1.35714C12.0009 1.35714 14.9759 4.33214 14.9759 8C14.9759 11.6679 12.0009 14.6429 8.33301 14.6429Z" fill="currentColor"/>
<path d="M7.47559 4.85714C7.47559 5.08447 7.56589 5.30249 7.72664 5.46323C7.88738 5.62398 8.1054 5.71429 8.33273 5.71429C8.56006 5.71429 8.77807 5.62398 8.93882 5.46323C9.09957 5.30249 9.18987 5.08447 9.18987 4.85714C9.18987 4.62981 9.09957 4.4118 8.93882 4.25105C8.77807 4.09031 8.56006 4 8.33273 4C8.1054 4 7.88738 4.09031 7.72664 4.25105C7.56589 4.4118 7.47559 4.62981 7.47559 4.85714ZM8.7613 6.85714H7.90416C7.82559 6.85714 7.7613 6.92143 7.7613 7V11.8571C7.7613 11.9357 7.82559 12 7.90416 12H8.7613C8.83987 12 8.90416 11.9357 8.90416 11.8571V7C8.90416 6.92143 8.83987 6.85714 8.7613 6.85714Z" fill="currentColor"/>
</g>
<defs>
<clipPath id="clip0_5455_363343">
<rect width="16" height="16" fill="white" transform="translate(0.333008)"/>
</clipPath>
</defs>
</svg>
