<svg width="20" height="11" viewBox="0 0 20 11" fill="none" xmlns="http://www.w3.org/2000/svg">
<path d="M17.8125 0.5C17.5581 0.500066 17.3075 0.562248 17.0826 0.681144C16.8577 0.800041 16.6653 0.972054 16.5219 1.18224C16.3786 1.39243 16.2888 1.63443 16.2603 1.88723C16.2317 2.14002 16.2653 2.39596 16.3582 2.63281L13.0703 5.9207C12.7038 5.77643 12.2962 5.77643 11.9297 5.9207L9.57928 3.57031C9.67235 3.33341 9.70614 3.07736 9.67771 2.82442C9.64927 2.57149 9.55948 2.32933 9.41613 2.11901C9.27279 1.90868 9.08023 1.73656 8.85521 1.61761C8.63019 1.49865 8.37951 1.43648 8.12499 1.43648C7.87046 1.43648 7.61978 1.49865 7.39476 1.61761C7.16974 1.73656 6.97718 1.90868 6.83384 2.11901C6.69049 2.32933 6.6007 2.57149 6.57227 2.82442C6.54383 3.07736 6.57762 3.33341 6.67069 3.57031L2.7578 7.4832C2.42363 7.35212 2.05451 7.34009 1.71252 7.44914C1.37052 7.55819 1.0765 7.78167 0.879895 8.08201C0.68329 8.38234 0.596092 8.74121 0.632961 9.09828C0.66983 9.45534 0.828518 9.78882 1.08234 10.0426C1.33617 10.2965 1.66965 10.4552 2.02671 10.492C2.38378 10.5289 2.74265 10.4417 3.04298 10.2451C3.34332 10.0485 3.5668 9.75447 3.67585 9.41247C3.7849 9.07048 3.77287 8.70136 3.64178 8.36719L7.55467 4.4543C7.92119 4.59857 8.32878 4.59857 8.6953 4.4543L11.0457 6.80469C10.9526 7.04159 10.9188 7.29764 10.9473 7.55058C10.9757 7.80351 11.0655 8.04567 11.2088 8.256C11.3522 8.46632 11.5447 8.63844 11.7698 8.75739C11.9948 8.87635 12.2455 8.93853 12.5 8.93853C12.7545 8.93853 13.0052 8.87635 13.2302 8.75739C13.4552 8.63844 13.6478 8.46632 13.7911 8.256C13.9345 8.04567 14.0243 7.80351 14.0527 7.55058C14.0811 7.29764 14.0474 7.04159 13.9543 6.80469L17.2422 3.5168C17.4561 3.60085 17.686 3.63666 17.9154 3.62168C18.1448 3.60669 18.368 3.54128 18.5692 3.4301C18.7704 3.31893 18.9446 3.16473 19.0793 2.97851C19.2141 2.79228 19.3061 2.57861 19.3488 2.35274C19.3915 2.12687 19.3839 1.89436 19.3264 1.6718C19.2689 1.44923 19.163 1.24208 19.0163 1.06513C18.8696 0.888186 18.6856 0.745792 18.4775 0.648106C18.2694 0.55042 18.0424 0.49985 17.8125 0.5Z" fill="white"/>
</svg>
