<svg width="20" height="21" viewBox="0 0 20 21" fill="none" xmlns="http://www.w3.org/2000/svg">
<path d="M13.7861 18.0728C13.9553 18.0728 14.0964 18.1303 14.21 18.2446C14.3237 18.3591 14.381 18.5011 14.3818 18.6704C14.3826 18.8397 14.3252 18.9816 14.21 19.0952C14.0948 19.2085 13.9535 19.2651 13.7861 19.2651H1.86134C1.69201 19.2651 1.55021 19.2077 1.43653 19.0933C1.32299 18.9788 1.26545 18.8367 1.26466 18.6675C1.26394 18.4984 1.3215 18.3572 1.43653 18.2437C1.5518 18.13 1.6936 18.0728 1.86134 18.0728H13.7861ZM12.0918 13.3032C12.2601 13.3033 12.4013 13.3595 12.5156 13.4722C12.63 13.5834 12.6874 13.7224 12.6875 13.8892C12.6875 14.0457 12.6353 14.1859 12.5313 14.3091C12.4271 14.4323 12.2799 14.4948 12.0899 14.4956H1.86134C1.69201 14.4956 1.55021 14.4382 1.43653 14.3237C1.32288 14.2093 1.26545 14.0673 1.26466 13.898C1.26387 13.7286 1.32127 13.5868 1.43653 13.4731C1.55179 13.3595 1.69364 13.3032 1.86134 13.3032H12.0918ZM14.2324 1.73486C15.4771 1.73488 16.5383 2.17395 17.417 3.05127C18.2957 3.92727 18.7354 4.98728 18.7354 6.23193C18.7353 7.47657 18.2966 8.53785 17.4199 9.4165C16.5433 10.2951 15.4829 10.7349 14.2383 10.7349C12.9937 10.7348 11.9324 10.2961 11.0537 9.41943C10.1751 8.54211 9.73536 7.48147 9.73536 6.23682C9.73537 4.99217 10.1744 3.9309 11.0518 3.05225C11.9291 2.17359 12.9891 1.7342 14.2324 1.73486ZM7.29884 8.53272C7.46736 8.53272 7.60917 8.58976 7.72364 8.70264C7.83711 8.81386 7.89353 8.95288 7.89356 9.11963C7.89356 9.27618 7.83724 9.41636 7.72364 9.53955C7.61001 9.66272 7.46788 9.72425 7.29786 9.7251H1.86134C1.69207 9.7251 1.55019 9.6686 1.43653 9.5542C1.32292 9.43979 1.26552 9.29762 1.26466 9.12842C1.26386 8.95912 1.32131 8.81728 1.43653 8.70361C1.5518 8.58993 1.6936 8.53272 1.86134 8.53272H7.29884ZM16.3604 4.53174C16.2657 4.53241 16.1743 4.57562 16.0869 4.66162L13.5352 7.21338L12.3838 6.08057C12.3098 6.0059 12.2215 5.9664 12.1201 5.9624C12.0189 5.95782 11.9242 5.99917 11.8369 6.08643C11.7496 6.17376 11.7064 6.2652 11.707 6.35986C11.7077 6.45453 11.7509 6.54597 11.8369 6.6333L12.9707 7.74658C13.132 7.90785 13.3199 7.98872 13.5352 7.98877C13.7505 7.98877 13.9396 7.90792 14.1016 7.74658L16.6338 5.20752C16.7082 5.13294 16.7479 5.045 16.7539 4.94385C16.7606 4.84322 16.7211 4.74893 16.6338 4.66162C16.5465 4.57429 16.455 4.53107 16.3604 4.53174Z" fill="white"/>
</svg>
