<svg width="14" height="14" viewBox="0 0 14 14" fill="none" xmlns="http://www.w3.org/2000/svg">
<path d="M2.37598 10.1265C2.41029 10.1265 2.43848 10.1546 2.43848 10.189V12.689C2.43834 12.7232 2.41021 12.7514 2.37598 12.7515H0.563477C0.529186 12.7515 0.501114 12.7232 0.500977 12.689V12.1577C0.500977 12.1233 0.529102 12.0952 0.563477 12.0952H1.69434V11.7593H1.13672C1.10246 11.7592 1.07436 11.731 1.07422 11.6968V11.1655C1.07422 11.1312 1.10237 11.1031 1.13672 11.103H1.69434V10.7827H0.563477C0.529186 10.7827 0.501114 10.7545 0.500977 10.7202V10.189C0.500977 10.1546 0.529102 10.1265 0.563477 10.1265H2.37598ZM13.376 10.8765C13.4447 10.8765 13.501 10.9328 13.501 11.0015V11.8765C13.5008 11.9451 13.4446 12.0014 13.376 12.0015H4.25098C4.18231 12.0015 4.12611 11.9451 4.12598 11.8765V11.0015C4.12598 10.9327 4.18223 10.8765 4.25098 10.8765H13.376ZM2.37598 5.68896C2.41029 5.68903 2.43848 5.71713 2.43848 5.75146V6.32764C2.43803 6.35879 2.42599 6.38933 2.40527 6.4126L1.30664 7.62646H2.37598C2.41029 7.62653 2.43848 7.65463 2.43848 7.68896V8.25146C2.43834 8.28568 2.41021 8.3139 2.37598 8.31396H0.563477C0.529186 8.31396 0.501114 8.28572 0.500977 8.25146V7.67432C0.5015 7.6434 0.512704 7.61348 0.533203 7.59033L1.63184 6.37646H0.563477C0.529186 6.37646 0.501114 6.34822 0.500977 6.31396V5.75146C0.500977 5.71709 0.529102 5.68896 0.563477 5.68896H2.37598ZM13.376 6.43896C13.4447 6.43903 13.501 6.49526 13.501 6.56396V7.43896C13.5008 7.50756 13.4446 7.5639 13.376 7.56396H4.25098C4.18231 7.56396 4.12611 7.5076 4.12598 7.43896V6.56396C4.12598 6.49521 4.18223 6.43896 4.25098 6.43896H13.376ZM1.78223 1.25146C1.85092 1.25153 1.90723 1.30776 1.90723 1.37646V3.81396C1.90709 3.84818 1.87896 3.8764 1.84473 3.87646H1.21973C1.18544 3.87646 1.15736 3.84822 1.15723 3.81396V1.93896H0.563477C0.529186 1.93896 0.501115 1.91072 0.500977 1.87646V1.31396C0.500977 1.27959 0.529102 1.25146 0.563477 1.25146H1.78223ZM13.376 2.00146C13.4447 2.00153 13.501 2.05776 13.501 2.12646V3.00146C13.5008 3.07006 13.4446 3.1264 13.376 3.12646H4.25098C4.18231 3.12646 4.12611 3.0701 4.12598 3.00146V2.12646C4.12598 2.05771 4.18223 2.00146 4.25098 2.00146H13.376Z" fill="currentColor"/>
</svg>
