<svg width="20" height="19" viewBox="0 0 20 19" fill="none" xmlns="http://www.w3.org/2000/svg">
<path d="M11.3619 7.4687C10.8463 7.4687 10.4468 7.86825 10.4468 8.36156C10.4468 8.85486 10.8463 9.25441 11.3619 9.25441C11.8329 9.25441 12.2325 8.85486 12.2325 8.36156C12.2325 7.86825 11.8329 7.4687 11.3619 7.4687ZM5.11194 7.4687C4.59631 7.4687 4.19676 7.86825 4.19676 8.36156C4.19676 8.85486 4.59631 9.25441 5.11194 9.25441C5.58292 9.25441 5.98247 8.85486 5.98247 8.36156C5.98247 7.86825 5.58292 7.4687 5.11194 7.4687Z" fill="white"/>
<path d="M18.5265 5.77053C17.4938 4.34897 16.0046 3.3247 14.3077 2.86874V2.87098C13.926 2.44687 13.4952 2.05624 13.0131 1.70803C9.35908 -0.94822 4.22961 -0.137952 1.5622 3.51607C-0.587352 6.48482 -0.495834 10.4781 1.69613 13.3152L1.71399 16.275C1.71399 16.3464 1.72515 16.4179 1.74747 16.4848C1.77555 16.5743 1.82098 16.6573 1.88118 16.7292C1.94138 16.801 2.01515 16.8603 2.09829 16.9037C2.18142 16.947 2.27229 16.9735 2.36568 16.9817C2.45907 16.9899 2.55316 16.9795 2.64256 16.9513L5.46845 16.0607C6.21622 16.3263 6.98854 16.4781 7.7564 16.5205L7.74524 16.5295C9.73408 17.9781 12.3412 18.4134 14.7318 17.6232L17.5689 18.5473C17.6403 18.5696 17.714 18.583 17.7899 18.583C18.185 18.583 18.5042 18.2638 18.5042 17.8687V14.8777C20.4707 12.208 20.522 8.5183 18.5265 5.77053ZM5.78095 14.4759L5.5131 14.3643L3.30327 15.0562L3.28095 12.7348L3.10238 12.5339C1.21399 10.2304 1.08899 6.91115 2.85685 4.47589C5.00863 1.52499 9.13363 0.873208 12.0756 3.00267C15.0265 5.14776 15.6805 9.26607 13.5488 12.1991C11.7609 14.6522 8.55997 15.5585 5.78095 14.4759ZM17.0533 14.0964L16.8747 14.3196L16.897 16.6411L14.7095 15.9045L14.4417 16.0161C13.1917 16.4804 11.8591 16.5183 10.6247 16.1723L10.6202 16.1701C12.3167 15.6498 13.7987 14.5932 14.8435 13.1589C16.5488 10.8085 16.8256 7.85535 15.8345 5.33749L15.8479 5.34642C16.3613 5.71473 16.8323 6.17455 17.2318 6.73035C18.8524 8.95356 18.7609 11.9804 17.0533 14.0964Z" fill="white"/>
<path d="M8.23694 7.4687C7.72131 7.4687 7.32176 7.86825 7.32176 8.36156C7.32176 8.85486 7.72131 9.25441 8.23694 9.25441C8.70792 9.25441 9.10747 8.85486 9.10747 8.36156C9.10747 7.86825 8.70792 7.4687 8.23694 7.4687Z" fill="white"/>
</svg>
