<svg width="24" height="24" viewBox="0 0 24 24" fill="none" xmlns="http://www.w3.org/2000/svg">
<path d="M4.25281 19.7341L7.29743 18.7187L7.83031 18.9851C9.05449 19.5958 10.4155 19.9213 11.8428 19.9213C16.6099 19.9213 20.4841 16.1681 20.4841 12.0001C20.4841 7.8321 16.6099 4.07889 11.8428 4.07889C7.07563 4.07889 3.20145 7.8321 3.20145 12.0001C3.20145 13.5555 3.76313 15.134 4.79577 16.4835L5.29264 17.1316L4.25137 19.7326L4.25281 19.7341ZM3.23457 21.5919C3.10424 21.6356 2.96414 21.6411 2.83081 21.6077C2.69748 21.5742 2.57649 21.5034 2.48214 21.4034C2.38779 21.3035 2.32402 21.1786 2.29836 21.0436C2.27269 20.9085 2.28621 20.769 2.33732 20.6414L3.6508 17.3577C2.45253 15.7879 1.76123 13.9098 1.76123 12.0001C1.76123 7.2272 6.08188 2.63867 11.8428 2.63867C17.6036 2.63867 21.9243 7.2272 21.9243 12.0001C21.9243 16.773 17.6036 21.3615 11.8428 21.3615C10.2271 21.3661 8.63266 20.9932 7.18653 20.2727L3.23457 21.5905V21.5919Z" fill="white"/>
<path d="M11.8427 13.152C11.6914 13.152 11.5416 13.1222 11.4018 13.0643C11.262 13.0064 11.135 12.9215 11.028 12.8145C10.921 12.7076 10.8361 12.5805 10.7782 12.4407C10.7203 12.301 10.6905 12.1511 10.6905 11.9998C10.6905 11.8485 10.7203 11.6987 10.7782 11.5589C10.8361 11.4191 10.921 11.2921 11.028 11.1851C11.135 11.0781 11.262 10.9933 11.4018 10.9354C11.5416 10.8775 11.6914 10.8477 11.8427 10.8477C12.1483 10.8477 12.4413 10.969 12.6574 11.1851C12.8735 11.4012 12.9949 11.6943 12.9949 11.9998C12.9949 12.3054 12.8735 12.5985 12.6574 12.8145C12.4413 13.0306 12.1483 13.152 11.8427 13.152ZM16.1634 13.152C16.012 13.152 15.8622 13.1222 15.7224 13.0643C15.5826 13.0064 15.4556 12.9215 15.3486 12.8145C15.2417 12.7076 15.1568 12.5805 15.0989 12.4407C15.041 12.301 15.0112 12.1511 15.0112 11.9998C15.0112 11.8485 15.041 11.6987 15.0989 11.5589C15.1568 11.4191 15.2417 11.2921 15.3486 11.1851C15.4556 11.0781 15.5826 10.9933 15.7224 10.9354C15.8622 10.8775 16.012 10.8477 16.1634 10.8477C16.4689 10.8477 16.762 10.969 16.9781 11.1851C17.1941 11.4012 17.3155 11.6943 17.3155 11.9998C17.3155 12.3054 17.1941 12.5985 16.9781 12.8145C16.762 13.0306 16.4689 13.152 16.1634 13.152ZM7.52205 13.152C7.37074 13.152 7.22092 13.1222 7.08113 13.0643C6.94134 13.0064 6.81433 12.9215 6.70734 12.8145C6.60035 12.7076 6.51548 12.5805 6.45758 12.4407C6.39967 12.301 6.36987 12.1511 6.36987 11.9998C6.36987 11.8485 6.39967 11.6987 6.45758 11.5589C6.51548 11.4191 6.60035 11.2921 6.70734 11.1851C6.81433 11.0781 6.94134 10.9933 7.08113 10.9354C7.22092 10.8775 7.37074 10.8477 7.52205 10.8477C7.82762 10.8477 8.12068 10.969 8.33676 11.1851C8.55283 11.4012 8.67422 11.6943 8.67422 11.9998C8.67422 12.3054 8.55283 12.5985 8.33676 12.8145C8.12068 13.0306 7.82762 13.152 7.52205 13.152Z" fill="white"/>
</svg>
