<svg width="18" height="19" viewBox="0 0 18 19" fill="none" xmlns="http://www.w3.org/2000/svg">
<path d="M17.7503 9.49791H16.5003C16.4021 9.49791 16.3218 9.57826 16.3218 9.67648V16.8193H1.67892V2.17648H8.82178C8.91999 2.17648 9.00035 2.09612 9.00035 1.99791V0.747907C9.00035 0.649693 8.91999 0.569336 8.82178 0.569336H0.786063C0.390974 0.569336 0.0717773 0.888532 0.0717773 1.28362V17.7122C0.0717773 18.1073 0.390974 18.4265 0.786063 18.4265H17.2146C17.6097 18.4265 17.9289 18.1073 17.9289 17.7122V9.67648C17.9289 9.57826 17.8486 9.49791 17.7503 9.49791Z" fill="white"/>
<path d="M5.51583 10.0091L5.47342 12.6631C5.47118 12.8617 5.6319 13.0247 5.83056 13.0247H5.83949L8.47342 12.96C8.51806 12.9577 8.5627 12.9399 8.59395 12.9086L17.8774 3.64523C17.9466 3.57603 17.9466 3.46219 17.8774 3.393L15.1029 0.620675C15.0672 0.584961 15.0225 0.569336 14.9756 0.569336C14.9288 0.569336 14.8841 0.587193 14.8484 0.620675L5.56717 9.88407C5.53493 9.91778 5.51659 9.96242 5.51583 10.0091ZM6.93324 10.5359L14.9756 2.5113L15.9846 3.518L7.9377 11.547L6.91761 11.5716L6.93324 10.5359Z" fill="white"/>
</svg>
