<svg width="20" height="20" viewBox="0 0 20 20" fill="none" xmlns="http://www.w3.org/2000/svg">
<path d="M14.075 11.3296V13.3686C14.075 13.887 14.281 14.3868 14.6492 14.7537C15.0161 15.1219 15.6382 15.3279 16.1579 15.3279H1.53638C2.05611 15.3279 2.67819 15.1219 3.04505 14.7537C3.22725 14.572 3.37177 14.3561 3.47031 14.1184C3.56885 13.8807 3.61948 13.6259 3.61928 13.3686V8.58207C3.61928 7.19555 4.17007 5.86582 5.15049 4.88541C6.1309 3.90499 7.46063 3.3542 8.84715 3.3542M7.51792 18.6404H10.1764M15.161 8.00651C16.0423 8.00651 16.8876 7.6564 17.5108 7.0332C18.134 6.41 18.4841 5.56477 18.4841 4.68343C18.4841 3.80209 18.134 2.95686 17.5108 2.33366C16.8876 1.71046 16.0423 1.36035 15.161 1.36035C14.2797 1.36035 13.4344 1.71046 12.8112 2.33366C12.188 2.95686 11.8379 3.80209 11.8379 4.68343C11.8379 5.56477 12.188 6.41 12.8112 7.0332C13.4344 7.6564 14.2797 8.00651 15.161 8.00651Z" stroke="#096DD9" stroke-linecap="round" stroke-linejoin="round"/>
</svg>
