<svg width="32" height="33" viewBox="0 0 32 33" fill="none" xmlns="http://www.w3.org/2000/svg">
<rect y="0.427734" width="32" height="32" rx="16" fill="#444444" fill-opacity="0.1"/>
<mask id="mask0_13648_143544" style="mask-type:luminance" maskUnits="userSpaceOnUse" x="3" y="4" width="26" height="25">
<path d="M16 28.3838C17.5705 28.3858 19.1258 28.0774 20.5767 27.4764C22.0276 26.8754 23.3454 25.9936 24.4545 24.8817C25.5664 23.7727 26.4481 22.4548 27.0491 21.0039C27.6501 19.5531 27.9585 17.9977 27.9566 16.4273C27.9585 14.8568 27.6501 13.3015 27.0491 11.8506C26.4481 10.3997 25.5664 9.08186 24.4545 7.97279C23.3454 6.86092 22.0276 5.97916 20.5767 5.37816C19.1258 4.77717 17.5705 4.46878 16 4.47071C14.4296 4.46878 12.8742 4.77717 11.4233 5.37816C9.97245 5.97916 8.65461 6.86092 7.54554 7.97279C6.43368 9.08186 5.55192 10.3997 4.95092 11.8506C4.34992 13.3015 4.04153 14.8568 4.04347 16.4273C4.04153 17.9977 4.34992 19.5531 4.95092 21.0039C5.55192 22.4548 6.43368 23.7727 7.54554 24.8817C8.65461 25.9936 9.97245 26.8754 11.4233 27.4764C12.8742 28.0774 14.4296 28.3858 16 28.3838Z" fill="white" stroke="white" stroke-width="0.717393" stroke-linejoin="round"/>
<path d="M11.2188 16.4278L14.8057 20.0148L21.9796 12.8408" stroke="black" stroke-width="2.15218" stroke-linecap="round" stroke-linejoin="round"/>
</mask>
<g mask="url(#mask0_13648_143544)">
<path d="M1.64844 2.08203H30.3442V30.7778H1.64844V2.08203Z" fill="#444444"/>
</g>
<path d="M11.2812 16.3096L14.8682 19.8966L22.0421 12.7227" stroke="white" stroke-width="2.15218" stroke-linecap="round" stroke-linejoin="round"/>
</svg>
