<svg width="20" height="20" viewBox="0 0 20 20" fill="none" xmlns="http://www.w3.org/2000/svg">
<path d="M19.6018 9.42355C17.4858 4.96596 14.2871 2.72266 9.99915 2.72266C5.70897 2.72266 2.51255 4.96596 0.396474 9.42578C0.311597 9.60551 0.267578 9.8018 0.267578 10.0006C0.267578 10.1993 0.311597 10.3956 0.396474 10.5753C2.51255 15.0329 5.71121 17.2762 9.99915 17.2762C14.2893 17.2762 17.4858 15.0329 19.6018 10.5731C19.7737 10.2115 19.7737 9.79185 19.6018 9.42355ZM9.99915 15.6691C6.39871 15.6691 3.76255 13.8432 1.90317 9.99944C3.76255 6.15569 6.39871 4.3298 9.99915 4.3298C13.5996 4.3298 16.2358 6.15569 18.0951 9.99944C16.238 13.8432 13.6018 15.6691 9.99915 15.6691ZM9.90987 6.07087C7.74022 6.07087 5.9813 7.8298 5.9813 9.99944C5.9813 12.1691 7.74022 13.928 9.90987 13.928C12.0795 13.928 13.8384 12.1691 13.8384 9.99944C13.8384 7.8298 12.0795 6.07087 9.90987 6.07087ZM9.90987 12.4994C8.52817 12.4994 7.40987 11.3811 7.40987 9.99944C7.40987 8.61775 8.52817 7.49944 9.90987 7.49944C11.2916 7.49944 12.4099 8.61775 12.4099 9.99944C12.4099 11.3811 11.2916 12.4994 9.90987 12.4994Z" fill="#4A5565"/>
</svg>
