<svg width="20" height="16" viewBox="0 0 20 16" fill="none" xmlns="http://www.w3.org/2000/svg">
<path d="M19.2857 0H0.714286C0.319196 0 0 0.319196 0 0.714286V15C0 15.3951 0.319196 15.7143 0.714286 15.7143H19.2857C19.6808 15.7143 20 15.3951 20 15V0.714286C20 0.319196 19.6808 0 19.2857 0ZM1.60714 1.60714H18.3929V4.28571H1.60714V1.60714ZM18.3929 14.1071H1.60714V6.25H18.3929V14.1071ZM13.1027 12.6786H16.7857C16.8839 12.6786 16.9643 12.5982 16.9643 12.5V10.8929C16.9643 10.7946 16.8839 10.7143 16.7857 10.7143H13.1027C13.0045 10.7143 12.9241 10.7946 12.9241 10.8929V12.5C12.9241 12.5982 13.0045 12.6786 13.1027 12.6786Z" fill="white"/>
</svg>
