<svg width="30" height="34" viewBox="0 0 30 34" fill="none" xmlns="http://www.w3.org/2000/svg">
<path d="M28.2925 9.83816L19.271 0.869909C18.732 0.33407 18.005 0.0332485 17.2467 0.0332485L4.73127 -0.0012207C2.42497 -0.0012207 0.557373 1.86951 0.557373 4.17581V29.824C0.557373 32.1303 2.42497 34.001 4.73441 34.001H25.3783C27.6846 34.001 29.5553 32.1303 29.5553 29.824L29.4707 12.649C29.4645 11.5929 29.0414 10.5839 28.2925 9.83816Z" fill="#EE1B1B"/>
<path d="M19.149 1.63023L27.973 10.5324C28.3673 10.93 28.0851 11.6099 27.5243 11.6099H22.9764C20.2673 11.6099 18.0681 9.41407 18.0681 6.70162V2.07551C18.0681 1.51127 18.7513 1.22914 19.149 1.63023Z" fill="#F8BBB9"/>
<path d="M5.88281 22.7093V15.4387H8.89084C9.6356 15.4387 10.2256 15.6476 10.6705 16.0753C11.1154 16.493 11.3379 17.0599 11.3379 17.7661C11.3379 18.4723 11.1154 19.0392 10.6705 19.4569C10.2256 19.8846 9.6356 20.0935 8.89084 20.0935H7.69149V22.7093H5.88281ZM7.69149 18.5121H8.68773C8.95853 18.5121 9.17132 18.4524 9.31643 18.3132C9.46149 18.1839 9.53891 18.0048 9.53891 17.7662C9.53891 17.5275 9.46154 17.3484 9.31643 17.2191C9.17137 17.0799 8.95858 17.0202 8.68773 17.0202H7.69149V18.5121ZM12.0826 22.7093V15.4387H14.5877C15.081 15.4387 15.5452 15.5083 15.9805 15.6575C16.4157 15.8067 16.8123 16.0156 17.1604 16.3041C17.5087 16.5825 17.7891 16.9605 17.9922 17.4379C18.1857 17.9153 18.2921 18.4624 18.2921 19.079C18.2921 19.6857 18.1857 20.2328 17.9922 20.7101C17.7891 21.1876 17.5087 21.5655 17.1604 21.844C16.8122 22.1324 16.4157 22.3413 15.9805 22.4905C15.5452 22.6397 15.081 22.7093 14.5877 22.7093H12.0826ZM13.8526 21.1279H14.3749C14.6554 21.1279 14.9165 21.0981 15.1583 21.0284C15.3904 20.9588 15.6129 20.8494 15.8257 20.7002C16.0288 20.5511 16.1932 20.3421 16.3093 20.0637C16.4254 19.7852 16.4834 19.4569 16.4834 19.079C16.4834 18.6911 16.4254 18.3629 16.3093 18.0844C16.1932 17.8059 16.0288 17.5971 15.8257 17.4479C15.6129 17.2987 15.3905 17.1893 15.1583 17.1196C14.9165 17.05 14.6554 17.0202 14.3749 17.0202H13.8526V21.1279ZM19.2013 22.7093V15.4387H24.2308V17.0202H21.01V18.1838H23.5827V19.7553H21.01V22.7093H19.2013Z" fill="white"/>
</svg>
