<svg width="30" height="34" viewBox="0 0 30 34" fill="none" xmlns="http://www.w3.org/2000/svg">
<path d="M28.2925 9.83816L19.271 0.869909C18.732 0.33407 18.005 0.0332485 17.2467 0.0332485L4.73127 -0.0012207C2.42497 -0.0012207 0.557373 1.86951 0.557373 4.17581V29.824C0.557373 32.1303 2.42497 34.001 4.73441 34.001H25.3783C27.6846 34.001 29.5553 32.1303 29.5553 29.824L29.4707 12.649C29.4645 11.593 29.0414 10.5839 28.2925 9.83816Z" fill="#8E33FF"/>
<path d="M19.1491 1.63011L27.9731 10.5322C28.3674 10.9299 28.0853 11.6097 27.5244 11.6097H22.9765C20.2674 11.6097 18.0682 9.41395 18.0682 6.7015V2.07539C18.0682 1.51114 18.7514 1.22902 19.1491 1.63011Z" fill="#BC85FF"/>
<path d="M21.05 13.2871C21.3581 13.2872 21.6534 13.4102 21.8713 13.6279C22.0893 13.8459 22.2122 14.1419 22.2122 14.4502V24.3496C22.2122 24.6579 22.0893 24.9539 21.8713 25.1719C21.6534 25.3897 21.3582 25.5126 21.05 25.5127H8.94946C8.64133 25.5126 8.34609 25.3897 8.12817 25.1719C7.91016 24.9539 7.78735 24.6579 7.78735 24.3496V14.4502C7.78735 14.1419 7.91016 13.8459 8.12817 13.6279C8.34607 13.4101 8.64139 13.2872 8.94946 13.2871H21.05ZM9.01196 22.4512V24.2871H17.8743L12.5247 18.9385L9.01196 22.4512ZM17.1936 21.875L19.6057 24.2871H20.9905V23.0977L18.4807 20.5879L17.1936 21.875ZM9.01196 20.7188L11.7034 18.0283L11.7874 17.9512C11.8755 17.8788 11.9745 17.8192 12.0803 17.7754C12.2212 17.7171 12.3722 17.6875 12.5247 17.6875L12.6389 17.6934C12.7521 17.7045 12.8635 17.7318 12.969 17.7754C13.11 17.8338 13.239 17.9204 13.3469 18.0283L16.3274 21.0088L17.6584 19.6777L17.7434 19.6016C17.8315 19.5293 17.9298 19.4696 18.0354 19.4258C18.1763 19.3674 18.3282 19.3379 18.4807 19.3379C18.6333 19.3379 18.7851 19.3674 18.926 19.4258C19.0669 19.4842 19.1952 19.57 19.303 19.6777L20.9875 21.3623V14.5127H9.01196V20.7188ZM17.0979 16.6045C17.2699 16.6388 17.428 16.7237 17.552 16.8477C17.676 16.9717 17.7609 17.1297 17.7952 17.3018C17.8293 17.4737 17.8124 17.6524 17.7454 17.8145C17.6783 17.9764 17.5639 18.1154 17.4182 18.2129C17.2724 18.3103 17.1004 18.3623 16.925 18.3623C16.6897 18.3623 16.4636 18.269 16.2971 18.1025C16.1308 17.9361 16.0374 17.7099 16.0374 17.4746C16.0374 17.2994 16.0895 17.1282 16.1868 16.9824C16.2843 16.8365 16.4231 16.7215 16.5852 16.6543C16.7472 16.5873 16.926 16.5704 17.0979 16.6045Z" fill="white"/>
</svg>
