<svg width="20" height="20" viewBox="0 0 20 20" fill="none" xmlns="http://www.w3.org/2000/svg">
<path d="M5.80806 7.68306C6.05214 7.43898 6.44792 7.43898 6.692 7.68306C6.93608 7.92714 6.93608 8.32292 6.692 8.567L3.38397 11.875L6.692 15.1831C6.93608 15.4271 6.93608 15.8229 6.692 16.067C6.44792 16.3111 6.05214 16.3111 5.80806 16.067L2.05806 12.317C1.81398 12.0729 1.81398 11.6771 2.05806 11.4331L5.80806 7.68306Z" fill="#4A5565"/>
<path d="M16.875 4.375C16.875 4.02982 17.1548 3.75 17.5 3.75C17.8452 3.75 18.125 4.02982 18.125 4.375C18.125 6.52988 17.269 8.59651 15.7452 10.1202C14.2215 11.644 12.1549 12.5 10 12.5H2.5C2.15482 12.5 1.875 12.2202 1.875 11.875C1.875 11.5298 2.15482 11.25 2.5 11.25H10L10.0854 11.2495C11.8779 11.2272 13.5922 10.5055 14.8614 9.23637C16.1507 7.94706 16.875 6.19836 16.875 4.375Z" fill="#4A5565"/>
</svg>
