<svg width="18" height="18" viewBox="0 0 18 18" fill="none" xmlns="http://www.w3.org/2000/svg">
<path d="M17.5984 8.61976L0.474263 0.0341318C0.404661 -0.000669298 0.324823 -0.00885773 0.24908 0.00956638C0.165015 0.0303483 0.0926111 0.0835939 0.0477203 0.157645C0.00282945 0.231695 -0.0108899 0.320517 0.00956634 0.404661L1.77419 7.61463C1.8008 7.72312 1.88064 7.81115 1.98709 7.84595L5.01069 8.88384L1.98913 9.92173C1.88268 9.95858 1.80285 10.0446 1.77828 10.1531L0.00956634 17.3733C-0.00885777 17.449 -0.000669186 17.5288 0.0341319 17.5964C0.11397 17.7581 0.310493 17.8236 0.474263 17.7438L17.5984 9.20729C17.6619 9.17658 17.7131 9.12336 17.7458 9.06194C17.8257 8.89817 17.7602 8.70165 17.5984 8.61976ZM2.02803 15.322L3.05773 11.1132L9.10084 9.03943C9.14792 9.02305 9.18682 8.9862 9.20319 8.93707C9.23185 8.85109 9.18682 8.75897 9.10084 8.72826L3.05773 6.65657L2.03212 2.46407L14.8881 8.91046L2.02803 15.322Z" fill="white"/>
</svg>
