<svg width="29" height="29" viewBox="0 0 29 29" fill="none" xmlns="http://www.w3.org/2000/svg">
<path d="M0.949219 8.5C0.949219 4.08172 4.53094 0.5 8.94922 0.5H20.9492C25.3675 0.5 28.9492 4.08172 28.9492 8.5V20.5C28.9492 24.9183 25.3675 28.5 20.9492 28.5H8.94922C4.53094 28.5 0.949219 24.9183 0.949219 20.5V8.5Z" fill="#096DD9"/>
<g clip-path="url(#clip0_5830_98155)">
<path d="M23.242 16.7872L21.9261 15.6622C21.9884 15.2805 22.0206 14.8907 22.0206 14.501C22.0206 14.1113 21.9884 13.7215 21.9261 13.3398L23.242 12.2148C23.3412 12.1299 23.4123 12.0167 23.4456 11.8904C23.479 11.7641 23.4731 11.6306 23.4288 11.5077L23.4107 11.4555C23.0485 10.443 22.506 9.50447 21.8096 8.68516L21.7735 8.64297C21.689 8.54363 21.5764 8.47222 21.4505 8.43815C21.3246 8.40408 21.1914 8.40895 21.0683 8.45212L19.4351 9.0327C18.8324 8.5385 18.1594 8.14877 17.4322 7.87556L17.1168 6.16797C17.093 6.03948 17.0306 5.92128 16.9381 5.82906C16.8455 5.73684 16.727 5.67497 16.5985 5.65167L16.5442 5.64163C15.4976 5.45279 14.3967 5.45279 13.35 5.64163L13.2958 5.65167C13.1672 5.67497 13.0488 5.73684 12.9562 5.82906C12.8636 5.92128 12.8013 6.03948 12.7775 6.16797L12.4601 7.88359C11.7386 8.15686 11.0668 8.54639 10.4712 9.03672L8.82591 8.45212C8.7029 8.40861 8.56955 8.40357 8.4436 8.43766C8.31765 8.47174 8.20506 8.54335 8.12078 8.64297L8.08462 8.68516C7.38902 9.50505 6.84667 10.4434 6.4835 11.4555L6.46542 11.5077C6.37502 11.7588 6.44935 12.0401 6.65225 12.2148L7.98417 13.3519C7.92189 13.7296 7.89176 14.1153 7.89176 14.499C7.89176 14.8847 7.92189 15.2704 7.98417 15.6461L6.65225 16.7831C6.553 16.8681 6.48197 16.9813 6.44859 17.1076C6.41522 17.2339 6.42109 17.3674 6.46542 17.4903L6.4835 17.5425C6.84712 18.555 7.38551 19.4892 8.08462 20.3128L8.12078 20.355C8.20526 20.4544 8.31786 20.5258 8.44374 20.5598C8.56961 20.5939 8.70286 20.589 8.82591 20.5459L10.4712 19.9613C11.0699 20.4535 11.7389 20.8432 12.4601 21.1144L12.7775 22.83C12.8013 22.9585 12.8636 23.0767 12.9562 23.1689C13.0488 23.2612 13.1672 23.323 13.2958 23.3463L13.35 23.3564C14.4063 23.5462 15.4879 23.5462 16.5442 23.3564L16.5985 23.3463C16.727 23.323 16.8455 23.2612 16.9381 23.1689C17.0306 23.0767 17.093 22.9585 17.1168 22.83L17.4322 21.1224C18.1591 20.8499 18.8359 20.4589 19.4351 19.9653L21.0683 20.5459C21.1913 20.5894 21.3247 20.5944 21.4506 20.5603C21.5766 20.5262 21.6892 20.4546 21.7735 20.355L21.8096 20.3128C22.5087 19.4872 23.0471 18.555 23.4107 17.5425L23.4288 17.4903C23.5192 17.2432 23.4449 16.9619 23.242 16.7872ZM20.4998 13.5769C20.55 13.8802 20.5761 14.1916 20.5761 14.503C20.5761 14.8144 20.55 15.1258 20.4998 15.4291L20.3672 16.2347L21.8679 17.5184C21.6404 18.0425 21.3532 18.5387 21.0121 18.997L19.1478 18.336L18.517 18.8544C18.0368 19.2481 17.5025 19.5575 16.9239 19.7744L16.1585 20.0617L15.7989 22.0104C15.2315 22.0747 14.6587 22.0747 14.0913 22.0104L13.7317 20.0577L12.9723 19.7664C12.3998 19.5494 11.8674 19.2401 11.3913 18.8483L10.7605 18.328L8.88417 18.995C8.54265 18.5349 8.25738 18.0387 8.02837 17.5164L9.54511 16.2206L9.41453 15.4171C9.36631 15.1177 9.3402 14.8084 9.3402 14.503C9.3402 14.1956 9.3643 13.8883 9.41453 13.589L9.54511 12.7854L8.02837 11.4896C8.25538 10.9653 8.54265 10.4711 8.88417 10.011L10.7605 10.678L11.3913 10.1577C11.8674 9.76596 12.3998 9.45658 12.9723 9.23962L13.7337 8.95234L14.0933 6.99967C14.6578 6.93538 15.2344 6.93538 15.8009 6.99967L16.1605 8.94833L16.9259 9.2356C17.5025 9.45257 18.0389 9.76194 18.519 10.1557L19.1498 10.674L21.0141 10.0131C21.3556 10.4731 21.6409 10.9693 21.8699 11.4916L20.3692 12.7753L20.4998 13.5769ZM14.9491 10.7664C12.9964 10.7664 11.4134 12.3494 11.4134 14.3021C11.4134 16.2548 12.9964 17.8378 14.9491 17.8378C16.9018 17.8378 18.4848 16.2548 18.4848 14.3021C18.4848 12.3494 16.9018 10.7664 14.9491 10.7664ZM16.5402 15.8932C16.3315 16.1025 16.0835 16.2684 15.8105 16.3815C15.5374 16.4946 15.2447 16.5526 14.9491 16.5521C14.3485 16.5521 13.7839 16.3171 13.3581 15.8932C13.1488 15.6845 12.9828 15.4365 12.8697 15.1634C12.7566 14.8904 12.6987 14.5977 12.6991 14.3021C12.6991 13.7015 12.9342 13.1369 13.3581 12.711C13.7839 12.2852 14.3485 12.0521 14.9491 12.0521C15.5498 12.0521 16.1143 12.2852 16.5402 12.711C16.7495 12.9197 16.9154 13.1677 17.0285 13.4408C17.1416 13.7139 17.1996 14.0066 17.1991 14.3021C17.1991 14.9028 16.9641 15.4673 16.5402 15.8932Z" fill="white"/>
</g>
<defs>
<clipPath id="clip0_5830_98155">
<rect width="18" height="18" fill="white" transform="translate(5.94922 5.5)"/>
</clipPath>
</defs>
</svg>
