<svg width="14" height="12" viewBox="0 0 14 12" fill="none" xmlns="http://www.w3.org/2000/svg">
<path d="M6.948 0.326999H7.052L8.456 4.695H13.006L13.019 4.812L9.327 7.412L10.796 11.767L10.705 11.845L7 9.115L3.295 11.845L3.204 11.767L4.673 7.412L0.981 4.812L0.994 4.695H5.544L6.948 0.326999ZM3.451 5.176L2.164 5.111V5.137L3.295 5.852L5.245 7.23L4.517 9.388L3.984 10.766L4.01 10.779L5.18 9.856L7 8.517L8.82 9.856L9.99 10.779L10.016 10.766L9.483 9.388L8.755 7.23L10.705 5.852L11.836 5.137V5.111L10.536 5.176H8.105L7.351 2.849L7.013 1.588H6.987L6.636 2.849L5.895 5.176H3.451Z" fill="#4A5565"/>
</svg>
