<svg width="28" height="29" viewBox="0 0 28 29" fill="none" xmlns="http://www.w3.org/2000/svg">
<path d="M0 8.5C0 4.08172 3.58172 0.5 8 0.5H20C24.4183 0.5 28 4.08172 28 8.5V20.5C28 24.9183 24.4183 28.5 20 28.5H8C3.58172 28.5 0 24.9183 0 20.5V8.5Z" fill="#096DD9"/>
<path d="M14.0001 21.4277L7.88522 18.1043V13.1655L4.90625 11.5501L14.0001 6.61133L23.094 11.5501V18.0574H22.0748V12.1229L20.115 13.1655V18.1043L14.0001 21.4277ZM14.0001 15.321L20.9609 11.5501L14.0001 7.77927L7.03933 11.5501L14.0001 15.321ZM14.0001 20.2659L19.0959 17.5142V13.726L14.0001 16.4859L8.90437 13.726V17.5142L14.0001 20.2659Z" fill="white"/>
</svg>
