<svg width="28" height="29" viewBox="0 0 28 29" fill="none" xmlns="http://www.w3.org/2000/svg">
<path d="M0 8.5C0 4.08172 3.58172 0.5 8 0.5H20C24.4183 0.5 28 4.08172 28 8.5V20.5C28 24.9183 24.4183 28.5 20 28.5H8C3.58172 28.5 0 24.9183 0 20.5V8.5Z" fill="#096DD9"/>
<path d="M19.2884 18.0583C18.3312 18.0361 17.5054 17.7261 16.8109 17.1283C16.1165 16.5306 15.6987 15.7292 15.5576 14.7242H13.0309L12.5276 13.8908H15.5576C15.6059 13.4464 15.7612 12.9811 16.0234 12.495C16.2857 12.0089 16.6368 11.6303 17.0768 11.3592H11.0751L10.571 10.5258H17.4401L16.1234 6.92C16.0801 6.81278 16.0157 6.73 15.9301 6.67167C15.8446 6.61278 15.7484 6.58333 15.6418 6.58333H13.3601V5.75H15.6418C15.9329 5.75 16.1901 5.83028 16.4134 5.99083C16.6373 6.15139 16.7996 6.36444 16.9001 6.63L18.3293 10.5258H19.2893C20.3565 10.5258 21.2482 10.8894 21.9643 11.6167C22.6809 12.3433 23.0393 13.2406 23.0393 14.3083C23.0393 15.3456 22.6737 16.2297 21.9426 16.9608C21.2115 17.6919 20.3271 18.0575 19.2893 18.0575M19.2918 17.2242C20.1023 17.2242 20.7907 16.9408 21.3568 16.3742C21.9234 15.8064 22.2068 15.1175 22.2068 14.3075C22.2068 13.4742 21.929 12.7744 21.3734 12.2083C20.8179 11.6422 20.1234 11.3589 19.2901 11.3583C19.1579 11.3583 19.0376 11.3694 18.9293 11.3917C18.8209 11.4128 18.7223 11.4339 18.6334 11.455L19.4943 13.7642L18.7126 14.055L17.8884 11.755C17.4184 12.0017 17.0484 12.3664 16.7784 12.8492C16.5084 13.3319 16.3732 13.8181 16.3726 14.3075C16.3726 15.1181 16.6565 15.8069 17.2243 16.3742C17.7915 16.9408 18.4812 17.2242 19.2918 17.2242ZM10.4768 23.2833C9.89845 23.2833 9.40623 23.0806 9.00012 22.675C8.59456 22.27 8.39178 21.7783 8.39178 21.2C8.39178 21.1139 8.39678 21.0389 8.40678 20.975C8.41789 20.9111 8.43401 20.8364 8.45512 20.7508H5.05845V19.9175H8.83012C9.02734 19.6769 9.26956 19.4833 9.55678 19.3367C9.84456 19.19 10.1518 19.1167 10.4785 19.1167C10.7701 19.1167 11.0598 19.1778 11.3476 19.3C11.6348 19.4233 11.8926 19.6292 12.1209 19.9175H14.1293C14.2787 19.9175 14.4015 19.8694 14.4976 19.7733C14.5937 19.6772 14.6418 19.5544 14.6418 19.405V18.3467C14.6418 18.1972 14.5937 18.0744 14.4976 17.9783C14.4015 17.8822 14.2785 17.8339 14.1284 17.8333H5.05762V17H6.72428V14.0833H5.05762V13.25H10.2343L12.4134 17H14.1284C14.4985 17 14.8151 17.1319 15.0784 17.3958C15.3418 17.6597 15.4737 17.9764 15.4743 18.3458V19.4042C15.4743 19.7742 15.3426 20.0908 15.0793 20.3542C14.8159 20.6175 14.499 20.7494 14.1284 20.75H12.4935C12.5151 20.8356 12.5312 20.9106 12.5418 20.975C12.5529 21.0383 12.5585 21.1128 12.5585 21.1983C12.5585 21.7772 12.3557 22.2692 11.9501 22.6742C11.5457 23.0797 11.0546 23.2825 10.4768 23.2825M7.55762 17H11.4535L9.77762 14.0833H7.55762V17ZM10.4743 22.4492C10.8176 22.4492 11.1118 22.3264 11.3568 22.0808C11.6018 21.8358 11.7243 21.5417 11.7243 21.1983C11.7243 20.855 11.6018 20.5611 11.3568 20.3167C11.1118 20.0722 10.8176 19.9494 10.4743 19.9483C10.1309 19.9472 9.83706 20.07 9.59262 20.3167C9.34817 20.5633 9.22539 20.8572 9.22428 21.1983C9.22317 21.5394 9.34595 21.8336 9.59262 22.0808C9.83928 22.3281 10.1332 22.4514 10.4743 22.4492Z" fill="white"/>
</svg>
