<svg width="20" height="20" viewBox="0 0 20 20" fill="none" xmlns="http://www.w3.org/2000/svg">
<path d="M17.0138 7.73229C17.2307 7.46377 17.6243 7.42192 17.8928 7.63883C18.1613 7.85573 18.2032 8.24929 17.9863 8.51781C16.6111 10.2202 14.0426 12.5 10 12.5C5.9575 12.5 3.38902 10.2202 2.01383 8.51781C1.79692 8.24929 1.83877 7.85573 2.10729 7.63883C2.3758 7.42192 2.76937 7.46377 2.98627 7.73229C4.23763 9.28142 6.48479 11.25 10 11.25C13.5153 11.25 15.7625 9.28142 17.0138 7.73229Z" fill="#4A5565"/>
<path d="M15.3638 9.38716C15.6635 9.2159 16.0452 9.31997 16.2165 9.61963L18.0431 12.8157C18.2144 13.1154 18.1103 13.4972 17.8106 13.6685C17.5109 13.8397 17.1291 13.7357 16.9579 13.436L15.1313 10.2399C14.96 9.94022 15.0641 9.55844 15.3638 9.38716Z" fill="#4A5565"/>
<path d="M11.8427 11.0594C12.1832 11.0027 12.5052 11.2327 12.562 11.5732L13.1159 14.8974C13.1726 15.2379 12.9426 15.5599 12.6021 15.6166C12.2616 15.6734 11.9396 15.4433 11.8829 15.1029L11.3289 11.7786C11.2722 11.4381 11.5023 11.1161 11.8427 11.0594Z" fill="#4A5565"/>
<path d="M7.43756 11.5732C7.4943 11.2327 7.8163 11.0026 8.15679 11.0594C8.49724 11.1161 8.72726 11.4381 8.67055 11.7786L8.11665 15.1029C8.05991 15.4433 7.73789 15.6734 7.39743 15.6166C7.05696 15.5599 6.82687 15.2379 6.88359 14.8974L7.43756 11.5732Z" fill="#4A5565"/>
<path d="M3.78403 9.61963C3.95531 9.31996 4.33709 9.2159 4.63677 9.38717C4.93644 9.55844 5.04058 9.94022 4.86931 10.2399L3.04268 13.436C2.8714 13.7357 2.48962 13.8397 2.18995 13.6685C1.89028 13.4972 1.78621 13.1154 1.95748 12.8157L3.78403 9.61963Z" fill="#4A5565"/>
</svg>
