<svg width="20" height="20" viewBox="0 0 20 20" fill="none" xmlns="http://www.w3.org/2000/svg">
<path d="M12.5 9.375C12.5 7.99429 11.3807 6.875 10 6.875C8.61929 6.875 7.5 7.99429 7.5 9.375C7.5 10.7557 8.61929 11.875 10 11.875C11.3807 11.875 12.5 10.7557 12.5 9.375ZM13.75 9.375C13.75 11.4461 12.0711 13.125 10 13.125C7.92893 13.125 6.25 11.4461 6.25 9.375C6.25 7.30393 7.92893 5.625 10 5.625C12.0711 5.625 13.75 7.30393 13.75 9.375Z" fill="currentColor"/>
<path d="M10 11.8722C11.1542 11.8722 12.2859 12.1918 13.2695 12.7956C14.2532 13.3993 15.0504 14.2637 15.5729 15.2928C15.7292 15.6006 15.6063 15.9768 15.2986 16.1331C14.9908 16.2893 14.6146 16.1665 14.4583 15.8587C14.0403 15.0354 13.4025 14.3439 12.6156 13.8609C11.8287 13.3779 10.9234 13.1222 10 13.1222C9.07668 13.1222 8.17136 13.3779 7.38443 13.8609C6.59751 14.3439 5.9597 15.0354 5.5417 15.8587C5.38545 16.1665 5.00926 16.2893 4.70148 16.1331C4.3937 15.9768 4.27079 15.6006 4.42705 15.2928C4.94954 14.2637 5.74685 13.3994 6.73052 12.7956C7.71418 12.1918 8.84583 11.8722 10 11.8722Z" fill="currentColor"/>
<path d="M6.37291 2.73335C7.91215 1.96307 9.65642 1.70191 11.3538 1.98758C11.6941 2.04488 11.9236 2.36726 11.8663 2.70764C11.809 3.04803 11.4866 3.27755 11.1462 3.22026C9.71025 2.97858 8.23461 3.19953 6.93238 3.85121C5.63014 4.50289 4.56866 5.55155 3.9013 6.84582C3.23393 8.1401 2.99521 9.61301 3.21953 11.0518C3.44386 12.4906 4.11963 13.821 5.14931 14.8507C6.179 15.8804 7.50932 16.5562 8.94814 16.7805C10.387 17.0048 11.8599 16.766 13.1541 16.0987C14.4484 15.4313 15.4972 14.3699 16.1488 13.0677C16.8005 11.7654 17.0215 10.2897 16.7798 8.85373C16.7225 8.51335 16.952 8.19097 17.2923 8.13366C17.6327 8.07638 17.9551 8.30589 18.0124 8.64628C18.2981 10.3436 18.0369 12.0878 17.2666 13.6271C16.4963 15.1663 15.2568 16.4209 13.727 17.2097C12.1972 17.9985 10.4562 18.2807 8.75557 18.0156C7.05492 17.7504 5.48252 16.9516 4.26545 15.7345C3.04837 14.5174 2.24956 12.9451 1.98441 11.2444C1.71926 9.54374 2.0015 7.80282 2.7903 6.27301C3.57911 4.7432 4.83369 3.50363 6.37291 2.73335Z" fill="currentColor"/>
<path d="M17.683 2.68303C17.9271 2.43895 18.3229 2.43895 18.567 2.68303C18.811 2.92711 18.811 3.32289 18.567 3.56697L16.067 6.06697C15.8229 6.31105 15.4271 6.31105 15.183 6.06697L13.933 4.81697C13.689 4.57289 13.689 4.17711 13.933 3.93303C14.1771 3.68895 14.5729 3.68895 14.817 3.93303L15.625 4.74106L17.683 2.68303Z" fill="currentColor"/>
</svg>
