<svg width="17" height="19" viewBox="0 0 17 19" fill="none" xmlns="http://www.w3.org/2000/svg">
<path d="M13.9063 5.53571C13.9063 2.47768 11.4286 0 8.37059 0C5.31256 0 2.83488 2.47768 2.83488 5.53571C2.83488 7.38393 3.74113 9.02232 5.13398 10.0268C5.12506 10.0313 5.11836 10.0335 5.11389 10.0357C4.11613 10.4576 3.22104 11.0625 2.45095 11.8348C1.68531 12.5991 1.07576 13.5051 0.656306 14.5022C0.243612 15.4787 0.020885 16.5249 5.5817e-05 17.5848C-0.000539953 17.6086 0.00363868 17.6323 0.0123456 17.6545C0.0210525 17.6767 0.0341115 17.6969 0.0507531 17.714C0.0673947 17.731 0.0872822 17.7446 0.109244 17.7539C0.131205 17.7631 0.154796 17.7679 0.178627 17.7679H1.51568C1.61166 17.7679 1.69202 17.6897 1.69425 17.5938C1.73889 15.8705 2.42863 14.2567 3.64961 13.0335C4.91077 11.7679 6.58488 11.0714 8.37059 11.0714C11.4286 11.0714 13.9063 8.59375 13.9063 5.53571ZM8.37059 9.375C6.25006 9.375 4.53131 7.65625 4.53131 5.53571C4.53131 3.41518 6.25006 1.69643 8.37059 1.69643C10.4911 1.69643 12.2099 3.41518 12.2099 5.53571C12.2099 7.65625 10.4911 9.375 8.37059 9.375ZM10.7143 14.308H16.6072C16.7054 14.308 16.7858 14.2277 16.7858 14.1295V12.8795C16.7858 12.7813 16.7054 12.7009 16.6072 12.7009H12.6675L13.721 11.3594C13.7453 11.3281 13.7587 11.2896 13.759 11.25C13.759 11.1518 13.6786 11.0714 13.5804 11.0714H11.9599C11.8505 11.0714 11.7478 11.1228 11.6786 11.2076L10.1496 13.1518C10.0514 13.2768 9.99782 13.433 9.99782 13.5938C10.0001 13.9888 10.3193 14.308 10.7143 14.308V14.308ZM16.0715 15.7366H10.1786C10.0804 15.7366 10.0001 15.817 10.0001 15.9152V17.1652C10.0001 17.2634 10.0804 17.3438 10.1786 17.3438H14.1184L13.0648 18.6853C13.0405 18.7166 13.0272 18.755 13.0268 18.7946C13.0268 18.8929 13.1072 18.9732 13.2054 18.9732H14.8259C14.9353 18.9732 15.038 18.9219 15.1072 18.8371L16.6362 16.8929C16.7344 16.7679 16.788 16.6116 16.788 16.4509C16.7858 16.0558 16.4666 15.7366 16.0715 15.7366V15.7366Z" fill="white"/>
</svg>
