<svg width="20" height="20" viewBox="0 0 20 20" fill="none" xmlns="http://www.w3.org/2000/svg">
<path d="M10 8.4375C10 6.53902 8.46098 5 6.5625 5C4.66402 5 3.125 6.53902 3.125 8.4375C3.125 10.336 4.66402 11.875 6.5625 11.875C8.46098 11.875 10 10.336 10 8.4375ZM11.25 8.4375C11.25 11.0263 9.15133 13.125 6.5625 13.125C3.97367 13.125 1.875 11.0263 1.875 8.4375C1.875 5.84867 3.97367 3.75 6.5625 3.75C9.15133 3.75 11.25 5.84867 11.25 8.4375Z" fill="#4A5565"/>
<path d="M6.56212 11.875C7.81124 11.875 9.0406 12.187 10.1386 12.7827C11.2365 13.3783 12.1683 14.2387 12.8494 15.2859C13.0375 15.5752 12.9555 15.9624 12.6662 16.1506C12.3768 16.3388 11.9897 16.2567 11.8015 15.9674C11.234 15.0948 10.4575 14.3778 9.54254 13.8814C8.62758 13.385 7.60306 13.125 6.56212 13.125C5.5212 13.125 4.49673 13.385 3.58177 13.8814C2.66682 14.3778 1.89031 15.0948 1.32279 15.9674C1.13459 16.2567 0.747498 16.3388 0.458146 16.1506C0.168785 15.9624 0.0867677 15.5752 0.274964 15.2859C0.956006 14.2387 1.88781 13.3783 2.98576 12.7827C4.08371 12.187 5.31301 11.875 6.56212 11.875Z" fill="#4A5565"/>
<path d="M13.4371 11.875C14.6863 11.8743 15.9158 12.1858 17.0139 12.7812C18.112 13.3766 19.0438 14.2371 19.7247 15.2843C19.9129 15.5737 19.8309 15.9608 19.5415 16.149C19.2521 16.3371 18.865 16.255 18.6768 15.9657C18.1095 15.0931 17.333 14.3762 16.4181 13.8801C15.5031 13.384 14.4787 13.1244 13.4379 13.125C13.0927 13.1252 12.8127 12.8456 12.8125 12.5004C12.8123 12.1552 13.0919 11.8752 13.4371 11.875Z" fill="#4A5565"/>
<path d="M11.6983 4.08359C12.3395 3.82785 13.0293 3.71683 13.7183 3.75858C14.4074 3.80033 15.0788 3.99377 15.6844 4.32506C16.2901 4.65635 16.8151 5.11737 17.2219 5.67508C17.6287 6.23279 17.9074 6.8735 18.0379 7.55138C18.1684 8.22925 18.1475 8.92762 17.9768 9.59651C17.8061 10.2654 17.4898 10.8883 17.0505 11.4208C16.6111 11.9532 16.0596 12.3821 15.4353 12.6767C14.811 12.9713 14.1293 13.1244 13.439 13.125C13.0938 13.1253 12.8137 12.8457 12.8134 12.5006C12.8131 12.1554 13.0927 11.8753 13.4379 11.875C13.9441 11.8746 14.444 11.7623 14.9019 11.5463C15.3597 11.3302 15.7642 11.0157 16.0863 10.6253C16.4085 10.2348 16.6405 9.77796 16.7657 9.28745C16.8908 8.79692 16.9061 8.28477 16.8104 7.78766C16.7147 7.29055 16.5103 6.82069 16.212 6.4117C15.9137 6.00272 15.5287 5.66465 15.0845 5.42171C14.6404 5.17877 14.1481 5.03691 13.6428 5.00629C13.1375 4.97567 12.6316 5.05709 12.1614 5.24463C11.8408 5.3725 11.4772 5.21626 11.3493 4.89566C11.2215 4.57505 11.3777 4.21147 11.6983 4.08359Z" fill="#4A5565"/>
</svg>
