<svg width="19" height="19" viewBox="0 0 19 19" fill="none" xmlns="http://www.w3.org/2000/svg">
<path d="M14.2883 13.0583C13.3311 13.0361 12.5053 12.7261 11.8108 12.1283C11.1164 11.5306 10.6986 10.7292 10.5575 9.72417H8.03083L7.52749 8.89083H10.5575C10.6058 8.44639 10.7611 7.98111 11.0233 7.495C11.2856 7.00889 11.6367 6.63028 12.0767 6.35917H6.07499L5.57083 5.52583H12.44L11.1233 1.92C11.08 1.81278 11.0155 1.73 10.93 1.67167C10.8444 1.61278 10.7483 1.58333 10.6417 1.58333H8.35999V0.75H10.6417C10.9328 0.75 11.19 0.830278 11.4133 0.990833C11.6372 1.15139 11.7994 1.36444 11.9 1.63L13.3292 5.52583H14.2892C15.3564 5.52583 16.248 5.88944 16.9642 6.61667C17.6808 7.34333 18.0392 8.24056 18.0392 9.30833C18.0392 10.3456 17.6736 11.2297 16.9425 11.9608C16.2114 12.6919 15.3269 13.0575 14.2892 13.0575M14.2917 12.2242C15.1022 12.2242 15.7905 11.9408 16.3567 11.3742C16.9233 10.8064 17.2067 10.1175 17.2067 9.3075C17.2067 8.47417 16.9289 7.77444 16.3733 7.20833C15.8178 6.64222 15.1233 6.35889 14.29 6.35833C14.1578 6.35833 14.0375 6.36945 13.9292 6.39167C13.8208 6.41278 13.7222 6.43389 13.6333 6.455L14.4942 8.76417L13.7125 9.055L12.8883 6.755C12.4183 7.00167 12.0483 7.36639 11.7783 7.84917C11.5083 8.33194 11.373 8.81806 11.3725 9.3075C11.3725 10.1181 11.6564 10.8069 12.2242 11.3742C12.7914 11.9408 13.4811 12.2242 14.2917 12.2242ZM5.47666 18.2833C4.89833 18.2833 4.40611 18.0806 3.99999 17.675C3.59444 17.27 3.39166 16.7783 3.39166 16.2C3.39166 16.1139 3.39666 16.0389 3.40666 15.975C3.41777 15.9111 3.43388 15.8364 3.45499 15.7508H0.0583284V14.9175H3.82999C4.02722 14.6769 4.26944 14.4833 4.55666 14.3367C4.84444 14.19 5.15166 14.1167 5.47833 14.1167C5.76999 14.1167 6.05972 14.1778 6.34749 14.3C6.63472 14.4233 6.89249 14.6292 7.12083 14.9175H9.12916C9.27861 14.9175 9.40138 14.8694 9.49749 14.7733C9.59361 14.6772 9.64166 14.5544 9.64166 14.405V13.3467C9.64166 13.1972 9.59361 13.0744 9.49749 12.9783C9.40138 12.8822 9.27833 12.8339 9.12833 12.8333H0.0574951V12H1.72416V9.08333H0.0574951V8.25H5.23416L7.41333 12H9.12833C9.49833 12 9.81499 12.1319 10.0783 12.3958C10.3417 12.6597 10.4736 12.9764 10.4742 13.3458V14.4042C10.4742 14.7742 10.3425 15.0908 10.0792 15.3542C9.81583 15.6175 9.49888 15.7494 9.12833 15.75H7.49333C7.51499 15.8356 7.53111 15.9106 7.54166 15.975C7.55277 16.0383 7.55833 16.1128 7.55833 16.1983C7.55833 16.7772 7.35555 17.2692 6.94999 17.6742C6.54555 18.0797 6.05444 18.2825 5.47666 18.2825M2.55749 12H6.45333L4.77749 9.08333H2.55749V12ZM5.47416 17.4492C5.81749 17.4492 6.11166 17.3264 6.35666 17.0808C6.60166 16.8358 6.72416 16.5417 6.72416 16.1983C6.72416 15.855 6.60166 15.5611 6.35666 15.3167C6.11166 15.0722 5.81749 14.9494 5.47416 14.9483C5.13083 14.9472 4.83694 15.07 4.59249 15.3167C4.34805 15.5633 4.22527 15.8572 4.22416 16.1983C4.22305 16.5394 4.34583 16.8336 4.59249 17.0808C4.83916 17.3281 5.13305 17.4514 5.47416 17.4492Z" fill="white"/>
</svg>
