<svg width="160" height="50" viewBox="0 0 160 50" fill="none" xmlns="http://www.w3.org/2000/svg">
<path d="M42.1761 8.06592C44.5115 5.74217 47.672 4.43768 50.9666 4.43768C54.2612 4.43768 57.4217 5.74217 59.7571 8.06592C60.9359 9.19619 61.869 10.5573 62.4983 12.0642C63.1276 13.5712 63.4396 15.1916 63.4147 16.8245C63.4419 18.4533 63.1308 20.07 62.5013 21.5725C61.8717 23.0749 60.9373 24.4304 59.7571 25.5533C57.4109 27.8566 54.2544 29.147 50.9666 29.147C47.6788 29.147 44.5223 27.8566 42.1761 25.5533C40.9953 24.4306 40.0603 23.0753 39.43 21.5728C38.7997 20.0704 38.4879 18.4536 38.5142 16.8245C38.4902 15.1914 38.8029 13.5708 39.433 12.0638C40.063 10.5569 40.9968 9.19597 42.1761 8.06592ZM57.9049 9.80743C56.998 8.88887 55.9176 8.15956 54.7266 7.66179C53.5355 7.16401 52.2575 6.90769 50.9666 6.90769C49.6757 6.90769 48.3977 7.16401 47.2067 7.66179C46.0156 8.15956 44.9353 8.88887 44.0283 9.80743C42.1953 11.6669 41.1677 14.173 41.1677 16.7841C41.1677 19.3951 42.1953 21.9012 44.0283 23.7607C44.9291 24.684 46.0055 25.4177 47.1941 25.9187C48.3828 26.4196 49.6597 26.6777 50.9496 26.6777C52.2395 26.6777 53.5164 26.4196 54.705 25.9187C55.8937 25.4177 56.9701 24.684 57.8709 23.7607C59.7018 21.9002 60.728 19.3944 60.728 16.7841C60.728 14.1737 59.7018 11.668 57.8709 9.80743H57.9049Z" fill="white"/>
<path d="M85.859 21.9553H75.6782L72.7956 28.7382H69.8789L80.9027 3.70996L91.6413 28.7382H88.6948L85.859 21.9553ZM84.8158 19.4857L80.8218 9.91805L76.7385 19.4857H84.8158Z" fill="white"/>
<path d="M114.165 8.14261L112.036 9.50515C111.04 7.77642 109.667 6.91064 107.919 6.9078C106.895 6.88652 105.901 7.25481 105.138 7.93823C104.758 8.26752 104.456 8.67694 104.252 9.13707C104.049 9.59719 103.95 10.0966 103.963 10.5994C103.958 11.0619 104.067 11.5185 104.282 11.9279C104.516 12.3593 104.854 12.7253 105.266 12.9924C105.692 13.299 106.084 13.5332 106.39 13.7035C106.697 13.8738 107.131 14.0824 107.702 14.3379L109.277 15.049C110.048 15.3826 110.8 15.7594 111.53 16.1774C112.157 16.5516 112.746 16.9866 113.288 17.476C113.861 17.982 114.306 18.6168 114.587 19.3282C114.882 20.1072 115.026 20.9351 115.013 21.768C115.032 22.7454 114.847 23.7161 114.471 24.6184C114.095 25.5208 113.536 26.335 112.828 27.0096C111.469 28.2994 109.688 29.0532 107.815 29.1315C105.943 29.2098 104.106 28.6072 102.643 27.4354C101.289 26.2846 100.376 24.7001 100.059 22.9518L102.656 22.2236C102.802 23.4339 103.365 24.5554 104.248 25.3958C104.67 25.811 105.171 26.1379 105.721 26.3572C106.27 26.5765 106.859 26.684 107.45 26.6732C108.727 26.6859 109.958 26.2037 110.887 25.3277C111.358 24.9157 111.734 24.4059 111.989 23.8338C112.243 23.2617 112.37 22.6411 112.36 22.015C112.364 21.5114 112.273 21.0115 112.092 20.5418C111.947 20.1494 111.743 19.7817 111.487 19.4517C111.179 19.111 110.821 18.8182 110.427 18.5831C109.941 18.268 109.575 18.0423 109.286 17.9018C108.996 17.7613 108.57 17.5612 107.957 17.2844L106.501 16.65C105.075 16.0635 103.766 15.2272 102.635 14.1804C101.749 13.2947 101.302 12.0812 101.302 10.5356C101.279 9.7037 101.444 8.87737 101.785 8.11806C102.125 7.35876 102.633 6.68601 103.269 6.14989C104.069 5.44383 105.02 4.92889 106.048 4.64396C107.077 4.35902 108.156 4.31155 109.206 4.50513C110.255 4.69871 111.247 5.12827 112.106 5.76137C112.965 6.39447 113.669 7.21455 114.165 8.15964V8.14261Z" fill="white"/>
<path d="M130.89 27.3416L124.048 13.8482H126.994L132.27 24.5442L137.086 13.8695H139.934L128.944 37.1222H126.062L130.89 27.3416Z" fill="white"/>
<path d="M156.14 16.19L154.011 17.3014C153.822 16.8835 153.54 16.5149 153.185 16.2241C152.848 15.9417 152.42 15.7905 151.98 15.7983C151.511 15.7953 151.057 15.9633 150.703 16.271C150.53 16.4091 150.39 16.5847 150.295 16.7846C150.2 16.9845 150.152 17.2035 150.153 17.4249C150.152 17.6024 150.177 17.7791 150.23 17.9486C150.298 18.1251 150.408 18.2828 150.549 18.4084C150.707 18.5575 150.843 18.6852 150.975 18.7874C151.152 18.9308 151.349 19.0484 151.559 19.1366L152.163 19.4218C152.288 19.4871 152.531 19.5936 152.891 19.7412C153.249 19.886 153.492 19.9839 153.619 20.0265C154.55 20.3943 155.398 20.9428 156.115 21.6402C156.441 21.9986 156.692 22.4188 156.853 22.8759C157.013 23.333 157.081 23.8178 157.051 24.3014C157.067 24.9514 156.944 25.5973 156.69 26.1958C156.436 26.7942 156.057 27.3315 155.578 27.7717C154.616 28.6795 153.336 29.1734 152.014 29.147C150.847 29.1831 149.7 28.8359 148.749 28.1585C147.798 27.481 147.095 26.5106 146.747 25.3957L148.995 24.4462C149.275 25.1112 149.684 25.7134 150.2 26.2175C150.713 26.6453 151.369 26.8615 152.035 26.8221C152.672 26.8441 153.293 26.6165 153.764 26.1877C153.989 25.9776 154.166 25.7218 154.283 25.4376C154.401 25.1534 154.456 24.8473 154.445 24.5399C154.451 24.2503 154.391 23.9632 154.27 23.7C154.149 23.4368 153.97 23.2043 153.747 23.0198C153.253 22.5894 152.692 22.2415 152.087 21.9894C151.431 21.7311 150.775 21.4472 150.119 21.1378C149.469 20.8326 148.897 20.3808 148.45 19.8178C147.972 19.1987 147.725 18.4322 147.752 17.6505C147.736 17.082 147.844 16.5167 148.068 15.994C148.293 15.4713 148.628 15.0035 149.051 14.6231C149.904 13.8363 151.028 13.4105 152.189 13.4352C153.037 13.4375 153.863 13.7088 154.548 14.2101C155.255 14.7067 155.807 15.3931 156.14 16.19Z" fill="white"/>
<path fill-rule="evenodd" clip-rule="evenodd" d="M14.8656 2.20697C11.9745 2.20697 9.14837 3.06427 6.74452 4.67047C4.34068 6.27667 2.46711 8.55961 1.36075 11.2306C0.25438 13.9016 -0.0350955 16.8407 0.528926 19.6763C1.09295 22.5118 2.48513 25.1164 4.52943 27.1607C6.57373 29.205 9.17833 30.5972 12.0139 31.1612C14.8494 31.7252 17.7885 31.4357 20.4595 30.3294C23.1305 29.223 25.4134 27.3494 27.0196 24.9456C28.6258 22.5417 29.4831 19.7156 29.4831 16.8245C29.4831 12.9477 27.9431 9.22967 25.2018 6.48835C22.4604 3.74703 18.7424 2.20697 14.8656 2.20697ZM19.609 27.5247H10.118C9.99376 27.5247 9.87463 27.4754 9.78679 27.3876C9.69895 27.2997 9.64961 27.1806 9.64961 27.0564C9.64961 26.9321 9.69895 26.813 9.78679 26.7252C9.87463 26.6373 9.99376 26.588 10.118 26.588H19.609C19.7332 26.588 19.8523 26.6373 19.9401 26.7252C20.028 26.813 20.0773 26.9321 20.0773 27.0564C20.0773 27.1806 20.028 27.2997 19.9401 27.3876C19.8523 27.4754 19.7332 27.5247 19.609 27.5247ZM22.0445 24.6549H7.68243C7.55595 24.6549 7.43465 24.6046 7.34522 24.5152C7.25579 24.4258 7.20554 24.3045 7.20554 24.178C7.20554 24.0515 7.25579 23.9302 7.34522 23.8408C7.43465 23.7513 7.55595 23.7011 7.68243 23.7011H22.0445C22.171 23.7011 22.2923 23.7513 22.3817 23.8408C22.4711 23.9302 22.5214 24.0515 22.5214 24.178C22.5214 24.3045 22.4711 24.4258 22.3817 24.5152C22.2923 24.6046 22.171 24.6549 22.0445 24.6549ZM24.4843 21.768H5.24689C5.12267 21.768 5.00353 21.7186 4.9157 21.6308C4.82786 21.543 4.77851 21.4238 4.77851 21.2996C4.77851 21.1754 4.82786 21.0563 4.9157 20.9684C5.00353 20.8806 5.12267 20.8312 5.24689 20.8312H24.4843C24.6085 20.8312 24.7277 20.8806 24.8155 20.9684C24.9033 21.0563 24.9527 21.1754 24.9527 21.2996C24.9527 21.4238 24.9033 21.543 24.8155 21.6308C24.7277 21.7186 24.6085 21.768 24.4843 21.768Z" fill="white"/>
<path d="M7.606 44.2712C8.00825 44.7632 8.228 45.3792 8.228 46.0148C8.228 46.6504 8.00825 47.2664 7.606 47.7584C7.16371 48.1821 6.5749 48.4186 5.96243 48.4186C5.34996 48.4186 4.76114 48.1821 4.31886 47.7584C3.91442 47.2657 3.69336 46.648 3.69336 46.0105C3.69336 45.3731 3.91442 44.7554 4.31886 44.2627C4.53251 44.0417 4.79064 43.8686 5.07617 43.7548C5.3617 43.6411 5.66813 43.5892 5.9752 43.6027C6.279 43.5912 6.58173 43.6449 6.86302 43.7602C7.14432 43.8756 7.39766 44.0498 7.606 44.2712ZM5.05123 44.8545C4.80811 45.1852 4.68768 45.5901 4.71059 45.9999C4.686 46.4145 4.80477 46.8249 5.04697 47.1623C5.15755 47.2999 5.29855 47.41 5.45888 47.4839C5.61921 47.5578 5.79449 47.5934 5.97094 47.5881C6.14454 47.5949 6.31721 47.5597 6.47434 47.4856C6.63147 47.4115 6.76843 47.3006 6.87363 47.1623C7.11003 46.8225 7.22548 46.4132 7.20149 45.9999C7.22368 45.5902 7.10663 45.185 6.86937 44.8503C6.75786 44.7177 6.61871 44.6111 6.46167 44.538C6.30464 44.4649 6.13352 44.427 5.9603 44.427C5.78708 44.427 5.61596 44.4649 5.45892 44.538C5.30188 44.6111 5.16274 44.7177 5.05123 44.8503V44.8545Z" fill="white"/>
<path d="M9.69186 45.4081C9.807 45.244 9.96196 45.1117 10.1422 45.0239C10.3224 44.936 10.522 44.8953 10.7223 44.9057C10.9272 44.8988 11.1311 44.9385 11.3184 45.0218C11.5058 45.1052 11.6717 45.23 11.8038 45.3868C12.0919 45.7491 12.2427 46.2016 12.2296 46.6642C12.2565 47.1239 12.1158 47.5777 11.8336 47.9416C11.7014 48.0939 11.5357 48.2134 11.3495 48.291C11.1634 48.3686 10.9618 48.402 10.7606 48.3887C10.5614 48.3988 10.363 48.3585 10.1836 48.2714C10.0042 48.1843 9.84968 48.0533 9.73444 47.8905V49.4873H8.82324V44.9823H9.67483L9.69186 45.4081ZM9.91328 45.9106C9.76156 46.1331 9.68816 46.3997 9.70464 46.6685C9.68665 46.9367 9.76185 47.203 9.91754 47.4221C9.98619 47.5116 10.0755 47.5832 10.1778 47.6307C10.2802 47.6781 10.3925 47.7001 10.5051 47.6947C10.6159 47.6998 10.7263 47.6776 10.8265 47.6301C10.9268 47.5826 11.0138 47.5112 11.08 47.4221C11.2325 47.2063 11.3075 46.9452 11.2929 46.6813C11.3081 46.4107 11.2332 46.1426 11.08 45.9191C11.0084 45.834 10.9191 45.7656 10.8184 45.7187C10.7176 45.6718 10.6078 45.6475 10.4966 45.6475C10.3855 45.6475 10.2756 45.6718 10.1749 45.7187C10.0741 45.7656 9.98482 45.834 9.91328 45.9191V45.9106Z" fill="white"/>
<path d="M15.3345 48.112C15.0362 48.3094 14.6826 48.4064 14.3253 48.3887C14.0977 48.3992 13.8704 48.3622 13.6578 48.2801C13.4452 48.198 13.252 48.0726 13.0905 47.9118C12.9289 47.7425 12.8038 47.5417 12.7232 47.3219C12.6427 47.1022 12.6082 46.8681 12.6221 46.6344C12.6048 46.1637 12.773 45.705 13.0905 45.3571C13.2496 45.193 13.4424 45.0654 13.6556 44.983C13.8688 44.9007 14.0973 44.8656 14.3253 44.8802C14.5502 44.8736 14.7737 44.9177 14.9793 45.0091C15.185 45.1005 15.3674 45.2368 15.5133 45.4082C15.8199 45.805 15.9713 46.3 15.9391 46.8005V46.8899H13.5674C13.5562 47.1277 13.6302 47.3617 13.7761 47.5499C13.85 47.6266 13.9396 47.6865 14.0388 47.7255C14.138 47.7644 14.2445 47.7815 14.3509 47.7756C14.5014 47.7802 14.6492 47.7352 14.7716 47.6475C14.8939 47.5598 14.984 47.4342 15.0279 47.2902H15.905C15.8143 47.6212 15.6129 47.9112 15.3345 48.112ZM14.815 45.7573C14.7526 45.6864 14.675 45.6305 14.588 45.5936C14.501 45.5568 14.4069 45.54 14.3126 45.5444C14.219 45.5421 14.1259 45.5586 14.0389 45.593C13.9518 45.6274 13.8726 45.6789 13.8059 45.7445C13.6665 45.8953 13.5824 46.089 13.5674 46.2938H15.0279C15.0143 46.0972 14.9399 45.9097 14.815 45.7573Z" fill="white"/>
<path d="M18.6473 45.7658C18.5296 45.7415 18.4098 45.7287 18.2897 45.7275C18.1641 45.7171 18.0378 45.7377 17.922 45.7874C17.8062 45.8372 17.7044 45.9145 17.6254 46.0128C17.4729 46.2415 17.3983 46.5132 17.4125 46.7877V48.3121H16.4971V44.9823H17.3487V45.5955C17.4366 45.3836 17.5874 45.2038 17.7809 45.0804C17.9743 44.957 18.201 44.8961 18.4302 44.9057C18.4968 44.9012 18.5637 44.9012 18.6303 44.9057L18.6473 45.7658Z" fill="white"/>
<path d="M21.1676 48.312C21.1345 48.2068 21.1131 48.0983 21.1038 47.9884C20.9615 48.1286 20.7924 48.2386 20.6065 48.3118C20.4207 48.3849 20.2219 48.4198 20.0223 48.4142C19.7158 48.4271 19.4144 48.3322 19.1707 48.1459C19.0657 48.0551 18.9828 47.9415 18.9283 47.8139C18.8737 47.6863 18.8488 47.548 18.8556 47.4093C18.8523 47.2822 18.871 47.1554 18.9109 47.0346C18.9458 46.9298 19.0074 46.8358 19.0898 46.7621C19.1659 46.6963 19.2471 46.6365 19.3325 46.5833C19.4277 46.5244 19.5331 46.484 19.6433 46.4641L19.9669 46.3959L20.3075 46.3491C20.5292 46.3285 20.7477 46.2828 20.959 46.2128C21.0111 46.1922 21.0553 46.1554 21.0852 46.108C21.115 46.0605 21.129 46.0048 21.1251 45.9488C21.1251 45.6508 20.9207 45.5018 20.5204 45.5018C20.3574 45.4896 20.1948 45.5299 20.0563 45.6167C19.9447 45.7197 19.8762 45.8612 19.8647 46.0127H19.0131C19.0642 45.2633 19.5794 44.8886 20.5588 44.8886C21.5253 44.8886 22.0107 45.2505 22.0107 45.9744V47.4136C21.9942 47.7203 22.0331 48.0276 22.1257 48.3205L21.1676 48.312ZM20.4481 46.8643C20.2624 46.8791 20.0822 46.9343 19.9201 47.0261C19.8732 47.0683 19.8363 47.1203 19.812 47.1785C19.7877 47.2367 19.7766 47.2995 19.7796 47.3625C19.7774 47.4227 19.7881 47.4827 19.8108 47.5384C19.8336 47.5942 19.8679 47.6446 19.9116 47.6861C20.0147 47.7727 20.1477 47.8155 20.282 47.8053C20.4969 47.8172 20.7084 47.7472 20.8738 47.6094C20.9486 47.5405 21.0073 47.4559 21.0456 47.3617C21.0838 47.2675 21.1008 47.166 21.0953 47.0644V46.6855C20.8907 46.7798 20.6721 46.8402 20.4481 46.8643Z" fill="white"/>
<path d="M24.544 45.5997H23.8627V47.1667C23.8627 47.2646 23.8627 47.337 23.8627 47.3838C23.8693 47.4332 23.8852 47.4809 23.9096 47.5243C23.922 47.5472 23.939 47.5674 23.9595 47.5835C23.98 47.5996 24.0036 47.6113 24.0288 47.618C24.1044 47.634 24.1815 47.6411 24.2587 47.6393C24.3509 47.6445 24.4433 47.6445 24.5355 47.6393V48.3376C24.3098 48.3376 24.1097 48.3632 23.9777 48.3632C23.6896 48.3957 23.3997 48.3198 23.1644 48.1503C22.9909 47.9184 22.9132 47.6288 22.9473 47.3412V45.6125H22.415V44.9823H22.9728V43.9732H23.8627V44.9823H24.544V45.5997Z" fill="white"/>
<path d="M25.9236 44.4884H25.0039V43.7049H25.9236V44.4884ZM25.9236 48.3205H25.0039V44.9823H25.9236V48.3205Z" fill="white"/>
<path d="M28.8572 48.3121V46.3662C28.8677 46.1784 28.8265 45.9913 28.738 45.8254C28.6847 45.7588 28.6152 45.707 28.5362 45.675C28.4572 45.6429 28.3712 45.6317 28.2866 45.6423C27.8055 45.6423 27.5628 45.9361 27.5628 46.5195V48.3121H26.6729V44.9824H27.5244V45.4465C27.6485 45.2705 27.814 45.128 28.0064 45.0314C28.1988 44.9348 28.4121 44.8873 28.6272 44.8929C28.7826 44.8838 28.9381 44.9062 29.0845 44.9589C29.2309 45.0116 29.365 45.0934 29.4788 45.1995C29.5877 45.3186 29.6713 45.4584 29.7247 45.6106C29.7781 45.7628 29.8002 45.9242 29.7897 46.0852V48.3163L28.8572 48.3121Z" fill="white"/>
<path d="M33.6769 47.9628C33.693 48.1822 33.6635 48.4025 33.5902 48.6099C33.5169 48.8173 33.4015 49.0073 33.2511 49.1678C32.9037 49.4489 32.4618 49.586 32.0163 49.551C31.0668 49.551 30.5431 49.2019 30.4537 48.5121H31.3649C31.3762 48.5778 31.401 48.6404 31.4376 48.696C31.4743 48.7517 31.522 48.7993 31.5777 48.8357C31.7184 48.9123 31.8778 48.9477 32.0376 48.9379C32.1442 48.9519 32.2525 48.9398 32.3534 48.9028C32.4542 48.8657 32.5446 48.8047 32.6167 48.725C32.7337 48.5287 32.7886 48.3016 32.7742 48.0735V47.6946C32.6619 47.8597 32.5098 47.9939 32.332 48.0847C32.1541 48.1755 31.9562 48.22 31.7566 48.214C31.5607 48.2243 31.3651 48.1893 31.1849 48.1118C31.0048 48.0342 30.8449 47.9162 30.7176 47.7669C30.4486 47.4296 30.3123 47.0056 30.3344 46.5747C30.3115 46.1305 30.4541 45.6936 30.7347 45.3484C30.8659 45.1976 31.0293 45.078 31.2127 44.9985C31.3962 44.9189 31.5951 44.8814 31.7949 44.8886C31.9942 44.874 32.1935 44.9168 32.3693 45.0119C32.5451 45.107 32.6901 45.2503 32.787 45.4251V44.9993H33.6386L33.6769 47.9628ZM31.4628 45.8338C31.3148 46.0419 31.2427 46.2944 31.2584 46.5492C31.246 46.8009 31.3212 47.0492 31.4713 47.2517C31.54 47.334 31.626 47.4002 31.7231 47.4456C31.8202 47.491 31.9261 47.5146 32.0334 47.5146C32.1406 47.5146 32.2465 47.491 32.3436 47.4456C32.4407 47.4002 32.5267 47.334 32.5954 47.2517C32.7449 47.0426 32.8185 46.7888 32.804 46.5321C32.8193 46.2833 32.7453 46.0373 32.5954 45.8381C32.5239 45.7588 32.4366 45.6953 32.339 45.6519C32.2415 45.6085 32.1359 45.586 32.0291 45.586C31.9223 45.586 31.8167 45.6085 31.7192 45.6519C31.6216 45.6953 31.5343 45.7588 31.4628 45.8381V45.8338Z" fill="white"/>
<path d="M40.358 48.312H39.2977L38.9358 47.2816H37.2326L36.8579 48.312H35.8232L37.5647 43.7049H38.5952L40.358 48.312ZM38.0842 44.8375L37.4711 46.5407H38.6888L38.0842 44.8375Z" fill="white"/>
<path d="M43.322 48.031C43.0151 48.2809 42.6273 48.4096 42.2319 48.3929C42.0051 48.4027 41.7787 48.3662 41.5664 48.2857C41.3541 48.2052 41.1604 48.0823 40.9971 47.9246C40.8399 47.7567 40.7179 47.5591 40.6382 47.3434C40.5585 47.1277 40.5227 46.8982 40.533 46.6685C40.5119 46.1908 40.6802 45.724 41.0014 45.3698C41.1631 45.2061 41.3572 45.078 41.5713 44.9936C41.7854 44.9093 42.0148 44.8707 42.2447 44.8801C42.635 44.8658 43.0183 44.9861 43.3305 45.2208C43.4698 45.3323 43.5842 45.4717 43.6664 45.6301C43.7485 45.7885 43.7965 45.9624 43.8074 46.1405H42.909C42.9041 46.0595 42.8832 45.9803 42.8475 45.9075C42.8119 45.8347 42.7621 45.7696 42.7011 45.7162C42.6401 45.6627 42.5691 45.6219 42.4923 45.596C42.4154 45.5702 42.3341 45.5599 42.2532 45.5657C42.1393 45.5606 42.0259 45.584 41.9233 45.6338C41.8207 45.6836 41.7321 45.7583 41.6656 45.8509C41.5151 46.0898 41.4422 46.3695 41.457 46.6514C41.4412 46.9236 41.5128 47.1936 41.6614 47.4221C41.7269 47.5108 41.8132 47.5821 41.9127 47.6296C42.0121 47.6771 42.1218 47.6994 42.2319 47.6946C42.323 47.6992 42.414 47.6854 42.4995 47.654C42.5851 47.6225 42.6634 47.5742 42.7298 47.5117C42.7962 47.4493 42.8493 47.3741 42.8859 47.2907C42.9226 47.2072 42.942 47.1173 42.943 47.0261H43.8287C43.7946 47.4136 43.6132 47.7732 43.322 48.031Z" fill="white"/>
<path d="M47.0301 48.0309C46.7235 48.2812 46.3355 48.41 45.9401 48.3929C45.7139 48.4031 45.488 48.3668 45.2763 48.2862C45.0646 48.2056 44.8718 48.0825 44.7096 47.9245C44.5506 47.7577 44.4271 47.5604 44.3466 47.3445C44.2661 47.1286 44.2302 46.8986 44.2412 46.6684C44.22 46.1907 44.3884 45.724 44.7096 45.3697C44.8714 45.2062 45.0656 45.0782 45.2797 44.9939C45.4937 44.9096 45.723 44.8708 45.9529 44.88C46.3432 44.8658 46.7265 44.986 47.0387 45.2207C47.178 45.3322 47.2924 45.4716 47.3745 45.63C47.4567 45.7884 47.5047 45.9623 47.5155 46.1404H46.6171C46.6123 46.0594 46.5914 45.9803 46.5557 45.9074C46.52 45.8346 46.4703 45.7696 46.4093 45.7161C46.3483 45.6626 46.2773 45.6218 46.2004 45.596C46.1235 45.5701 46.0423 45.5598 45.9614 45.5656C45.848 45.56 45.735 45.5833 45.633 45.6332C45.531 45.6831 45.4433 45.7579 45.3781 45.8509C45.2239 46.0883 45.1493 46.3687 45.1652 46.6514C45.1493 46.9235 45.2209 47.1935 45.3695 47.422C45.435 47.5107 45.5213 47.582 45.6208 47.6295C45.7203 47.677 45.83 47.6994 45.9401 47.6946C46.0311 47.6991 46.1221 47.6853 46.2077 47.6539C46.2932 47.6225 46.3715 47.5741 46.4379 47.5117C46.5043 47.4492 46.5575 47.3741 46.5941 47.2906C46.6307 47.2072 46.6502 47.1172 46.6512 47.0261H47.5368C47.5027 47.4135 47.3214 47.7731 47.0301 48.0309Z" fill="white"/>
<path d="M50.6282 48.1119C50.3367 48.3119 49.9895 48.4147 49.6361 48.4057C49.4085 48.4161 49.1811 48.3791 48.9686 48.297C48.756 48.2149 48.5628 48.0895 48.4013 47.9288C48.2413 47.7583 48.1173 47.5573 48.0369 47.3379C47.9564 47.1184 47.921 46.8849 47.9329 46.6514C47.9149 46.1798 48.0849 45.7203 48.4055 45.374C48.5574 45.2081 48.7433 45.077 48.9506 44.9895C49.1578 44.9021 49.3815 44.8604 49.6063 44.8673C49.8323 44.8573 50.0577 44.8984 50.2656 44.9876C50.4735 45.0768 50.6586 45.2118 50.807 45.3825C51.1154 45.7785 51.267 46.2742 51.2328 46.7749V46.8643H48.8399C48.828 47.1029 48.9037 47.3376 49.0528 47.5243C49.1255 47.6014 49.2144 47.6616 49.3129 47.7006C49.4115 47.7396 49.5175 47.7564 49.6233 47.75C49.7738 47.7546 49.9217 47.7096 50.044 47.6219C50.1664 47.5342 50.2565 47.4086 50.3003 47.2645H51.1775C51.0976 47.6019 50.9035 47.9012 50.6282 48.1119ZM50.0917 45.7572C50.0293 45.6864 49.9517 45.6304 49.8647 45.5936C49.7777 45.5567 49.6836 45.5399 49.5893 45.5443C49.4957 45.542 49.4026 45.5586 49.3156 45.5929C49.2285 45.6273 49.1493 45.6788 49.0826 45.7445C48.9432 45.8953 48.8591 46.0889 48.8441 46.2937H50.3046C50.291 46.0971 50.2166 45.9096 50.0917 45.7572Z" fill="white"/>
<path d="M52.7189 48.312H51.7949V43.7049H52.7104L52.7189 48.312Z" fill="white"/>
<path d="M56.0064 48.1119C55.6664 48.3318 55.2633 48.4331 54.8597 48.4C54.4562 48.3668 54.0749 48.2012 53.7753 47.9288C53.6158 47.7581 53.4925 47.557 53.4128 47.3375C53.333 47.118 53.2985 46.8846 53.3112 46.6514C53.292 46.1804 53.4604 45.721 53.7795 45.374C53.9319 45.2088 54.1179 45.0781 54.3251 44.9907C54.5322 44.9033 54.7556 44.8612 54.9803 44.8673C55.2084 44.8598 55.4353 44.9046 55.6434 44.9983C55.8516 45.0921 56.0355 45.2322 56.181 45.4081C56.4894 45.804 56.641 46.2998 56.6068 46.8004V46.8899H54.2181C54.205 47.1279 54.2792 47.3626 54.4267 47.5498C54.5 47.6263 54.589 47.686 54.6874 47.7249C54.7859 47.7639 54.8916 47.7811 54.9973 47.7755C55.1482 47.7797 55.2964 47.7346 55.4193 47.647C55.5422 47.5594 55.6333 47.4341 55.6786 47.2901H56.5557C56.4705 47.6181 56.2769 47.9077 56.0064 48.1119ZM55.487 45.7573C55.4237 45.6863 55.3454 45.6303 55.2577 45.5935C55.17 45.5567 55.0753 45.5399 54.9803 45.5444C54.8873 45.5419 54.7949 45.5584 54.7085 45.5928C54.6221 45.6272 54.5436 45.6788 54.4778 45.7445C54.3385 45.8953 54.2544 46.0889 54.2394 46.2937H55.6999C55.6863 46.0972 55.6119 45.9097 55.487 45.7573Z" fill="white"/>
<path d="M59.3186 45.7658C59.2008 45.7418 59.0811 45.7289 58.9609 45.7275C58.8353 45.7167 58.7089 45.7371 58.5931 45.7869C58.4772 45.8367 58.3754 45.9143 58.2967 46.0128C58.1442 46.2415 58.0695 46.5132 58.0838 46.7877V48.3121H57.1641V44.9824H58.0157V45.5955C58.1036 45.3836 58.2544 45.2038 58.4479 45.0804C58.6413 44.957 58.8679 44.8961 59.0972 44.9057C59.1638 44.9014 59.2307 44.9014 59.2973 44.9057L59.3186 45.7658Z" fill="white"/>
<path d="M61.8351 48.312C61.8019 48.2068 61.7805 48.0983 61.7712 47.9884C61.63 48.1289 61.4617 48.2391 61.2764 48.3123C61.0912 48.3855 60.893 48.4202 60.6939 48.4142C60.3802 48.4322 60.0705 48.337 59.8211 48.1459C59.7161 48.0551 59.6332 47.9415 59.5787 47.8139C59.5241 47.6863 59.4992 47.548 59.506 47.4093C59.5027 47.2822 59.5214 47.1554 59.5613 47.0346C59.5947 46.929 59.6566 46.8347 59.7402 46.7621C59.8157 46.6974 59.8954 46.6377 59.9786 46.5833C60.0758 46.5252 60.1824 46.4849 60.2937 46.4641L60.6173 46.3959L60.9579 46.3491C61.1796 46.3285 61.3981 46.2828 61.6094 46.2128C61.6607 46.1915 61.704 46.1545 61.7331 46.107C61.7621 46.0596 61.7755 46.0043 61.7712 45.9488C61.7712 45.665 61.5711 45.5159 61.1708 45.5018C61.0078 45.489 60.845 45.5293 60.7067 45.6167C60.5951 45.7203 60.5254 45.8612 60.5108 46.0127H59.6593C59.7104 45.2633 60.2241 44.8886 61.2006 44.8886C62.1771 44.8886 62.6625 45.2505 62.6568 45.9744V47.4136C62.6403 47.7203 62.6793 48.0276 62.7718 48.3205L61.8351 48.312ZM61.1197 46.8643C60.934 46.8791 60.7538 46.9343 60.5917 47.0261C60.5441 47.0679 60.5064 47.1197 60.4813 47.1779C60.4563 47.2361 60.4446 47.2992 60.447 47.3625C60.4448 47.4227 60.4555 47.4827 60.4782 47.5384C60.501 47.5942 60.5353 47.6446 60.579 47.6861C60.6843 47.7718 60.8182 47.8144 60.9537 47.8053C61.1672 47.8161 61.3769 47.7462 61.5413 47.6094C61.6166 47.5407 61.6759 47.4563 61.7149 47.3621C61.7539 47.2679 61.7717 47.1663 61.7669 47.0644V46.6855C61.562 46.7789 61.3436 46.8393 61.1197 46.8643Z" fill="white"/>
<path d="M65.2121 45.5997H64.5309V47.1667C64.5309 47.2646 64.5309 47.337 64.5309 47.3838C64.5358 47.433 64.5502 47.4807 64.5734 47.5243C64.6014 47.57 64.6455 47.6034 64.6969 47.618C64.7711 47.6338 64.8468 47.641 64.9226 47.6393C65.0162 47.6445 65.11 47.6445 65.2036 47.6393V48.3376C64.978 48.3376 64.7778 48.3632 64.6458 48.3632C64.3564 48.3952 64.0654 48.3194 63.8283 48.1503C63.6567 47.9176 63.5805 47.6282 63.6154 47.3412V45.6125H63.0576V44.9823H63.6154V43.9732H64.5224V44.9823H65.2036L65.2121 45.5997Z" fill="white"/>
<path d="M68.2093 48.112C67.8699 48.3315 67.4674 48.4326 67.0646 48.3995C66.6618 48.3664 66.2813 48.2009 65.9823 47.9289C65.8223 47.7584 65.6984 47.5574 65.6179 47.3379C65.5374 47.1184 65.5021 46.885 65.514 46.6515C65.4959 46.1799 65.6659 45.7204 65.9866 45.3741C66.139 45.2089 66.325 45.0782 66.5321 44.9908C66.7392 44.9034 66.9626 44.8613 67.1873 44.8674C67.4175 44.8585 67.6467 44.9027 67.8571 44.9964C68.0675 45.0902 68.2535 45.2311 68.4009 45.4082C68.7169 45.801 68.8761 46.2971 68.8479 46.8005V46.8899H66.4592C66.4461 47.128 66.5203 47.3626 66.6679 47.5499C66.741 47.6265 66.8299 47.6864 66.9284 47.7254C67.0269 47.7643 67.1327 47.7815 67.2384 47.7756C67.3889 47.7802 67.5368 47.7352 67.6591 47.6475C67.7815 47.5598 67.8716 47.4342 67.9155 47.2902H68.7968C68.701 47.6234 68.4936 47.9135 68.2093 48.112ZM67.6898 45.7573C67.6273 45.6864 67.5498 45.6305 67.4628 45.5937C67.3758 45.5568 67.2817 45.54 67.1873 45.5444C67.0944 45.5417 67.0018 45.5581 66.9154 45.5925C66.829 45.6269 66.7506 45.6786 66.6849 45.7445C66.5441 45.8944 66.4598 46.0886 66.4465 46.2938H67.9027C67.8908 46.0968 67.8162 45.9088 67.6898 45.7573Z" fill="white"/>
<path d="M73.7017 45.0802C73.6592 44.6246 73.3696 44.3947 72.8502 44.3947C72.6583 44.3834 72.4677 44.4326 72.3051 44.5352C72.2421 44.577 72.1907 44.634 72.1557 44.701C72.1207 44.7681 72.1032 44.8429 72.105 44.9184C72.1046 44.9692 72.1132 45.0197 72.1306 45.0675C72.153 45.1146 72.1866 45.1555 72.2285 45.1867C72.2721 45.2235 72.3209 45.2536 72.3733 45.2761C72.4403 45.3091 72.5101 45.3362 72.5819 45.357L72.8331 45.4294L73.1525 45.5146L73.5144 45.6082C73.8808 45.6982 74.2245 45.8635 74.5235 46.0936C74.6407 46.2007 74.7318 46.333 74.7901 46.4805C74.8484 46.6281 74.8723 46.787 74.8599 46.9452C74.8645 47.1851 74.8088 47.4222 74.6981 47.635C74.596 47.822 74.4498 47.9813 74.2723 48.0991C74.0866 48.2138 73.884 48.2985 73.6719 48.3503C73.4445 48.4042 73.2116 48.4313 72.9779 48.4312C72.4564 48.463 71.9401 48.3125 71.5174 48.0055C71.3407 47.859 71.2003 47.6736 71.1072 47.4638C71.0141 47.254 70.9709 47.0255 70.9809 46.7962H71.9858C71.9858 47.371 72.3477 47.6478 73.0247 47.6478C73.2443 47.6593 73.4618 47.6012 73.6464 47.4817C73.7161 47.4345 73.7735 47.3711 73.8135 47.297C73.8535 47.2229 73.8751 47.1402 73.8763 47.0559C73.8805 46.9835 73.8629 46.9115 73.8257 46.8493C73.7885 46.787 73.7334 46.7374 73.6677 46.7068C73.3825 46.5824 73.0877 46.4813 72.7863 46.4045H72.7267H72.6756H72.616L72.2924 46.3108L72.0071 46.2086C71.9067 46.1754 71.8098 46.1326 71.7175 46.0809C71.6579 46.0425 71.5855 45.9872 71.4961 45.9191C71.4166 45.8622 71.351 45.7879 71.3045 45.7019C71.2608 45.613 71.2251 45.5204 71.1981 45.4251C71.1668 45.3085 71.151 45.1882 71.1512 45.0675C71.1455 44.8739 71.1866 44.6818 71.2711 44.5076C71.3556 44.3333 71.481 44.1821 71.6366 44.0669C72.0084 43.8023 72.4583 43.6703 72.914 43.6922C73.368 43.6692 73.8169 43.7964 74.1914 44.0541C74.3571 44.1844 74.4893 44.3525 74.5767 44.5444C74.6641 44.7363 74.7043 44.9463 74.6938 45.1569L73.7017 45.0802Z" fill="white"/>
<path d="M77.1513 48.295C77.0917 48.4654 77.0491 48.5846 77.0193 48.6485C76.9895 48.7123 76.9469 48.8103 76.8915 48.9295C76.8502 49.0207 76.7957 49.1053 76.7297 49.1807C76.6659 49.2381 76.5991 49.2921 76.5296 49.3425C76.4443 49.4033 76.3471 49.4453 76.2443 49.466C76.1237 49.4895 76.001 49.5009 75.8782 49.5H75.265V48.7464H75.6908C75.7534 48.7508 75.8162 48.7426 75.8755 48.7221C75.9347 48.7016 75.9892 48.6693 76.0357 48.6272C76.0776 48.584 76.1099 48.5325 76.1304 48.476C76.151 48.4195 76.1593 48.3593 76.1549 48.2993C76.153 48.2557 76.1444 48.2126 76.1294 48.1716L74.9414 44.9824H75.9335L76.6914 47.2476L77.428 44.9824H78.3776L77.1513 48.295Z" fill="white"/>
<path d="M80.6684 45.9446C80.6633 45.8755 80.6435 45.8082 80.6105 45.7473C80.5775 45.6864 80.5319 45.6332 80.4768 45.5912C80.3473 45.5178 80.1997 45.4824 80.051 45.489C79.918 45.483 79.7857 45.5124 79.6678 45.5742C79.6264 45.5995 79.5925 45.6353 79.5693 45.6779C79.5461 45.7205 79.5346 45.7684 79.5358 45.8169C79.5323 45.8694 79.5452 45.9218 79.5726 45.9668C79.6 46.0117 79.6407 46.0471 79.689 46.0681C79.8693 46.1391 80.0561 46.1918 80.2468 46.2256H80.349L80.7195 46.3065C80.8353 46.3395 80.949 46.3793 81.0601 46.4257C81.1727 46.4654 81.2768 46.5261 81.3667 46.6046C81.4485 46.6807 81.5149 46.7718 81.5625 46.8728C81.621 46.9935 81.6502 47.1262 81.6477 47.2603C81.6511 47.4226 81.6139 47.5831 81.5395 47.7273C81.4652 47.8716 81.356 47.995 81.2219 48.0863C80.8928 48.3058 80.5012 48.4119 80.1063 48.3887C79.7125 48.4063 79.3224 48.3054 78.9865 48.0991C78.8453 47.9996 78.732 47.8656 78.6574 47.7097C78.5829 47.5539 78.5496 47.3816 78.5607 47.2092H79.4123C79.4421 47.5797 79.6805 47.7627 80.1234 47.7627C80.2729 47.7668 80.4205 47.7284 80.5492 47.652C80.6004 47.62 80.6425 47.5754 80.6716 47.5225C80.7006 47.4696 80.7157 47.4101 80.7152 47.3497C80.7187 47.296 80.7065 47.2424 80.6801 47.1955C80.6536 47.1486 80.614 47.1105 80.5662 47.0857C80.3895 47.01 80.2054 46.9529 80.0169 46.9154H79.9658C79.9002 46.8955 79.8333 46.8799 79.7657 46.8686L79.5485 46.8175L79.3484 46.7664C79.2773 46.7497 79.2086 46.7239 79.144 46.6897L78.9737 46.6003C78.9136 46.5717 78.86 46.5311 78.8162 46.4811L78.7012 46.3278C78.6606 46.269 78.633 46.2022 78.6203 46.1319C78.6027 46.0537 78.5941 45.9737 78.5948 45.8935C78.5867 45.7447 78.6179 45.5964 78.6851 45.4634C78.7524 45.3304 78.8534 45.2173 78.978 45.1356C79.3024 44.9414 79.6778 44.8494 80.0552 44.8716C80.4154 44.8555 80.7723 44.9458 81.0814 45.1313C81.2158 45.2173 81.3257 45.3366 81.4003 45.4776C81.4749 45.6187 81.5117 45.7766 81.5072 45.9361L80.6684 45.9446Z" fill="white"/>
<path d="M84.0064 45.5997H83.3293V47.1667C83.3293 47.2646 83.3293 47.337 83.3293 47.3838C83.3359 47.4332 83.3518 47.4809 83.3762 47.5243C83.4024 47.5697 83.4451 47.6032 83.4954 47.618C83.571 47.6335 83.6481 47.6407 83.7253 47.6393C83.8175 47.6445 83.9099 47.6445 84.0021 47.6393V48.3376C83.7807 48.3376 83.5763 48.3632 83.4486 48.3632C83.1591 48.3952 82.8681 48.3194 82.631 48.1503C82.4575 47.9184 82.3798 47.6288 82.4139 47.3412V45.6125H81.8604V44.9823H82.4139V43.9732H83.3251V44.9823H84.0021L84.0064 45.5997Z" fill="white"/>
<path d="M87.0079 48.1119C86.7164 48.3119 86.3692 48.4147 86.0158 48.4057C85.7881 48.4161 85.5608 48.3791 85.3482 48.297C85.1356 48.2149 84.9425 48.0895 84.781 47.9288C84.6193 47.7595 84.4943 47.5587 84.4137 47.3389C84.3331 47.1191 84.2987 46.8851 84.3126 46.6514C84.2945 46.1798 84.4645 45.7203 84.7852 45.374C84.9371 45.2081 85.123 45.077 85.3302 44.9895C85.5375 44.9021 85.7611 44.8604 85.986 44.8673C86.212 44.8573 86.4373 44.8984 86.6452 44.9876C86.8531 45.0768 87.0382 45.2118 87.1867 45.3825C87.4933 45.7794 87.6447 46.2744 87.6125 46.7749V46.8643H85.2238C85.2095 47.1064 85.2836 47.3455 85.4324 47.5371C85.5064 47.6138 85.596 47.6737 85.6952 47.7126C85.7944 47.7516 85.9008 47.7687 86.0072 47.7627C86.1577 47.7674 86.3056 47.7224 86.4279 47.6347C86.5503 47.5469 86.6404 47.4213 86.6843 47.2773H87.5614C87.4777 47.6106 87.2823 47.9052 87.0079 48.1119ZM86.4884 45.7572C86.426 45.6864 86.3484 45.6304 86.2614 45.5936C86.1744 45.5567 86.0803 45.5399 85.986 45.5443C85.8924 45.542 85.7993 45.5586 85.7123 45.5929C85.6252 45.6273 85.546 45.6788 85.4793 45.7445C85.3399 45.8953 85.2558 46.0889 85.2408 46.2937H86.7098C86.6938 46.0962 86.6164 45.9086 86.4884 45.7572Z" fill="white"/>
<path d="M92.3604 48.312V46.3193C92.3622 46.1505 92.3227 45.9839 92.2454 45.8339C92.1966 45.7692 92.1313 45.7189 92.0564 45.6882C91.9815 45.6575 91.8997 45.6475 91.8196 45.6593C91.3938 45.6593 91.1809 45.9233 91.1809 46.4598V48.3333H90.2612V46.3022C90.27 46.1357 90.2347 45.9697 90.159 45.8211C90.1138 45.7593 90.0527 45.7109 89.9823 45.681C89.9118 45.651 89.8346 45.6406 89.7588 45.6508C89.333 45.6508 89.0945 45.9403 89.0945 46.5024V48.312H88.1748V44.9823H89.0477V45.4421C89.1641 45.269 89.3223 45.1279 89.5075 45.0319C89.6928 44.9359 89.8993 44.8881 90.1079 44.8928C90.3025 44.8748 90.4978 44.9181 90.6665 45.0166C90.8352 45.1151 90.9689 45.2639 91.0489 45.4421C91.1707 45.2663 91.3348 45.1238 91.526 45.0278C91.7172 44.9319 91.9294 44.8854 92.1432 44.8928C92.2998 44.8819 92.4568 44.9048 92.6038 44.9599C92.7507 45.015 92.8841 45.101 92.9948 45.2122C93.198 45.4481 93.3031 45.7528 93.2886 46.0638V48.3077L92.3604 48.312Z" fill="white"/>
<path d="M96.7123 45.4081C96.837 45.25 96.9972 45.1237 97.18 45.0393C97.3628 44.955 97.5629 44.915 97.764 44.9227C97.9645 44.9157 98.1638 44.956 98.3457 45.0403C98.5277 45.1246 98.6873 45.2506 98.8115 45.4081C99.0763 45.7605 99.2103 46.194 99.1905 46.6344C99.2028 47.0969 99.0521 47.5491 98.7647 47.9118C98.6365 48.0707 98.4734 48.1979 98.288 48.2836C98.1026 48.3692 97.9 48.411 97.6959 48.4057C97.4922 48.4168 97.2891 48.3758 97.1058 48.2863C96.9225 48.1969 96.765 48.0621 96.6485 47.8947V48.3205H95.7969V43.7049H96.7081L96.7123 45.4081ZM96.8954 45.8977C96.7401 46.1157 96.6635 46.3799 96.6783 46.6471C96.664 46.9176 96.7388 47.1854 96.8912 47.4093C96.9601 47.4988 97.0493 47.5706 97.1515 47.6187C97.2537 47.6668 97.3659 47.6899 97.4788 47.6861C97.5906 47.689 97.7014 47.6646 97.8016 47.6149C97.9018 47.5651 97.9883 47.4916 98.0536 47.4008C98.2074 47.1775 98.2824 46.9093 98.2665 46.6386C98.2805 46.3761 98.2055 46.1165 98.0536 45.902C97.9833 45.8164 97.8949 45.7475 97.7948 45.7001C97.6946 45.6528 97.5853 45.6283 97.4745 45.6283C97.3638 45.6283 97.2544 45.6528 97.1543 45.7001C97.0541 45.7475 96.9657 45.8164 96.8954 45.902V45.8977Z" fill="white"/>
<path d="M101.558 48.295C101.498 48.4654 101.455 48.5846 101.426 48.6485L101.298 48.9295C101.256 49.0207 101.202 49.1053 101.136 49.1807C101.072 49.2381 101.005 49.2921 100.936 49.3425C100.851 49.4033 100.753 49.4453 100.651 49.466C100.53 49.4895 100.407 49.5009 100.284 49.5H99.6713V48.7464H100.118C100.181 48.7508 100.244 48.7426 100.303 48.7221C100.362 48.7016 100.417 48.6693 100.463 48.6272C100.505 48.584 100.537 48.5325 100.558 48.476C100.579 48.4195 100.587 48.3593 100.582 48.2993C100.581 48.2557 100.572 48.2126 100.557 48.1716L99.3477 44.9824H100.336L101.098 47.2476L101.834 44.9824H102.784L101.558 48.295Z" fill="white"/>
<path d="M107.212 46.5408V48.3121H106.216V46.5195L104.513 43.7135H105.662L106.735 45.5529L107.817 43.7135H108.937L107.212 46.5408Z" fill="white"/>
<path d="M111.407 48.312C111.373 48.2068 111.352 48.0983 111.343 47.9884C111.201 48.1287 111.033 48.2388 110.848 48.312C110.663 48.3852 110.464 48.4199 110.265 48.4142C109.959 48.4271 109.658 48.3322 109.414 48.1459C109.309 48.0551 109.226 47.9415 109.171 47.8139C109.117 47.6863 109.092 47.548 109.099 47.4093C109.095 47.2822 109.114 47.1554 109.154 47.0346C109.186 46.9282 109.248 46.8335 109.333 46.7621C109.408 46.6974 109.488 46.6377 109.571 46.5833C109.668 46.5245 109.775 46.4841 109.886 46.4641L110.21 46.3959L110.551 46.3491C110.772 46.3285 110.991 46.2828 111.202 46.2128C111.254 46.1915 111.297 46.1545 111.326 46.107C111.355 46.0596 111.368 46.0043 111.364 45.9488C111.364 45.665 111.164 45.5159 110.764 45.5018C110.601 45.489 110.438 45.5293 110.299 45.6167C110.187 45.7193 110.117 45.8607 110.104 46.0127H109.252C109.303 45.2633 109.817 44.8886 110.793 44.8886C111.764 44.8886 112.245 45.2505 112.245 45.9744V47.4136C112.23 47.7206 112.271 48.0278 112.365 48.3205L111.407 48.312ZM110.691 46.8643C110.506 46.8791 110.325 46.9343 110.163 47.0261C110.116 47.0679 110.078 47.1197 110.053 47.1779C110.028 47.2361 110.016 47.2992 110.018 47.3625C110.016 47.4227 110.027 47.4827 110.05 47.5384C110.072 47.5942 110.107 47.6446 110.15 47.6861C110.254 47.7712 110.387 47.8138 110.521 47.8053C110.736 47.8172 110.947 47.7472 111.113 47.6094C111.188 47.5407 111.247 47.4563 111.286 47.3621C111.325 47.2679 111.343 47.1663 111.338 47.0644V46.6855C111.127 46.7811 110.901 46.8415 110.67 46.8643H110.691Z" fill="white"/>
<path d="M117.129 48.312V46.3193C117.138 46.1444 117.103 45.9701 117.027 45.8126C116.978 45.7479 116.913 45.6976 116.838 45.6669C116.763 45.6362 116.681 45.6262 116.601 45.638C116.175 45.638 115.962 45.902 115.962 46.4385V48.312H115.042V46.2809C115.051 46.1144 115.016 45.9484 114.94 45.7998C114.895 45.738 114.834 45.6896 114.764 45.6597C114.693 45.6297 114.616 45.6193 114.54 45.6295C114.114 45.6295 113.876 45.919 113.876 46.4811V48.2907H112.956V44.9823H113.829V45.4421C113.945 45.269 114.104 45.1279 114.289 45.0319C114.474 44.9359 114.681 44.8881 114.889 44.8928C115.084 44.8748 115.279 44.9181 115.448 45.0166C115.616 45.1151 115.75 45.2639 115.83 45.4421C115.952 45.2663 116.116 45.1238 116.307 45.0278C116.498 44.9319 116.711 44.8854 116.924 44.8928C117.081 44.8816 117.238 44.9043 117.385 44.9595C117.532 45.0146 117.665 45.1008 117.776 45.2122C117.979 45.4481 118.084 45.7528 118.07 46.0638V48.3077L117.129 48.312Z" fill="white"/>
<path d="M120.948 48.312C120.915 48.2068 120.894 48.0983 120.884 47.9884C120.743 48.1289 120.575 48.2391 120.39 48.3123C120.205 48.3855 120.006 48.4202 119.807 48.4142C119.494 48.4322 119.184 48.337 118.934 48.1459C118.829 48.0551 118.747 47.9415 118.692 47.8139C118.637 47.6863 118.612 47.548 118.619 47.4093C118.616 47.2822 118.635 47.1554 118.675 47.0346C118.708 46.929 118.77 46.8347 118.853 46.7621C118.929 46.6974 119.009 46.6377 119.092 46.5833C119.189 46.5252 119.296 46.4849 119.407 46.4641L119.731 46.3959L120.071 46.3491C120.293 46.3285 120.511 46.2828 120.723 46.2128C120.774 46.1915 120.817 46.1545 120.846 46.107C120.875 46.0596 120.889 46.0043 120.884 45.9488C120.884 45.665 120.684 45.5159 120.284 45.5018C120.121 45.489 119.958 45.5293 119.82 45.6167C119.707 45.7193 119.637 45.8607 119.624 46.0127H118.773C118.824 45.2633 119.337 44.8886 120.314 44.8886C121.29 44.8886 121.776 45.2505 121.77 45.9744V47.4136C121.754 47.7203 121.793 48.0276 121.885 48.3205L120.948 48.312ZM120.233 46.8643C120.047 46.8791 119.867 46.9343 119.705 47.0261C119.657 47.0679 119.62 47.1197 119.595 47.1779C119.57 47.2361 119.558 47.2992 119.56 47.3625C119.558 47.4227 119.569 47.4827 119.592 47.5384C119.614 47.5942 119.649 47.6446 119.692 47.6861C119.798 47.7718 119.931 47.8144 120.067 47.8053C120.28 47.8161 120.49 47.7462 120.655 47.6094C120.73 47.5407 120.789 47.4563 120.828 47.3621C120.867 47.2679 120.885 47.1663 120.88 47.0644V46.6855C120.675 46.7789 120.457 46.8393 120.233 46.8643Z" fill="white"/>
<path d="M124.325 45.5997H123.643V47.1667C123.643 47.2646 123.643 47.337 123.643 47.3838C123.648 47.4336 123.664 47.4817 123.69 47.5243C123.703 47.5472 123.72 47.5674 123.74 47.5835C123.761 47.5996 123.784 47.6113 123.81 47.618C123.884 47.6338 123.959 47.641 124.035 47.6393C124.129 47.6445 124.223 47.6445 124.316 47.6393V48.3376C124.091 48.3376 123.89 48.3632 123.758 48.3632C123.469 48.3952 123.178 48.3194 122.941 48.1503C122.769 47.9176 122.693 47.6282 122.728 47.3412V45.6125H122.179V44.9823H122.737V43.9732H123.643V44.9823H124.325V45.5997Z" fill="white"/>
<path d="M127.642 45.3656C127.942 45.7236 128.107 46.1758 128.107 46.643C128.107 47.1101 127.942 47.5623 127.642 47.9203C127.3 48.2327 126.853 48.4059 126.39 48.4059C125.927 48.4059 125.48 48.2327 125.138 47.9203C124.979 47.7495 124.854 47.5486 124.773 47.3293C124.692 47.1099 124.656 46.8766 124.666 46.643C124.656 46.4086 124.693 46.1747 124.776 45.9552C124.859 45.7357 124.985 45.5351 125.147 45.3656C125.314 45.1996 125.514 45.0705 125.734 44.9869C125.954 44.9033 126.189 44.8669 126.424 44.8802C126.65 44.8732 126.874 44.9127 127.084 44.9962C127.293 45.0797 127.483 45.2054 127.642 45.3656ZM125.798 45.8638C125.643 46.0927 125.568 46.3668 125.585 46.643C125.566 46.9246 125.641 47.2046 125.798 47.4392C125.867 47.5306 125.956 47.604 126.059 47.6529C126.163 47.7019 126.276 47.725 126.39 47.7202C126.505 47.7256 126.619 47.7024 126.722 47.6526C126.826 47.6028 126.915 47.528 126.982 47.4349C127.135 47.1985 127.208 46.9196 127.191 46.6387C127.206 46.3628 127.131 46.0894 126.978 45.8595C126.908 45.7677 126.817 45.6942 126.712 45.6452C126.608 45.5963 126.493 45.5734 126.377 45.5785C126.265 45.5744 126.153 45.5984 126.052 45.6482C125.951 45.698 125.864 45.772 125.798 45.8638Z" fill="white"/>
<path d="M133.054 45.0802C133.016 44.6246 132.726 44.3947 132.203 44.3947C132.011 44.3834 131.82 44.4326 131.658 44.5352C131.594 44.5759 131.542 44.6329 131.508 44.7003C131.473 44.7676 131.457 44.8429 131.462 44.9184C131.461 44.9692 131.47 45.0197 131.487 45.0675C131.507 45.1153 131.539 45.1566 131.581 45.1867C131.626 45.2216 131.674 45.2516 131.726 45.2761C131.793 45.3091 131.863 45.3362 131.934 45.357L132.186 45.4294L132.505 45.5146L132.867 45.6082C133.235 45.6973 133.58 45.8627 133.88 46.0936C133.996 46.2014 134.086 46.334 134.144 46.4815C134.201 46.6289 134.225 46.7874 134.212 46.9452C134.217 47.1851 134.161 47.4222 134.051 47.635C133.95 47.8228 133.803 47.9824 133.625 48.0991C133.439 48.2145 133.237 48.2994 133.024 48.3503C132.797 48.4042 132.564 48.4313 132.33 48.4312C131.809 48.463 131.293 48.3125 130.87 48.0055C130.694 47.8588 130.554 47.6733 130.461 47.4634C130.369 47.2536 130.327 47.0252 130.338 46.7962H131.338C131.338 47.371 131.7 47.6478 132.377 47.6478C132.597 47.6605 132.815 47.6023 132.999 47.4817C133.069 47.4345 133.126 47.3711 133.166 47.297C133.206 47.2229 133.228 47.1402 133.229 47.0559C133.233 46.9835 133.215 46.9115 133.178 46.8493C133.141 46.787 133.086 46.7374 133.02 46.7068C132.735 46.5824 132.44 46.4813 132.139 46.4045H132.079H132.028H131.968L131.649 46.3108L131.36 46.2086C131.26 46.1764 131.164 46.1336 131.074 46.0809C130.996 46.0308 130.921 45.9768 130.849 45.9191C130.771 45.8598 130.706 45.7861 130.657 45.7019C130.613 45.6136 130.579 45.5208 130.555 45.4251C130.483 45.182 130.485 44.9231 130.561 44.6812C130.637 44.4393 130.783 44.2255 130.981 44.0669C131.352 43.8023 131.802 43.6703 132.258 43.6922C132.712 43.6692 133.161 43.7964 133.535 44.0541C133.701 44.1844 133.833 44.3525 133.921 44.5444C134.008 44.7363 134.048 44.9463 134.038 45.1569L133.054 45.0802Z" fill="white"/>
<path d="M135.646 44.4884H134.727V43.7049H135.646V44.4884ZM135.646 48.3205H134.727V44.9823H135.646V48.3205Z" fill="white"/>
<path d="M139.564 47.9629C139.583 48.1808 139.557 48.4002 139.487 48.6075C139.417 48.8148 139.306 49.0056 139.159 49.1679C138.812 49.449 138.37 49.5861 137.925 49.5511C136.975 49.5511 136.451 49.202 136.362 48.5122H137.273C137.284 48.5778 137.309 48.6405 137.346 48.6961C137.382 48.7518 137.43 48.7993 137.486 48.8358C137.627 48.9124 137.786 48.9478 137.946 48.938C138.052 48.952 138.161 48.9399 138.262 48.9028C138.362 48.8658 138.453 48.8047 138.525 48.7251C138.642 48.5288 138.697 48.3017 138.682 48.0736V47.6946C138.57 47.8598 138.418 47.994 138.24 48.0848C138.062 48.1756 137.864 48.22 137.665 48.2141C137.469 48.2244 137.273 48.1894 137.093 48.1118C136.913 48.0343 136.753 47.9163 136.626 47.767C136.357 47.4297 136.221 47.0057 136.243 46.5748C136.22 46.1306 136.362 45.6936 136.643 45.3485C136.774 45.1972 136.937 45.0773 137.121 44.9977C137.304 44.9181 137.503 44.8808 137.703 44.8887C137.901 44.8717 138.1 44.9115 138.277 45.0035C138.453 45.0955 138.6 45.2358 138.699 45.4081V44.9823H139.551L139.564 47.9629ZM137.354 45.8339C137.219 46.0458 137.147 46.2917 137.147 46.5429C137.147 46.794 137.219 47.04 137.354 47.2518C137.421 47.3365 137.508 47.4041 137.606 47.4493C137.704 47.4944 137.812 47.5157 137.92 47.5116C138.028 47.5156 138.136 47.4937 138.233 47.4478C138.331 47.4019 138.416 47.3332 138.482 47.2476C138.632 47.0385 138.705 46.7846 138.691 46.528C138.706 46.2792 138.632 46.0331 138.482 45.8339C138.411 45.7546 138.324 45.6911 138.226 45.6477C138.128 45.6043 138.023 45.5819 137.916 45.5819C137.809 45.5819 137.704 45.6043 137.606 45.6477C137.509 45.6911 137.421 45.7546 137.35 45.8339H137.354Z" fill="white"/>
<path d="M142.528 48.312V46.3661C142.541 46.1782 142.499 45.9906 142.409 45.8254C142.355 45.7588 142.286 45.707 142.207 45.6749C142.128 45.6429 142.042 45.6316 141.957 45.6423C141.476 45.6423 141.233 45.9361 141.233 46.5194V48.312H140.322V44.9823H141.174V45.4464C141.298 45.2699 141.465 45.1269 141.658 45.0303C141.851 44.9337 142.065 44.8865 142.281 44.8929C142.436 44.8832 142.592 44.9054 142.738 44.9581C142.885 45.0109 143.019 45.093 143.133 45.1995C143.241 45.3185 143.325 45.4583 143.378 45.6105C143.432 45.7627 143.454 45.9242 143.443 46.0851V48.3163L142.528 48.312Z" fill="white"/>
<path d="M146.322 48.312C146.287 48.207 146.264 48.0985 146.254 47.9884C146.112 48.1289 145.944 48.2391 145.759 48.3123C145.574 48.3855 145.375 48.4202 145.176 48.4142C144.863 48.4322 144.553 48.337 144.303 48.1459C144.199 48.0551 144.116 47.9415 144.061 47.8139C144.006 47.6863 143.982 47.548 143.988 47.4093C143.985 47.2822 144.004 47.1554 144.044 47.0346C144.079 46.9298 144.14 46.8358 144.223 46.7621C144.299 46.6963 144.38 46.6365 144.465 46.5833C144.561 46.5244 144.666 46.484 144.776 46.4641L145.1 46.3959L145.44 46.3491C145.662 46.3285 145.881 46.2828 146.092 46.2128C146.144 46.192 146.187 46.1551 146.216 46.1076C146.245 46.06 146.259 46.0044 146.254 45.9488C146.254 45.665 146.053 45.5159 145.653 45.5018C145.49 45.489 145.327 45.5293 145.189 45.6167C145.077 45.7197 145.009 45.8612 144.998 46.0127H144.146C144.197 45.2633 144.711 44.8886 145.687 44.8886C146.664 44.8886 147.149 45.2505 147.144 45.9744V47.4136C147.127 47.7203 147.166 48.0276 147.259 48.3205L146.322 48.312ZM145.602 46.8643C145.416 46.8791 145.236 46.9343 145.074 47.0261C145.027 47.0679 144.989 47.1197 144.964 47.1779C144.939 47.2361 144.927 47.2992 144.929 47.3625C144.928 47.423 144.939 47.4832 144.963 47.539C144.986 47.5948 145.021 47.6449 145.066 47.6861C145.169 47.7727 145.302 47.8155 145.436 47.8053C145.651 47.8172 145.863 47.7472 146.028 47.6094C146.102 47.5398 146.16 47.4551 146.198 47.3611C146.236 47.267 146.254 47.1658 146.249 47.0644V46.6855C146.045 46.7798 145.826 46.8402 145.602 46.8643Z" fill="white"/>
<path d="M151.056 47.9629C151.072 48.1822 151.043 48.4026 150.97 48.61C150.896 48.8174 150.781 49.0073 150.63 49.1679C150.285 49.4491 149.844 49.5863 149.4 49.5511C148.446 49.5511 147.927 49.2019 147.837 48.5122H148.744C148.756 48.5776 148.781 48.6399 148.818 48.6955C148.854 48.7511 148.902 48.7988 148.957 48.8358C149.098 48.9111 149.257 48.9465 149.417 48.9379C149.524 48.9516 149.633 48.9394 149.734 48.9023C149.836 48.8653 149.927 48.8045 150 48.725C150.114 48.5274 150.167 48.301 150.154 48.0736V47.6946C150.04 47.8595 149.887 47.9935 149.709 48.0842C149.53 48.1749 149.332 48.2196 149.132 48.2141C148.936 48.2237 148.742 48.1884 148.562 48.1109C148.383 48.0333 148.224 47.9157 148.097 47.767C147.825 47.4313 147.687 47.0065 147.709 46.5748C147.689 46.1308 147.831 45.6946 148.11 45.3485C148.241 45.1977 148.404 45.0781 148.588 44.9985C148.771 44.919 148.97 44.8814 149.17 44.8886C149.37 44.8733 149.57 44.9157 149.747 45.0108C149.923 45.1059 150.069 45.2497 150.166 45.4251V44.9993H151.018L151.056 47.9629ZM148.842 45.8339C148.698 46.0435 148.627 46.2952 148.642 46.5492C148.628 46.8005 148.702 47.0489 148.851 47.2518C148.92 47.3342 149.006 47.4004 149.104 47.4458C149.201 47.4913 149.307 47.5148 149.415 47.5148C149.522 47.5148 149.629 47.4913 149.726 47.4458C149.823 47.4004 149.91 47.3342 149.979 47.2518C150.125 47.0413 150.197 46.7881 150.183 46.5322C150.198 46.2841 150.126 46.0387 149.979 45.8382C149.907 45.7593 149.819 45.6963 149.721 45.6532C149.623 45.6101 149.517 45.5879 149.411 45.5879C149.304 45.5879 149.198 45.6101 149.1 45.6532C149.002 45.6963 148.914 45.7593 148.842 45.8382V45.8339Z" fill="white"/>
<path d="M154.369 48.1119C154.078 48.312 153.731 48.4148 153.377 48.4057C153.15 48.4162 152.922 48.3792 152.71 48.2971C152.497 48.215 152.304 48.0896 152.142 47.9288C151.98 47.7599 151.854 47.5593 151.773 47.3395C151.692 47.1197 151.656 46.8854 151.67 46.6515C151.652 46.1798 151.822 45.7204 152.142 45.3741C152.295 45.2088 152.481 45.0781 152.688 44.9907C152.895 44.9034 153.118 44.8613 153.343 44.8674C153.569 44.8567 153.795 44.8976 154.003 44.9868C154.211 45.0761 154.396 45.2114 154.544 45.3826C154.86 45.7755 155.019 46.2715 154.991 46.7749V46.8644H152.602C152.589 47.1024 152.663 47.3371 152.811 47.5243C152.884 47.6008 152.973 47.6605 153.072 47.6994C153.17 47.7384 153.276 47.7556 153.381 47.75C153.532 47.7542 153.68 47.7091 153.803 47.6215C153.926 47.5339 154.017 47.4086 154.063 47.2646H154.94C154.854 47.605 154.653 47.9048 154.369 48.1119ZM153.85 45.7573C153.787 45.6863 153.708 45.6304 153.621 45.5936C153.533 45.5567 153.438 45.5399 153.343 45.5444C153.25 45.5419 153.158 45.5584 153.071 45.5928C152.985 45.6272 152.906 45.6788 152.841 45.7445C152.701 45.8953 152.617 46.089 152.602 46.2938H154.063C154.049 46.0972 153.975 45.9097 153.85 45.7573Z" fill="white"/>
</svg>
